<?xml version="1.0" encoding="UTF-8"?>
<svg version="1.1" xmlns="http://www.w3.org/2000/svg" width="61" height="61">
<path d="M0 0 C5.23988008 3.17773373 9.18170384 7.85847691 12 13.25 C13.60558528 22.52671497 12.6865523 29.11987899 8.5625 37.5 C9.07748047 38.00974365 9.59246094 38.5194873 10.12304688 39.04467773 C12.43877044 41.33970648 14.75067781 43.63854168 17.0625 45.9375 C17.87332031 46.73994141 18.68414062 47.54238281 19.51953125 48.36914062 C20.28652344 49.13291016 21.05351563 49.89667969 21.84375 50.68359375 C22.55595703 51.39056396 23.26816406 52.09753418 24.00195312 52.82592773 C25.5625 54.5 25.5625 54.5 25.5625 55.5 C21.86189751 56.2401205 20.13168169 56.52764361 16.5625 55.5 C13.65100803 53.21839812 11.20898195 50.48816516 8.81347656 47.68066406 C7.21672588 45.80161027 7.21672588 45.80161027 4.5625 43.5 C1.60846053 43.50453074 -0.19257054 44.39681032 -2.89453125 45.53515625 C-8.42369225 47.63300996 -14.62967427 47.37965449 -20.23046875 45.625 C-26.7172594 42.64166512 -31.39217326 38.64002344 -34.5703125 32.20703125 C-36.6399084 25.74653594 -36.71488969 17.33006081 -33.9375 11.0625 C-26.91173661 -0.56376327 -12.74096817 -5.64599766 0 0 Z M-28.24609375 11.72265625 C-31.63541257 16.77885317 -31.73777737 21.23954016 -30.97265625 27.10546875 C-29.60561305 33.22223867 -25.39647453 36.99954739 -20.4375 40.5 C-14.57770686 42.88732313 -9.41081695 43.08768151 -3.55078125 40.74609375 C1.83572208 37.95352478 5.21098091 34.20303819 7.9375 28.75 C9.07499495 22.83502625 8.61836892 17.57263158 5.875 12.1875 C0.96742839 6.48410597 -3.5804449 2.87938247 -11.25 2.125 C-18.56800715 2.35928648 -23.85492438 6.06319272 -28.24609375 11.72265625 Z " fill="#D3AF0F" transform="translate(35.4375,5.5)"/>
</svg>
