<?xml version="1.0" encoding="UTF-8"?>
<svg version="1.1" xmlns="http://www.w3.org/2000/svg" width="512" height="512">
<path d="M0 0 C0.76568298 0.00248749 1.53136597 0.00497498 2.32025146 0.00753784 C43.4730682 0.213532 82.08916482 13.40718365 
114.875 38.3125 C115.76058594 38.9725 116.64617187 39.6325 117.55859375 40.3125 C136.6363994 55.17983104 151.71258368 73.53687712
 163.875 94.3125 C164.26574707 94.97733398 164.65649414 95.64216797 165.05908203 96.32714844 C181.10878545 124.03528098 188.32627476 
 155.35049081 188.25 187.1875 C188.24918427 188.47208603 188.24918427 188.47208603 188.24835205 189.78262329 C188.1859427 211.22223151 
 184.90089068 231.03353228 177.875 251.3125 C177.65118652 251.96444336 177.42737305 252.61638672 177.19677734 253.28808594 C169.2132983 
 276.00433325 156.37392843 296.84683749 139.875 314.3125 C138.76640313 315.6212602 137.66209026 316.93366359 136.5625 318.25 
 C106.42886892 352.58992741 59.32999534 372.53027471 14.4375 375.9375 C-31.89632703 378.53521711 -79.84242732 366.26469688 -116.125 336.3125
  C-116.75204928 335.66152218 -117.37909857 335.01054436 -118.02514935 334.33983994 C-122.93040224 329.3740033 -126.30649754 
  327.39867874 -133.30801392 327.29811096 C-134.31665497 327.32380661 -135.32529602 327.34950226 -136.36450195 327.37597656 
  C-137.45179092 327.37147995 -138.5390799 327.36698334 -139.65931702 327.36235046 C-143.22840522 327.3560683 -146.79454918 
  327.40504887 -150.36328125 327.453125 C-152.85190228 327.45576471 -155.34053074 327.45429922 -157.82914734 327.44891357 
  C-164.36279284 327.44314647 -170.89535165 327.48154394 -177.42877197 327.53277588 C-187.90288848 327.61357405 -198.37714962 327.63423756 
  -208.85155296 327.6326828 C-212.51024979 327.64053798 -216.16799502 327.67540408 -219.82649231 327.71295166 C-222.06181575 327.72002591 
  -224.29714214 327.72623763 -226.5324707 327.73144531 C-227.55123291 327.74904404 -228.56999512 327.76664276 -229.61962891 327.78477478 
  C-236.49286012 327.76748629 -236.49286012 327.76748629 -239.72843933 325.43865967 C-241.39251285 322.9052316 -242.0507712 321.35588071
   -242.125 318.3125 C-240.9834081 316.0293162 -239.93487317 314.12237317 -238.125 312.3125 C-235.14276826 312.18716913 -232.18258366 
   312.12638422 -229.19897461 312.10717773 C-228.26248581 312.09727814 -227.32599701 312.08737854 -226.36112976 312.07717896 C-223.24989392 
   312.04546247 -220.13864278 312.02076659 -217.02734375 311.99609375 C-214.87642508 311.97553297 -212.72551054 311.95453675 -210.57460022 
   311.93312073 C-204.90122811 311.8778095 -199.22781899 311.82844028 -193.55438232 311.78027344 C-187.76994516 311.73012433 -181.98556204
    311.67440394 -176.20117188 311.61914062 C-164.84249402 311.51144842 -153.48376935 311.41002818 -142.125 311.3125 C-142.94194336 310.30292236 
    -143.75888672 309.29334473 -144.60058594 308.25317383 C-145.68698086 306.90456588 -146.77323648 305.55584571 -147.859375 304.20703125 C-148.3961084
     303.54449341 -148.9328418 302.88195557 -149.48583984 302.19934082 C-161.125 287.72146947 -161.125 287.72146947 -161.125 283.3125 C-163.0472641 
     283.32249275 -163.0472641 283.32249275 -165.00836182 283.33268738 C-177.07432828 283.39345301 -189.14026377 283.43845082 -201.20634842 283.46793652 
     C-207.40992857 283.4836049 -213.61338538 283.5048648 -219.81689453 283.53881836 C-225.80152349 283.57136964 -231.78603368 283.58934418 -237.77074432 
     283.59713173 C-240.05614848 283.60268282 -242.34154601 283.61352248 -244.62689972 283.62969017 C-247.82335048 283.65140786 -251.01930787 283.65446925
      -254.21582031 283.65307617 C-255.63893776 283.66925491 -255.63893776 283.66925491 -257.09080505 283.6857605 C-263.48418228 283.65552941 -263.48418228 
      283.65552941 -266.68963623 281.93965149 C-268.64467096 279.72339263 -268.98481997 278.25628054 -269.125 275.3125 C-268.06100927 271.49986653 
      -267.4998349 270.56238993 -264.125 268.3125 C-261.10390348 268.12758447 -258.17623205 268.06043077 -255.15551758 268.08544922 C-254.23824387 268.08515717 
      -253.32097015 268.08486511 -252.37590027 268.08456421 C-249.3403481 268.08595889 -246.3050406 268.10152667 -243.26953125 268.1171875 C-241.16631708 268.12091714
       -239.06310117 268.12376434 -236.95988464 268.12576294 C-231.42126681 268.13340327 -225.88275368 268.15305525 -220.34417725 268.1751709 C-214.69365862
        268.19562068 -209.04312309 268.2047628 -203.39257812 268.21484375 C-192.30333938 268.23630072 -181.2141784 268.27044153 -170.125 268.3125 C-170.53773163 
        267.35779816 -170.95046326 266.40309631 -171.3757019 265.41946411 C-171.92225025 264.15092944 -172.46872461 262.88236289 -173.01513672 261.61376953 
        C-173.28658005 260.9864241 -173.55802338 260.35907867 -173.83769226 259.71272278 C-175.89246597 254.93620835 -177.71286004 250.15238891 
        -179.25 245.1875 C-179.49516357 244.4039917 -179.74032715 243.6204834 -179.99291992 242.81323242 C-184.04723197 229.40199842 -187.21001047 
        215.09973831 -187.1496582 201.05200195 C-187.14609818 199.97586136 -187.14253815 198.89972076 -187.13887024 197.79096985 C-187.13429306 196.9730748 
        -187.12971588 196.15517975 -187.125 195.3125 C-188.5210849 195.32915459 -188.5210849 195.32915459 -189.94537354 195.34614563 C-198.71484054 
        195.44748634 -207.48418882 195.52244815 -216.25410843 195.57156086 C-220.76291551 195.59765929 -225.27125005 195.63306122 -229.77978516 
        195.68969727 C-234.13051753 195.74400921 -238.48079532 195.77391868 -242.83184052 195.78688622 C-244.49209501 195.79612767 -246.15232451 
        195.81417443 -247.81238556 195.84115028 C-250.13751551 195.87743208 -252.46076551 195.88244607 -254.78613281 195.88012695 C-255.81651924 
        195.90709152 -255.81651924 195.90709152 -256.86772156 195.93460083 C-260.49973471 195.89538381 -261.8981704 195.52551278 -264.5836792
         193.00358582 C-266.125 190.3125 -266.125 190.3125 -266.125 186.6875 C-264.99269824 182.86598156 -264.53456692 182.18149374 -261.125 
         180.3125 C-257.83465576 179.95173645 -257.83465576 179.95173645 -253.87792969 179.97192383 C-253.15558136 179.97148575 -252.43323303 
         179.97104767 -251.68899536 179.97059631 C-249.30801096 179.97268171 -246.92773597 179.99600014 -244.546875 180.01953125 C-242.89349757 
         180.02512811 -241.24011515 180.02939778 -239.58673096 180.03239441 C-235.23993132 180.04383614 -230.89343351 180.07329741 -226.54675293 
         180.10650635 C-222.10933515 180.13722179 -217.6718685 180.15090289 -213.234375 180.16601562 C-204.53111166 180.19816787 -195.8280934
          180.24935594 -187.125 180.3125 C-187.12966782 179.56815201 -187.13433563 178.82380402 -187.1391449 178.05690002 C-187.14277542 177.07462936 
          -187.14640594 176.0923587 -187.15014648 175.08032227 C-187.1548143 174.10909927 -187.15948212 173.13787628 -187.16429138 172.13722229
           C-187.11276015 168.43255716 -186.70738342 164.91954211 -186.1875 161.25 C-186.01347656 159.98027344 -185.83945313 158.71054687 
           -185.66015625 157.40234375 C-185.125 154.3125 -185.125 154.3125 -184.125 152.3125 C-185.06819092 152.32297363 -186.01138184 
           152.33344727 -186.9831543 152.34423828 C-190.49620018 152.37840641 -194.0090684 152.4034408 -197.5222168 152.42236328 C-199.04014886 152.43239545 -200.55806173 152.44602438 -202.07592773 152.46337891 C-204.2629064 152.48775035 -206.44962864 152.49901095 -208.63671875 152.5078125 C-209.95115967 152.51828613 -211.26560059 152.52875977 -212.61987305 152.53955078 C-215.99054737 152.32120941 -218.17486888 151.9199625 -221.125 150.3125 C-223.61336965 146.57994552 -223.66726552 144.72809065 -223.125 140.3125 C-221.03719894 137.99140348 -219.34025466 136.52996154 -216.2046814 135.96887207 C-213.90037313 135.84967065 -211.63084553 135.8627481 -209.32421875 135.921875 C-208.48784378 135.92753479 -207.65146881 135.93319458 -206.78974915 135.93902588 C-204.13007289 135.96133732 -201.47176595 136.01152212 -198.8125 136.0625 C-197.00457681 136.08257185 -195.19663241 136.10082142 -193.38867188 136.1171875 C-188.96692389 136.16118473 -184.54619375 136.23017454 -180.125 136.3125 C-179.99952286 135.71683228 -179.87404572 135.12116455 -179.74476624 134.50744629 C-178.8726221 130.45969036 -178.01021919 126.52117038 -176.49609375 122.65625 C-176.18833008 121.87032471 -175.88056641 121.08439941 -175.56347656 120.2746582 C-175.06799316 119.05588989 -175.06799316 119.05588989 -174.5625 117.8125 C-174.03414551 116.51155396 -174.03414551 116.51155396 -173.49511719 115.18432617 C-166.45852729 98.21746503 -156.93323659 83.710328 -145.9440918 69.06860352 C-145.41333542 68.36131607 -144.88257904 67.65402863 -144.33573914 66.92530823 C-143.93619522 66.39308151 -143.53665131 65.8608548 -143.125 65.3125 C-144.14119919 65.31107498 -145.15739838 65.30964996 -146.20439148 65.30818176 C-155.78326297 65.29150897 -165.36170979 65.24872687 -174.94035625 65.18040943 C-179.86484042 65.1461251 -184.78901388 65.12102721 -189.71362305 65.11694336 C-194.46661838 65.1126635 -199.21891264 65.0842269 -203.97168922 65.03906822 C-205.78451262 65.02608318 -207.59741987 65.02178911 -209.41028404 65.02634621 C-211.95096819 65.03124522 -214.48959779 65.0051935 -217.0300293 64.97192383 C-218.15320557 64.98486229 -218.15320557 64.98486229 -219.29907227 64.99806213 C-223.22889273 64.91184786 -224.97563671 64.4306424 -228.09577942 61.96269226 C-230.125 59.3125 -230.125 59.3125 -230.6875 56.25 C-230.00308796 52.67584823 -228.97681131 51.51246872 -226.125 49.3125 C-223.40687273 48.40645758 -221.90761313 48.19574816 -219.12452698 48.22157288 C-218.31315781 48.22623566 -217.50178864 48.23089844 -216.66583252 48.23570251 C-215.33573151 48.25063499 -215.33573151 48.25063499 -213.97875977 48.26586914 C-212.03626205 48.27864619 -210.0937621 48.29108649 -208.15126038 48.30323792 C-207.11972399 48.31115419 -206.0881876 48.31907047 -205.02539253 48.32722664 C-198.40619493 48.36936694 -191.78681789 48.35749838 -185.16751194 48.35733891 C-179.35642389 48.3603314 -173.54641072 48.38090957 -167.7355957 48.43920898 C-162.11004287 48.49459639 -156.48628963 48.50076618 -150.86054802 48.47451591 C-148.72405602 48.47328646 -146.58747414 48.48962485 -144.45126534 48.52443123 C-130.13347488 48.99989798 -130.13347488 48.99989798 -117.96166992 42.41796875 C-116.3221994 40.74237881 -114.70558702 39.04374519 -113.125 37.3125 C-110.78917855 35.48926404 -108.3617699 33.85912897 -105.875 32.25 C-105.24770996 31.84136719 -104.62041992 31.43273437 -103.97412109 31.01171875 C-102.03388177 29.76287337 -100.0823906 28.53425698 -98.125 27.3125 C-97.52268555 26.9323877 -96.92037109 26.55227539 -96.29980469 26.16064453 C-67.5128398 8.23683198 -33.71243076 -0.17616532 0 0 Z M-120.05517578 83.98828125 C-125.39488173 89.98427095 -129.8795516 96.51232588 -134.125 103.3125 C-134.74060791 104.28968994 -134.74060791 104.28968994 -135.36865234 105.28662109 C-157.06272558 140.2660077 -163.76937681 183.41426465 -154.80957031 223.51318359 C-147.8481839 251.97939492 -133.90368682 276.820056 -114.125 298.3125 C-113.11566406 299.42818359 -113.11566406 299.42818359 -112.0859375 300.56640625 C-92.57566943 321.11445453 -65.32477532 335.2975649 -38.125 342.3125 C-36.91529541 342.62791748 -36.91529541 342.62791748 -35.68115234 342.94970703 C3.93458034 352.79323849 46.60874586 345.02785546 81.59472656 324.68847656 C118.07089657 302.67780267 144.13429517 267.48971097 154.875 226.3125 C160.53426705 203.11531761 161.32765567 177.6196396 155.875 154.3125 C155.68164062 153.48379395 155.48828125 152.65508789 155.2890625 151.80126953 C147.97592338 121.64021353 131.87841276 91.29928312 107.890625 71.01953125 C106.58817257 69.91648529 105.30503381 68.79003099 104.046875 67.63671875 C88.02570723 52.99552552 68.42327776 42.87881631 47.875 36.3125 C47.22466797 36.10399414 46.57433594 35.89548828 45.90429688 35.68066406 C-14.79350046 16.75648224 -77.69631958 38.64060065 -120.05517578 
           83.98828125 Z " class="cls-rush" fill="red" transform="translate(324.125,101.6875)"/>
<path d="M0 0 C29.37 0 58.74 0 89 0 C89 11.88 89 23.76 89 36 C80.75 36 72.5 36 64 36 C64 42.27 64 48.54 64 55 C51.13 55 38.26 55 25 55 C25 48.73 25 42.46 25 36 C16.75 36 8.5 36 0 36 C0 24.12 0 12.24 0 0 Z " fill="#062C49" transform="translate(280,34)"/>
<path d="M0 0 C2.51552626 2.40788505 2.97940051 3.80659148 3.35162354 7.3013916 C3.33660797 9.26852112 3.33660797 9.26852112 3.32128906 11.27539062 C3.32023666 12.00106735 3.31918427 12.72674408 3.31809998 13.47441101 C3.31449848 15.04641879 3.30436271 16.61842224 3.28842926 18.19035339 C3.26541643 20.67880338 3.26430701 23.16636617 3.26971436 25.65490723 C3.28238758 32.72833357 3.26530416 39.80128772 3.20947266 46.87451172 C3.1768402 51.20422143 3.17804195 55.5328365 3.20049286 59.8625946 C3.20224226 61.51165019 3.19095345 63.16077305 3.16638947 64.80964661 C3.13284293 67.11587796 3.14220093 69.41829662 3.16113281 71.72460938 C3.15430481 73.03602905 3.14747681 74.34744873 3.14044189 75.6986084 C3.64556346 78.96160954 3.64556346 78.96160954 5.54676056 80.27572632 C7.3139955 81.27857856 9.15658231 82.14522333 11 83 C12.92578125 84.74609375 12.92578125 84.74609375 14.3125 86.4375 C14.78300781 86.99308594 15.25351562 87.54867187 15.73828125 88.12109375 C19.87600006 94.28283601 19.70315656 100.8208583 19 108 C16.98946494 114.81408369 12.55570504 118.94432421 7.125 123.3125 C0.74756189 126.72498882 -8.01008503 126.17383637 -14.76171875 124.1875 C-20.65801455 121.30442158 -23.996658 116.72780223 -27 111 C-29.10038841 104.69883477 -28.92121715 97.38453597 -26.5 91.1875 C-23.67144576 85.6216352 -18.9509018 80.98363393 -13 79 C-12.99413376 78.06927673 -12.98826752 77.13855347 -12.98222351 76.17962646 C-12.92501892 67.40988093 -12.85226931 58.64038391 -12.76428509 49.87089157 C-12.71955098 45.36235083 -12.68030164 40.85390108 -12.65356445 36.34521484 C-12.62756168 31.99434112 -12.58718098 27.643817 -12.53681374 23.29315948 C-12.52012448 21.63302203 -12.50862303 19.97282407 -12.50238609 18.31261444 C-12.49276715 15.9876589 -12.46473587 13.66360192 -12.43237305 11.33886719 C-12.43380814 10.6519429 -12.43524323 9.96501862 -12.4367218 9.25727844 C-12.35780153 5.25050596 -11.92758907 2.82769899 -9 0 C-5.4314543 -1.18951523 -3.60804584 -0.97717908 0 0 Z " fill="#062B48" transform="translate(329,188)"/>
<path d="M0 0 C3.97510033 0.58913553 6.80697025 1.82045195 10.26171875 3.8515625 C11.2863623 4.44864014 12.31100586 5.04571777 13.36669922 5.66088867 C14.46256348 6.30904541 15.55842773 6.95720215 16.6875 7.625 C18.42084049 8.6398695 20.15418992 9.65472407 21.88806152 10.66868591 C23.08823106 11.37101456 24.2878499 12.07428505 25.48693848 12.77845764 C29.7571267 15.28407434 34.04967279 17.74756733 38.35546875 20.19140625 C39.54410416 20.86819078 40.73266323 21.54510942 41.92114258 22.22216797 C44.18547526 23.51063041 46.45216458 24.79496204 48.72143555 26.07470703 C49.74922119 26.6623584 50.77700684 27.25000977 51.8359375 27.85546875 C52.73876465 28.36746826 53.6415918 28.87946777 54.57177734 29.40698242 C57 31 57 31 61 35 C56.71 42.59 52.42 50.18 48 58 C44.74630277 56.69852111 42.2128983 55.63479223 39.3125 53.875 C36.34430563 51.83580059 36.34430563 51.83580059 34 52 C32.53417645 54.14281033 31.18876486 56.26706396 29.875 58.5 C29.50246094 59.12003906 29.12992187 59.74007812 28.74609375 60.37890625 C27.82421047 61.91537838 26.91126525 63.45720675 26 65 C21.84361051 62.64772835 17.73264344 60.24312391 13.65844727 57.75170898 C6.60176333 53.44452788 -0.52634752 49.54894112 -8 46 C-7.17854148 41.85493919 -5.19877641 38.7163581 -3.05859375 35.12109375 C-1.77672282 32.94771876 -1.77672282 32.94771876 -2 30 C-5.63 28.02 -9.26 26.04 -13 24 C-11.59007421 20.47518553 -10.2828217 17.57645104 -8.3984375 14.35546875 C-7.90859375 13.51435547 -7.41875 12.67324219 -6.9140625 11.80664062 C-6.40617187 10.94232422 -5.89828125 10.07800781 -5.375 9.1875 C-4.859375 8.30384766 -4.34375 7.42019531 -3.8125 6.50976562 C-2.54468886 4.33805211 -1.27377652 2.1682182 0 0 Z " fill="#1C7BC0" transform="translate(416,61)"/>
<path d="M0 0 C2.86083209 1.20261222 3.55037155 2.78968175 5.05297852 5.47753906 C5.84575195 6.88036133 5.84575195 6.88036133 6.65454102 8.31152344 C7.19336914 9.29572266 7.73219727 10.27992187 8.28735352 11.29394531 C8.84165039 12.27427734 9.39594727 13.25460938 9.96704102 14.26464844 C14.03735352 21.54810172 14.03735352 21.54810172 14.03735352 23.85644531 C11.92016602 25.36425781 11.92016602 25.36425781 9.16235352 26.98144531 C8.25743164 27.52027344 7.35250977 28.05910156 6.42016602 28.61425781 C4.03735352 29.85644531 4.03735352 29.85644531 2.03735352 29.85644531 C2.66963867 31.08621094 2.66963867 31.08621094 3.31469727 32.34082031 C3.86254883 33.41847656 4.41040039 34.49613281 4.97485352 35.60644531 C5.52012695 36.67378906 6.06540039 37.74113281 6.62719727 38.84082031 C7.7621023 41.26781944 8.45147884 43.27956913 9.03735352 45.85644531 C8.46404297 46.14777344 7.89073242 46.43910156 7.30004883 46.73925781 C-3.51269721 52.25623052 -14.1024551 57.73179357 -23.96264648 64.85644531 C-26.86256946 62.15480766 -28.86018065 59.60554744 -30.71264648 56.10644531 C-31.14061523 55.30722656 -31.56858398 54.50800781 -32.00952148 53.68457031 C-32.32405273 53.08128906 -32.63858398 52.47800781 -32.96264648 51.85644531 C-37.46061762 53.54318449 -41.69150951 55.67318423 -45.96264648 57.85644531 C-51.12579672 50.46375293 -55.5590867 42.71355833 -59.96264648 34.85644531 C-57.12265674 31.78701593 -54.36402064 29.75725789 -50.70092773 27.75488281 C-49.15828247 26.90325562 -49.15828247 26.90325562 -47.58447266 26.03442383 C-46.49239502 25.43944092 -45.40031738 24.84445801 -44.27514648 24.23144531 C-42.0061313 22.97896197 -39.73790415 21.72504997 -37.47045898 20.46972656 C-36.35960937 19.85564941 -35.24875977 19.24157227 -34.10424805 18.60888672 C-29.91629982 16.27277447 -25.77553487 13.86342352 -21.65014648 11.41894531 C-20.97741699 11.02263916 -20.3046875 10.62633301 -19.61157227 10.21801758 C-16.52171572 8.39310231 -13.44969547 6.54485571 -10.40014648 4.65332031 C-9.32764648 3.99847656 -8.25514648 3.34363281 -7.15014648 2.66894531 C-6.23620117 2.09789062 -5.32225586 1.52683594 -4.38061523 0.93847656 C-1.96264648 -0.14355469 -1.96264648 -0.14355469 0 0 Z " fill="#1C7BC0" transform="translate(231.962646484375,61.1435546875)"/>
<path d="M0 0 C0.98756287 -0.00700928 1.97512573 -0.01401855 2.99261475 -0.02124023 C6.25317602 -0.0388283 9.51286757 -0.02719414 12.7734375 -0.01367188 C15.04118008 -0.01636654 17.30892153 -0.02024875 19.57666016 -0.02526855 C24.32791145 -0.03116472 29.07886182 -0.0225965 33.83007812 -0.00390625 C39.92009433 0.01888299 46.00940542 0.00576059 52.09939575 -0.01819611 C56.78171094 -0.03265064 61.46385897 -0.02804959 66.1461792 -0.01768494 C68.39166345 -0.01501672 70.63716287 -0.01829073 72.88262939 -0.02760315 C76.02112016 -0.03776268 79.15846926 -0.02227499 82.296875 0 C83.22481873 -0.00809692 84.15276245 -0.01619385 85.10882568 -0.02453613 C89.29937461 0.03055995 91.56418976 0.15783083 95.20166016 2.39758301 C97.49672205 4.89685188 98.1484375 6.12412947 98.1484375 9.51757812 C96.52688121 13.00392414 95.38390458 14.36060007 92.1484375 16.51757812 C90.20028877 16.77484703 90.20028877 16.77484703 87.94900513 16.78500366 C87.09386322 16.79353363 86.23872131 16.8020636 85.35766602 16.81085205 C84.42253174 16.80994568 83.48739746 16.80903931 82.52392578 16.80810547 C81.53665497 16.81482269 80.54938416 16.82153992 79.53219604 16.82846069 C76.26099649 16.84749442 72.99000152 16.85136763 69.71875 16.85351562 C67.44814977 16.85993988 65.17755037 16.86666796 62.9069519 16.87368774 C58.14384034 16.88567402 53.38080137 16.88936718 48.61767578 16.88818359 C42.51195991 16.88798035 36.4067092 16.91528275 30.30110359 16.94972801 C25.61023823 16.97195741 20.9194855 16.97602234 16.22857285 16.97496414 C13.97749097 16.97732606 11.72640625 16.98618266 9.47537613 17.00162888 C6.32716487 17.02120795 3.17996558 17.0154821 0.03173828 17.00341797 C-1.36489044 17.02027649 -1.36489044 17.02027649 -2.78973389 17.03747559 C-7.01591683 16.99628819 -9.26269295 16.88231727 -12.92776489 14.61221313 C-14.99215094 12.36450513 -15.5352463 11.52218879 -15.4765625 8.51757812 C-15.48945313 7.85757813 -15.50234375 7.19757813 -15.515625 6.51757812 C-13.16450469 -0.56344306 -6.15033516 -0.05366575 0 0 Z " fill="#062C49" transform="translate(33.8515625,193.482421875)"/>
<path d="M0 0 C1.49816505 -0.00810448 1.49816505 -0.00810448 3.02659607 -0.01637268 C6.3298806 -0.02888554 9.63229793 -0.01235136 12.93554688 0.00561523 C15.22953334 0.00546031 17.52352008 0.00397236 19.81750488 0.00120544 C24.62601284 -0.0001797 29.43422294 0.0123992 34.24267578 0.03515625 C40.41007763 0.06354089 46.57698443 0.06080494 52.74442291 0.04806614 C57.48159014 0.04111522 62.2186427 0.04889159 66.95579529 0.06132317 C69.2300116 0.06584336 71.5042402 0.06616953 73.77845764 0.06225777 C76.95542689 0.05935137 80.13171101 0.0758258 83.30859375 0.09765625 C84.72228493 0.09090378 84.72228493 0.09090378 86.16453552 0.08401489 C92.51241952 0.15658554 92.51241952 0.15658554 95.71496582 1.87852478 C97.67688211 4.09104672 98.01405504 5.55663054 98.15429688 8.50170898 C97.09030614 12.31434245 96.52913178 13.25181905 93.15429688 15.50170898 C91.18773746 15.75897789 91.18773746 15.75897789 88.91017151 15.76913452 C87.61266968 15.78192947 87.61266968 15.78192947 86.28895569 15.79498291 C85.34289963 15.79407654 84.39684357 15.79317017 83.42211914 15.79223633 C81.92417313 15.80231216 81.92417313 15.80231216 80.39596558 15.81259155 C77.08749446 15.83162426 73.77922561 15.8354983 70.47070312 15.83764648 C68.17528702 15.84407029 65.87987175 15.85079833 63.5844574 15.8578186 C58.77007142 15.86980425 53.95575727 15.87349805 49.14135742 15.87231445 C42.9660432 15.87211109 36.79118829 15.89942583 30.61598301 15.93385887 C25.87454606 15.95607234 21.13322066 15.96015371 16.39173698 15.959095 C14.11470899 15.96145886 11.83767828 15.97032621 9.56070137 15.98575974 C6.37876118 16.00530884 3.19782475 15.99962511 0.01586914 15.98754883 C-1.4001786 16.00440735 -1.4001786 16.00440735 -2.84483337 16.02160645 C-9.19137551 15.96025624 -9.19137551 15.96025624 -12.43080139 13.69009399 C-14.51793126 10.4619944 -14.38229727 8.25786803 -13.84570312 4.50170898 C-10.41779118 -0.79402191 -5.70348745 -0.05850762 0 0 Z " fill="#072B48" transform="translate(33.845703125,325.498291015625)"/>
<path d="M0 0 C1.51188148 -0.0238678 1.51188148 -0.0238678 3.05430603 -0.04821777 C4.68560204 -0.0485199 4.68560204 -0.0485199 6.34985352 -0.04882812 C7.46812027 -0.05644165 8.58638702 -0.06405518 9.73854065 -0.07189941 C12.10480515 -0.08271073 14.47111741 -0.08554936 16.83740234 -0.08105469 C20.46150165 -0.08008275 24.08348215 -0.12168788 27.70727539 -0.16601562 C30.00479701 -0.17122268 32.302326 -0.17391082 34.59985352 -0.17382812 C35.68535995 -0.19022339 36.77086639 -0.20661865 37.88926697 -0.22351074 C45.36603252 -0.15469827 45.36603252 -0.15469827 48.75634766 2.73046875 C50.52188597 6.42592193 50.19341837 8.53138659 49.04125977 12.41992188 C46.14834723 15.1954788 44.11137349 15.79879693 40.15258789 15.82397461 C39.18478394 15.83665878 38.21697998 15.84934296 37.21984863 15.8624115 C36.18122681 15.85947586 35.14260498 15.85654022 34.07250977 15.85351562 C33.00005005 15.85875748 31.92759033 15.86399933 30.82263184 15.86940002 C28.55648667 15.8758199 26.29030818 15.8744837 24.02416992 15.8659668 C20.55400405 15.85745314 17.08548191 15.88622641 13.61547852 15.91796875 C11.41365609 15.91958073 9.21183075 15.9190033 7.01000977 15.91601562 C5.97138794 15.9272496 4.93276611 15.93848358 3.8626709 15.95005798 C-3.31658433 15.88046926 -3.31658433 15.88046926 -6.61328125 13.51611328 C-8.9153757 9.92950778 -8.42576596 7.62315345 -7.95874023 3.41992188 C-5.70194034 0.23174828 -3.78679505 0.03593188 0 0 Z " fill="#062B48" transform="translate(26.958740234375,413.580078125)"/>
<path d="M0 0 C0.97988892 -0.00478363 1.95977783 -0.00956726 2.96936035 -0.01449585 C5.03704436 -0.01789191 7.10478228 -0.00871013 9.17236328 0.01220703 C12.33357702 0.03897635 15.49124018 0.01244879 18.65234375 -0.01953125 C20.66407032 -0.0162271 22.67579469 -0.00982076 24.6875 0 C25.63032837 -0.01012115 26.57315674 -0.02024231 27.54455566 -0.03067017 C32.12104955 0.05088544 34.20066106 0.1764779 37.94335938 3.01416016 C39.84375 5.6640625 39.84375 5.6640625 40.40625 8.7265625 C39.72183796 12.30071427 38.69556131 13.46409378 35.84375 15.6640625 C33.16374731 16.55739673 31.58548639 16.79850085 28.8347168 16.82519531 C27.63282967 16.83960663 27.63282967 16.83960663 26.40666199 16.85430908 C25.54414322 16.85855896 24.68162445 16.86280884 23.79296875 16.8671875 C22.90140579 16.87288757 22.00984283 16.87858765 21.09126282 16.88446045 C19.20416448 16.89390599 17.31704968 16.90044266 15.42993164 16.90429688 C12.55260179 16.91399057 9.67598999 16.94501305 6.79882812 16.9765625 C4.9635459 16.98309407 3.12825857 16.98834394 1.29296875 16.9921875 C0.00829964 17.0107077 0.00829964 17.0107077 -1.30232239 17.02960205 C-6.32590689 17.01100577 -9.8139487 16.48259131 -14.15625 13.6640625 C-15.60055855 10.77544541 -15.53313506 8.86758549 -15.15625 5.6640625 C-10.94019731 -0.26871279 -6.71769696 -0.07211371 0 0 Z " fill="#062C49" transform="translate(55.15625,237.3359375)"/>
<path d="M0 0 C0.96147949 -0.0038269 1.92295898 -0.00765381 2.91357422 -0.01159668 C4.9443466 -0.01431602 6.97515399 -0.00695329 9.00585938 0.00976562 C12.1140757 0.03117475 15.21998056 0.00996454 18.328125 -0.015625 C20.30208843 -0.01298173 22.27605043 -0.00785676 24.25 0 C25.17925293 -0.00809692 26.10850586 -0.01619385 27.06591797 -0.02453613 C33.49768953 0.06892461 33.49768953 0.06892461 36.71118164 2.43725586 C39.11551253 5.99828954 38.59480005 8.30304955 38.125 12.53125 C36.55895217 14.69688688 35.68300123 15.42939095 33.03808594 15.91220093 C31.83587402 15.9157811 31.83587402 15.9157811 30.609375 15.91943359 C29.24280762 15.93361832 29.24280762 15.93361832 27.84863281 15.9480896 C26.86733398 15.94201691 25.88603516 15.93594421 24.875 15.9296875 C23.8653418 15.93255768 22.85568359 15.93542786 21.81542969 15.93838501 C19.68033284 15.94042688 17.54521734 15.93488846 15.41015625 15.92236328 C12.13759629 15.90631178 8.86627144 15.92220825 5.59375 15.94140625 C3.5208306 15.93942384 1.44791197 15.93558021 -0.625 15.9296875 C-1.60629883 15.93576019 -2.58759766 15.94183289 -3.59863281 15.9480896 C-4.50967773 15.93863312 -5.42072266 15.92917664 -6.359375 15.91943359 C-7.16084961 15.91704681 -7.96232422 15.91466003 -8.78808594 15.91220093 C-11.43300123 15.42939095 -12.30895217 14.69688688 -13.875 12.53125 C-14.63827929 5.66173636 -14.63827929 5.66173636 -12.46118164 2.43725586 C-8.51335663 -0.47227589 -4.78514797 -0.04169476 0 0 Z " fill="#062C49" transform="translate(13.875,281.46875)"/>
<path d="M0 0 C1.41249023 -0.01836914 1.41249023 -0.01836914 2.85351562 -0.03710938 C11.60356432 -0.05563453 11.60356432 -0.05563453 15.5625 2.1875 C18.10981042 4.73481042 17.91573144 6.63265279 18.12109375 10.1171875 C17.5625 12.1875 17.5625 12.1875 15.81640625 14.4140625 C10.72659345 17.18810213 5.76231529 16.7656689 0.0625 16.6875 C-1.06542969 16.70296875 -2.19335938 16.7184375 -3.35546875 16.734375 C-11.52625067 16.69569674 -11.52625067 16.69569674 -15.6875 14.375 C-17.4375 12.1875 -17.4375 12.1875 -17.9375 8.6875 C-17.42584453 5.10591174 -17.06051086 3.62315294 -14.4375 1.1875 C-9.75102483 -0.34387487 -4.87551045 0.00332346 0 0 Z " fill="#062C48" transform="translate(70.4375,149.8125)"/>
<path d="M0 0 C2.51836337 2.70583458 4.20449153 5.78500578 6 9 C6.57492187 9.92296875 7.14984375 10.8459375 7.7421875 11.796875 C12.51043285 19.75127508 12.51043285 19.75127508 12.125 24 C10.86437454 27.36166791 10.25177073 28.50594318 7 30 C4.0625 30.5 4.0625 30.5 1 30 C-3.08259724 26.47621237 -5.66881006 22.6461419 -8.25 18 C-8.600625 17.39671875 -8.95125 16.7934375 -9.3125 16.171875 C-11.78177831 11.80315183 -13.58608431 8.29105685 -12.3125 3.3125 C-11 1 -11 1 -9.3125 -0.375 C-5.64317486 -1.3667095 -3.64477862 -1.1939792 0 0 Z " fill="#062B48" transform="translate(389,386)"/>
<path d="M0 0 C2.24204794 1.54623996 2.86514524 2.61802559 3.76953125 5.1796875 C4.08291387 9.01464096 2.64541054 11.59379196 0.875 14.875 C0.55313721 15.49270264 0.23127441 16.11040527 -0.1003418 16.74682617 C-6.09401367 28.04700683 -6.09401367 28.04700683 -10 30 C-13.59870962 30.39116409 -15.34439619 30.47841359 -18.3125 28.3125 C-20.23979629 25.67139026 -20.71989081 24.24459815 -21 21 C-18.38775447 13.72230429 -14.02125342 5.9214221 -9 0 C-5.45026831 -1.1832439 -3.60040463 -0.90010116 0 0 Z " fill="#062B48" transform="translate(269,386)"/>
<path d="M0 0 C2.88652514 2.18676147 2.96596692 3.8329285 3.6875 7.375 C2.93586785 11.33815135 2.64477365 11.73818937 -0.375 14.0625 C-1.90039342 15.06682982 -3.4435506 16.04450602 -5 17 C-5.82886719 17.55171875 -6.65773437 18.1034375 -7.51171875 18.671875 C-12.34914825 21.78323854 -16.18184546 24 -22 24 C-24.684756 23.2018293 -25.6425575 22.47659001 -27.3125 20.25 C-28.32962316 16.9212333 -28.19034805 15.30652237 -27 12 C-24.59540082 9.58915511 -21.85759276 7.83299536 -19 6 C-17.7934375 5.15308594 -17.7934375 5.15308594 -16.5625 4.2890625 C-11.18677855 0.71084791 -6.52586326 -1.58327906 0 0 Z " fill="#062B48" transform="translate(226,342)"/>
<path d="M0 0 C2.5625 2.0625 2.5625 2.0625 4 5 C4.3125 8.4375 4.3125 8.4375 3 12 C0.2844672 14.50952687 -2.78353229 16.20366862 -6 18 C-6.92296875 18.57492188 -7.8459375 19.14984375 -8.796875 19.7421875 C-16.75127508 24.51043285 -16.75127508 24.51043285 -21 24.125 C-24.36166791 22.86437454 -25.50594318 22.25177073 -27 19 C-27.5 16.0625 -27.5 16.0625 -27 13 C-23.56297302 9.04646247 -19.69340191 6.28270252 -15.1875 3.6875 C-14.60935547 3.32849609 -14.03121094 2.96949219 -13.43554688 2.59960938 C-8.66557862 -0.16749928 -5.34972264 -0.5180784 0 0 Z " fill="#062B48" transform="translate(447,214)"/>
<path d="M0 0 C3.17160851 1.26094193 5.98524501 2.94517057 8.875 4.75 C9.63296875 5.1934375 10.3909375 5.636875 11.171875 6.09375 C17.47258954 9.90557018 17.47258954 9.90557018 19 14 C18.9375 17.5625 18.9375 17.5625 18 21 C15.875 23 15.875 23 13 24 C6.75058645 23.73735468 2.76809898 21.44928441 -2.3125 18.125 C-3.38467773 17.45404297 -3.38467773 17.45404297 -4.47851562 16.76953125 C-7.79027135 14.65325379 -9.77603158 13.33595263 -12 10 C-12.45185216 6.46049143 -12.42109443 4.66673285 -10.5 1.625 C-7.03657735 -0.62622472 -3.97141741 -0.62112624 0 0 Z " fill="#062B48" transform="translate(432,342)"/>
<path d="M0 0 C3.17243299 1.28030706 5.98648582 2.99070904 8.875 4.8125 C9.63296875 5.26431641 10.3909375 5.71613281 11.171875 6.18164062 C14.62686043 8.28721449 16.71339948 9.57009922 19 13 C19.61703539 17.05480401 19.32038101 18.54369977 16.9375 21.9375 C14 24 14 24 10.8671875 23.9296875 C6.0535528 22.77247027 2.39296679 20.73704145 -1.8125 18.1875 C-2.57498047 17.74857422 -3.33746094 17.30964844 -4.12304688 16.85742188 C-10.47778811 13.07604181 -10.47778811 13.07604181 -12 9 C-11.81416141 5.96463635 -11.44051393 3.77737753 -9.9375 1.125 C-6.76185913 -0.71892051 -3.52797327 -0.52648392 0 0 Z " fill="#062B48" transform="translate(210,214)"/>
<path d="M0 0 C3.10781751 1.55390875 4.42670707 2.28533303 5.875 5.4375 C5.61724117 11.68619897 3.32245306 15.67219993 0 20.75 C-0.44730469 21.46478516 -0.89460938 22.17957031 -1.35546875 22.91601562 C-3.47174621 26.22777135 -4.78904737 28.21353158 -8.125 30.4375 C-11.40293445 30.78621643 -13.45745569 30.76225128 -16.4375 29.3125 C-18.76156125 26.73020972 -18.87865663 24.87795654 -19.125 21.4375 C-18.0859375 18.7265625 -18.0859375 18.7265625 -16.5 16.0625 C-15.94183594 15.11632812 -15.38367188 14.17015625 -14.80859375 13.1953125 C-13.97521484 11.83019531 -13.97521484 11.83019531 -13.125 10.4375 C-12.68285156 9.65117187 -12.24070312 8.86484375 -11.78515625 8.0546875 C-8.89156508 3.04405997 -6.40009365 -1.15201686 0 0 Z " fill="#062C48" transform="translate(395.125,163.5625)"/>
<path d="M0 0 C2.32698391 2.04320539 3.4186973 3.42023124 5 6 C5.60199219 6.94359375 6.20398438 7.8871875 6.82421875 8.859375 C12.55556957 18.20624327 12.55556957 18.20624327 13 24 C10.86956522 28.56521739 10.86956522 28.56521739 8 30 C5.1875 30.375 5.1875 30.375 2 30 C-2.38309192 26.28902984 -5.09045427 21.99499302 -7.875 17.0625 C-8.29007813 16.37220703 -8.70515625 15.68191406 -9.1328125 14.97070312 C-11.09443744 11.52151261 -12.03427012 9.660271 -11.82421875 5.61328125 C-9.94442997 -0.34680735 -5.9901591 -1.38234441 0 0 Z " fill="#062B49" transform="translate(260,164)"/>
<path d="M0 0 C1.68383789 1.20727539 1.68383789 1.20727539 3 3 C3.64647643 7.11518379 3.46316586 11.27729766 3.4375 15.4375 C3.45748047 16.58283203 3.47746094 17.72816406 3.49804688 18.90820312 C3.49740234 20.00970703 3.49675781 21.11121094 3.49609375 22.24609375 C3.49794678 23.25341553 3.4997998 24.2607373 3.50170898 25.29858398 C2.86518012 28.72592796 1.74230751 29.90463346 -1 32 C-4.5 32.5 -4.5 32.5 -8 32 C-10.72388528 29.91177933 -11.85834902 28.71311707 -12.53344727 25.31445312 C-12.56901114 22.04152268 -12.5939365 18.77309419 -12.5625 15.5 C-12.58634766 14.35917969 -12.61019531 13.21835937 -12.63476562 12.04296875 C-12.62014493 3.74816131 -12.62014493 3.74816131 -9.69140625 0.21484375 C-6.02046554 -1.4421411 -3.84084883 -1.06690245 0 0 Z " fill="#062C48" transform="translate(329,402)"/>
<path d="M0 0 C1.68383789 1.20727539 1.68383789 1.20727539 3 3 C3.64647643 7.11518379 3.46316586 11.27729766 3.4375 15.4375 C3.45748047 16.58283203 3.47746094 17.72816406 3.49804688 18.90820312 C3.49740234 20.00970703 3.49675781 21.11121094 3.49609375 22.24609375 C3.49794678 23.25341553 3.4997998 24.2607373 3.50170898 25.29858398 C2.86518012 28.72592796 1.74230751 29.90463346 -1 32 C-4.5 32.5 -4.5 32.5 -8 32 C-10.72388528 29.91177933 -11.85834902 28.71311707 -12.53344727 25.31445312 C-12.56901114 22.04152268 -12.5939365 18.77309419 -12.5625 15.5 C-12.58634766 14.35917969 -12.61019531 13.21835938 -12.63476562 12.04296875 C-12.62014493 3.74816131 -12.62014493 3.74816131 -9.69140625 0.21484375 C-6.02046554 -1.4421411 -3.84084883 -1.06690245 0 0 Z " fill="#062B48" transform="translate(329,146)"/>
<path d="M0 0 C1.03253906 -0.01095703 2.06507813 -0.02191406 3.12890625 -0.03320312 C7.68280258 0.01086684 10.67896147 0.0940547 14.68359375 2.37890625 C16.5 4.5625 16.5 4.5625 17.0625 8.0625 C16.40773884 12.13656943 15.6940177 13.06692183 12.5 15.5625 C9.81445312 16.08007812 9.81445312 16.08007812 6.78125 16.09375 C5.68425781 16.09890625 4.58726562 16.1040625 3.45703125 16.109375 C2.31621094 16.09390625 1.17539062 16.0784375 0 16.0625 C-1.71123047 16.08570313 -1.71123047 16.08570313 -3.45703125 16.109375 C-4.55402344 16.10421875 -5.65101563 16.0990625 -6.78125 16.09375 C-8.28268555 16.08698242 -8.28268555 16.08698242 -9.81445312 16.08007812 C-13.20909648 15.42583777 -14.39681425 14.2582014 -16.5 11.5625 C-17.0625 8.625 -17.0625 8.625 -16.5 5.5625 C-12.16234438 -0.78073832 -7.01673192 -0.16205935 0 0 Z " fill="#072C48" transform="translate(452.5,281.4375)"/>
<path d="M0 0 C1.54880859 -0.03577148 1.54880859 -0.03577148 3.12890625 -0.07226562 C10.65756979 -0.05769402 10.65756979 -0.05769402 14.68359375 2.90625 C16.5 5.5625 16.5 5.5625 17.0625 8.625 C16.36528323 12.26602088 15.37419113 13.27329983 12.5 15.5625 C9.81445312 16.08007812 9.81445312 16.08007812 6.78125 16.09375 C5.68425781 16.09890625 4.58726562 16.1040625 3.45703125 16.109375 C2.31621094 16.09390625 1.17539063 16.0784375 0 16.0625 C-1.71123047 16.08570313 -1.71123047 16.08570313 -3.45703125 16.109375 C-4.55402344 16.10421875 -5.65101563 16.0990625 -6.78125 16.09375 C-8.28268555 16.08698242 -8.28268555 16.08698242 -9.81445312 16.08007812 C-13.22188427 15.42337321 -14.40772202 14.28806352 -16.5 11.5625 C-17.0625 8.0625 -17.0625 8.0625 -16.5 4.5625 C-12.06184453 -0.77283098 -6.39933757 -0.06790808 0 0 Z " fill="#062B49" transform="translate(196.5,281.4375)"/>
</svg>
