<?xml version="1.0" encoding="UTF-8"?>
<svg version="1.1" xmlns="http://www.w3.org/2000/svg" width="206" height="224">
<path d="M0 0 C67.98 0 135.96 0 206 0 C206 73.92 206 147.84 206 224 C138.02 224 70.04 224 0 224 C0 150.08 0 76.16 0 0 Z " fill="gray" transform="translate(0,0)"/>
<path d="M0 0 C67.98 0 135.96 0 206 0 C206 73.92 206 147.84 206 224 C138.02 224 70.04 224 0 224 C0 150.08 0 76.16 0 0 Z M67 14 C66.41863281 14.45375 65.83726563 14.9075 65.23828125 15.375 C56.21794063 23.15884449 51.32254745 36.6317414 49 48 C48.79761719 48.80824219 48.59523437 49.61648437 48.38671875 50.44921875 C45.89166723 61.53267891 46.15505881 73.65060583 48 84.8125 C49.07010302 91.90774828 49.28850693 98.95234186 49.35449219 106.12509155 C49.37441244 108.06770132 49.41347849 110.01008527 49.453125 111.95239258 C49.47298548 121.46742519 48.39260484 130.91109274 43 139 C41.1875 139.51953125 41.1875 139.51953125 39 139.8125 C30.25146276 141.52845104 22.4165314 146.98312978 17 154 C9.57637236 165.33530836 1.31437095 179.00336394 4 193 C7.35117957 201.47574599 14.1632959 205.36738172 22.13696289 208.96386719 C28.6083405 211.71654503 35.04477754 213.30465493 41.9375 214.625 C42.92556641 214.82867187 43.91363281 215.03234375 44.93164062 215.2421875 C62.71774434 218.74330066 80.37888593 219.34782911 98.46801758 219.31567383 C102.16452735 219.3125196 105.86022933 219.33604555 109.55664062 219.36132812 C124.92486673 219.40192822 139.81637755 218.3662338 155 216 C155.97036194 215.85026733 156.94072388 215.70053467 157.94049072 215.54626465 C180.77278871 212.06619009 180.77278871 212.06619009 199 199 C202.30183791 193.44471797 202.94653509 187.32214005 202 181 C197.72243296 166.30271837 189.79916878 150.89387732 176.17578125 142.921875 C173.59042388 141.82646326 171.06432519 141.35770767 168.3125 140.8125 C164.9862609 140.00054704 163.43724461 139.52277157 161.22265625 136.875 C156.3430664 127.59670741 156.80704657 117.67017159 156.8125 107.4375 C156.81185547 106.18622314 156.81121094 104.93494629 156.81054688 103.64575195 C156.85418833 96.01792031 157.34544126 88.80321464 158.54296875 81.2734375 C161.53187398 59.86572312 156.99287103 36.39631268 144 19 C136.99345078 10.26456202 127.74131134 5.72041181 117 3 C112.10964034 2.55380579 107.22138674 2.5841039 102.3125 2.5625 C100.3644043 2.51319336 100.3644043 2.51319336 98.37695312 2.46289062 C85.99419392 2.39447759 76.33205828 5.86748734 67 14 Z " fill="#FDFDFD" transform="translate(0,0)"/>
<path d="M0 0 C3.65946027 1.27167594 6.99606637 3.02818284 10.40625 4.85546875 C11.37099243 5.35411942 12.33573486 5.85277008 13.32971191 6.36653137 C16.39567522 7.95654332 19.44762669 9.57158023 22.5 11.1875 C24.54992304 12.254905 26.60069752 13.32067651 28.65234375 14.38476562 C32.43686039 16.35373453 36.21790866 18.32880884 39.99023438 20.32104492 C40.82707764 20.76040375 41.6639209 21.19976257 42.52612305 21.6524353 C44.20933283 22.56930955 45.86966553 23.52918627 47.50708008 24.52554321 C48.6917688 25.24053482 48.6917688 25.24053482 49.90039062 25.9699707 C50.59539673 26.40743118 51.29040283 26.84489166 52.00646973 27.29560852 C54.02071967 28.26210996 54.02071967 28.26210996 56.00622559 27.12687683 C56.66417114 26.75500748 57.3221167 26.38313812 58 26 C59.32 26 60.64 26 62 26 C62.68844526 38.88922518 62.68844526 38.88922518 60.1875 42.75 C58 45 58 45 55 46 C53.61585448 48.50562804 52.38264592 50.96940602 51.1875 53.5625 C45.55166971 65.24287074 38.09759295 76.45566075 25.4453125 81.37109375 C17.5141819 83.41088932 10.45531262 82.67740472 3.3671875 78.58984375 C-7.7578223 71.11809624 -15.23573864 60.47996765 -20 48 C-20 47.01 -20 46.02 -20 45 C-20.763125 45 -21.52625 45 -22.3125 45 C-25 44 -25 44 -26.8125 40.5625 C-28.31880255 35.82962892 -28.70446211 30.92208594 -28 26 C-27.34 25.34 -26.68 24.68 -26 24 C-25.01 24 -24.02 24 -23 24 C-22.9175 23.05125 -22.835 22.1025 -22.75 21.125 C-21.56643138 13.2398739 -18.97377116 6.98196773 -12.5859375 2.05859375 C-8.589026 -0.60929545 -4.65822987 -0.60158323 0 0 Z " fill="#f5e7ce" transform="translate(86,47)"/>
<path d="M0 0 C0.68964844 0.45890625 1.37929687 0.9178125 2.08984375 1.390625 C12.5792241 8.23965799 20.13575977 12.48905883 33 11 C41.01417096 9.21319935 46.88989529 5.37085747 53 0 C55 2 55 2 56.3125 4.4375 C58.21185415 7.32170446 59.96087321 8.43936732 63 10 C62.57870447 14.91511449 60.69468278 16.84412512 57 20 C44.4699342 29.26849437 32.33367362 31.2510153 17 30 C7.32746746 28.06082077 -3.46349551 22.3111796 -9 14 C-9 12.68 -9 11.36 -9 10 C-7 8.66666667 -5 7.33333333 -3 6 C-1.11431306 2.89985071 -1.11431306 2.89985071 0 0 Z " fill="#f5e7ce" transform="translate(76,126)"/>
<path d="M0 0 C4.62 0 9.24 0 14 0 C14 3.96 14 7.92 14 12 C17.96 12 21.92 12 26 12 C26 16.62 26 21.24 26 26 C22.04 26 18.08 26 14 26 C14 29.96 14 33.92 14 38 C11.85423363 38.02685938 9.70837355 38.04633088 7.5625 38.0625 C6.36753906 38.07410156 5.17257813 38.08570313 3.94140625 38.09765625 C1 38 1 38 0 37 C-0.07226502 35.14712498 -0.0838122 33.29166122 -0.0625 31.4375 C-0.05347656 30.42558594 -0.04445312 29.41367188 -0.03515625 28.37109375 C-0.02355469 27.58863281 -0.01195312 26.80617187 0 26 C-0.78246094 26.01160156 -1.56492188 26.02320313 -2.37109375 26.03515625 C-3.38300781 26.04417969 -4.39492187 26.05320313 -5.4375 26.0625 C-6.44683594 26.07410156 -7.45617187 26.08570313 -8.49609375 26.09765625 C-11 26 -11 26 -12 25 C-12.07258946 22.81360547 -12.08373783 20.62499611 -12.0625 18.4375 C-12.05347656 17.23996094 -12.04445312 16.04242188 -12.03515625 14.80859375 C-12.02355469 13.88175781 -12.01195312 12.95492187 -12 12 C-8.04 12 -4.08 12 0 12 C0 8.04 0 4.08 0 0 Z " fill="#F9F9F9" transform="translate(144,162)"/>
</svg>
