<?xml version="1.0" encoding="UTF-8"?>
<svg version="1.1" xmlns="http://www.w3.org/2000/svg" width="68" height="61">
<path d="M0 0 C1.23137695 -0.00945648 2.46275391 -0.01891296 3.73144531 -0.02865601 C5.07617514 -0.0232863 6.42090204 -0.01713334 7.765625 -0.01025391 C9.1442073 -0.01227487 10.52278855 -0.0151865 11.90136719 -0.01895142 C14.78981714 -0.02337375 17.67798867 -0.01694699 20.56640625 -0.00292969 C24.26892254 0.01416261 27.97078646 0.00432088 31.67327881 -0.01364708 C34.51974402 -0.02448762 37.36605455 -0.02103744 40.21252441 -0.0132637 C41.57767819 -0.01126242 42.94284602 -0.01371849 44.3079834 -0.02070236 C46.2157362 -0.02832031 48.12353824 -0.01465046 50.03125 0 C51.65981934 0.00358017 51.65981934 0.00358017 53.32128906 0.00723267 C56.015625 0.38818359 56.015625 0.38818359 57.86538696 1.59104919 C59.41293005 4.00893386 59.39639965 5.66596034 59.40380859 8.53051758 C59.41326508 9.57848007 59.42272156 10.62644257 59.4324646 11.7061615 C59.42639191 12.83743973 59.42031921 13.96871796 59.4140625 15.13427734 C59.41693268 16.29693619 59.41980286 17.45959503 59.42276001 18.65748596 C59.42480283 21.11793504 59.41925786 23.57840028 59.40673828 26.03881836 C59.39070307 29.8073357 59.40657314 33.57477808 59.42578125 37.34326172 C59.42379857 39.73193596 59.4199544 42.12060954 59.4140625 44.50927734 C59.42013519 45.63853134 59.42620789 46.76778534 59.4324646 47.93125916 C59.41827988 49.50793114 59.41827988 49.50793114 59.40380859 51.11645508 C59.40142181 52.04006332 59.39903503 52.96367157 59.39657593 53.91526794 C58.9265071 56.96668604 58.29242817 58.29341049 56.015625 60.38818359 C53.32128906 60.88938904 53.32128906 60.88938904 50.03125 60.88989258 C48.18418457 60.903964 48.18418457 60.903964 46.29980469 60.9183197 C44.95507107 60.90784166 43.61034414 60.89647268 42.265625 60.88427734 C40.8870435 60.88443231 39.50846155 60.8859209 38.12988281 60.88868713 C35.24134042 60.8900716 32.35329429 60.87750629 29.46484375 60.85473633 C25.76229838 60.82635069 22.06057759 60.82908795 18.35797119 60.84182644 C15.51148435 60.84878157 12.6651881 60.84099641 9.81872559 60.82856941 C8.45358003 60.82405324 7.08841402 60.82371958 5.7232666 60.82763481 C3.8154768 60.83054503 1.90769082 60.81188708 0 60.79223633 C-1.08571289 60.78683334 -2.17142578 60.78143036 -3.29003906 60.77586365 C-5.984375 60.38818359 -5.984375 60.38818359 -7.83413696 59.1910553 C-9.39613586 56.7427937 -9.36522923 55.03578804 -9.37255859 52.13818359 C-9.38201508 51.06697266 -9.39147156 49.99576172 -9.4012146 48.89208984 C-9.39514191 47.73580078 -9.38906921 46.57951172 -9.3828125 45.38818359 C-9.38568268 44.20095703 -9.38855286 43.01373047 -9.39151001 41.79052734 C-9.39355277 39.27880375 -9.38800822 36.76706432 -9.37548828 34.25537109 C-9.3594386 30.40344788 -9.37533088 26.55257405 -9.39453125 22.70068359 C-9.39254886 20.26318127 -9.38870527 17.8256796 -9.3828125 15.38818359 C-9.38888519 14.23189453 -9.39495789 13.07560547 -9.4012146 11.88427734 C-9.39175812 10.81306641 -9.38230164 9.74185547 -9.37255859 8.63818359 C-9.37017181 7.69458984 -9.36778503 6.75099609 -9.36532593 5.77880859 C-8.984375 3.38818359 -8.984375 3.38818359 -7.83413696 1.58432007 C-5.1790497 -0.13257474 -3.14904687 0.00692272 0 0 Z M-3.984375 5.38818359 C-5.15977905 7.73899169 -5.12324089 9.16933785 -5.14550781 11.7902832 C-5.15511536 12.70140366 -5.1647229 13.61252411 -5.17462158 14.55125427 C-5.17887146 15.53771439 -5.18312134 16.5241745 -5.1875 17.54052734 C-5.19320007 18.55160049 -5.19890015 19.56267365 -5.20477295 20.60438538 C-5.21422916 22.74544221 -5.22075939 24.88651364 -5.22460938 27.02758789 C-5.23432516 30.30885054 -5.26534712 33.58948966 -5.296875 36.87060547 C-5.30340386 38.9480757 -5.30865479 41.02555042 -5.3125 43.10302734 C-5.3248468 44.08746323 -5.3371936 45.07189911 -5.34991455 46.08616638 C-5.34691345 47.000439 -5.34391235 47.91471161 -5.34082031 48.85668945 C-5.34446594 49.66118027 -5.34811157 50.46567108 -5.35186768 51.29454041 C-5.12180946 53.44407111 -5.12180946 53.44407111 -3.79121399 55.14912415 C-1.3355218 56.83314172 0.31459944 56.75605515 3.28149414 56.74462891 C4.89315208 56.74913055 4.89315208 56.74913055 6.53736877 56.75372314 C7.69679489 56.74137634 8.85622101 56.72902954 10.05078125 56.71630859 C11.24037949 56.71443542 12.42997772 56.71256226 13.65562439 56.71063232 C16.1715678 56.70390611 18.68750064 56.68998047 21.20336914 56.66943359 C25.06601619 56.63828125 28.92825542 56.62846383 32.79101562 56.62255859 C35.23177584 56.61338879 37.67253188 56.60301309 40.11328125 56.59130859 C41.2747316 56.58705872 42.43618195 56.58280884 43.63282776 56.57843018 C44.70411423 56.56882263 45.7754007 56.55921509 46.87915039 56.54931641 C48.29787193 56.5390744 48.29787193 56.5390744 49.74525452 56.52862549 C52.04849825 56.53472112 52.04849825 56.53472112 54.015625 55.38818359 C54.015625 38.88818359 54.015625 22.38818359 54.015625 5.38818359 C34.875625 5.38818359 15.735625 5.38818359 -3.984375 5.38818359 Z " fill="#E2A244" transform="translate(8.984375,-0.38818359375)"/>
<path d="M0 0 C3.47799969 2.57069543 4.76921191 4.2210902 6 8.375 C6 12.79144312 4.98881988 15.10191304 3 19 C3.804375 19.61875 4.60875 20.2375 5.4375 20.875 C8 23 8 23 9 25 C9.15043306 27.84665632 9.23129735 30.65252118 9.25 33.5 C9.270625 34.28503906 9.29125 35.07007813 9.3125 35.87890625 C9.328125 38.15625 9.328125 38.15625 9 42 C4.52737273 44.98175151 0.260522 44.32927462 -5 44.3125 C-6.010625 44.32861328 -7.02125 44.34472656 -8.0625 44.36132812 C-9.5165625 44.36229492 -9.5165625 44.36229492 -11 44.36328125 C-11.886875 44.36626221 -12.77375 44.36924316 -13.6875 44.37231445 C-16 44 -16 44 -17.78540039 42.70336914 C-19.84171838 39.819564 -19.47127245 36.5329475 -19.4375 33.125 C-19.4674707 32.06345703 -19.4674707 32.06345703 -19.49804688 30.98046875 C-19.49222439 24.72711484 -17.21618441 22.21618441 -13 18 C-13.804375 16.4840625 -13.804375 16.4840625 -14.625 14.9375 C-15.96628765 11.79723413 -15.98548915 10.90487334 -15.4375 7.3125 C-13.99228417 3.98222005 -12.83019865 2.22985348 -10 0 C-6.1544104 -1.2818632 -3.93271581 -0.94927623 0 0 Z M-8.625 6.5 C-9.40875 7.325 -10.1925 8.15 -11 9 C-9.75023244 12.65316671 -9.32901247 13.78065836 -6 16 C-3.5521075 15.77051008 -2.20904682 15.14417022 -0.1875 13.75 C1.24284121 12.00747819 1.24284121 12.00747819 0.9375 9.5 C-0.17942216 6.52154089 -1.271748 5.57081176 -4 4 C-6.36278736 3.77011494 -6.36278736 3.77011494 -8.625 6.5 Z M-14 26 C-14.24360073 29.12814514 -14.24360073 29.12814514 -14.125 32.625 C-14.10695313 33.81351563 -14.08890625 35.00203125 -14.0703125 36.2265625 C-14.04710937 37.14179687 -14.02390625 38.05703125 -14 39 C-11.02077407 39.02683987 -8.04178705 39.04676037 -5.0625 39.0625 C-4.21236328 39.07087891 -3.36222656 39.07925781 -2.48632812 39.08789062 C-1.67744141 39.09111328 -0.86855469 39.09433594 -0.03515625 39.09765625 C0.7137085 39.10289307 1.46257324 39.10812988 2.23413086 39.11352539 C4.02667739 39.19341752 4.02667739 39.19341752 5 38 C5.23884418 36.03517376 5.23884418 36.03517376 5.25 33.75 C5.27578125 32.98171875 5.3015625 32.2134375 5.328125 31.421875 C4.88969917 28.18587485 4.14304129 26.48210259 2 24 C-1.35102462 23.31802422 -1.35102462 23.31802422 -5.0625 23.5625 C-6.93615234 23.59537109 -6.93615234 23.59537109 -8.84765625 23.62890625 C-12.09409914 23.68104056 -12.09409914 23.68104056 -14 26 Z " fill="#E1A144" transform="translate(26,8)"/>
<path d="M0 0 C2.64 0 5.28 0 8 0 C8 0.99 8 1.98 8 3 C9.175625 2.9071875 9.175625 2.9071875 10.375 2.8125 C11.674375 2.9053125 11.674375 2.9053125 13 3 C15 6 15 6 14.5625 8.4375 C14.376875 9.283125 14.19125 10.12875 14 11 C14.185625 11.680625 14.37125 12.36125 14.5625 13.0625 C15.14582607 15.64580117 14.34051555 16.79209204 13 19 C11.35 19 9.7 19 8 19 C7.67 19.99 7.34 20.98 7 22 C4.69 22 2.38 22 0 22 C0 21.01 0 20.02 0 19 C-1.175625 19.0928125 -1.175625 19.0928125 -2.375 19.1875 C-3.24125 19.125625 -4.1075 19.06375 -5 19 C-7.80908387 14.7863742 -7.69707949 10.95250658 -7 6 C-5 3.375 -5 3.375 -3 2 C-2.01 2.33 -1.02 2.66 0 3 C0 2.01 0 1.02 0 0 Z M3 3 C2.67 3.99 2.34 4.98 2 6 C3.32 5.67 4.64 5.34 6 5 C5.67 4.34 5.34 3.68 5 3 C4.34 3 3.68 3 3 3 Z M-3 6 C-3 8.97 -3 11.94 -3 15 C-2.01 15 -1.02 15 0 15 C-0.020625 14.071875 -0.04125 13.14375 -0.0625 12.1875 C0 9 0 9 1 6 C-0.32 6 -1.64 6 -3 6 Z M9 6 C9 7.32 9 8.64 9 10 C9.66 9.01 10.32 8.02 11 7 C10.34 6.67 9.68 6.34 9 6 Z M3 10 C3 10.66 3 11.32 3 12 C3.66 12 4.32 12 5 12 C5 11.34 5 10.68 5 10 C4.34 10 3.68 10 3 10 Z M9 12 C8.01 13.485 8.01 13.485 7 15 C8.32 15 9.64 15 11 15 C10.67 14.01 10.34 13.02 10 12 C9.67 12 9.34 12 9 12 Z M2 16 C2.33 16.66 2.66 17.32 3 18 C3.99 17.67 4.98 17.34 6 17 C4.68 16.67 3.36 16.34 2 16 Z " fill="#E1A144" transform="translate(46,30)"/>
<path d="M0 0 C5.61 0 11.22 0 17 0 C17.33 1.32 17.66 2.64 18 4 C17 5 17 5 13.18359375 5.09765625 C11.60153318 5.09098089 10.01948841 5.07901875 8.4375 5.0625 C7.63119141 5.05798828 6.82488281 5.05347656 5.99414062 5.04882812 C3.99606244 5.03700518 1.99802217 5.01906914 0 5 C-0.33 4.01 -0.66 3.02 -1 2 C-0.67 1.34 -0.34 0.68 0 0 Z " fill="#E2A244" transform="translate(38,18)"/>
<path d="M0 0 C4.29 0 8.58 0 13 0 C13 1.32 13 2.64 13 4 C11.25895647 5.74104353 8.92635979 5.21311272 6.5625 5.25 C5.07943359 5.28867188 5.07943359 5.28867188 3.56640625 5.328125 C2.71949219 5.21984375 1.87257812 5.1115625 1 5 C0.34 4.01 -0.32 3.02 -1 2 C-0.67 1.34 -0.34 0.68 0 0 Z " fill="#E1A244" transform="translate(38,10)"/>
</svg>
