<?xml version="1.0" encoding="UTF-8"?>
<svg version="1.1" xmlns="http://www.w3.org/2000/svg" width="61" height="60">
<path d="M0 0 C7.7986394 -0.02094532 15.59717749 -0.04098343 23.39582062 -0.05175018 C27.02715757 -0.05703996 30.65847135 -0.06411357 34.28979492 -0.07543945 C37.78459975 -0.08627184 41.27938204 -0.09227758 44.77420235 -0.09487724 C46.76239389 -0.09763551 48.75057631 -0.10544688 50.73875427 -0.11329651 C51.93992386 -0.11337204 53.14109344 -0.11344757 54.37866211 -0.11352539 C55.97417152 -0.11685631 55.97417152 -0.11685631 57.60191345 -0.12025452 C60 -0 60 -0 61 1 C61.12604257 4.06741782 61.18870085 7.11106825 61.203125 10.1796875 C61.20882507 11.10339142 61.21452515 12.02709534 61.22039795 12.97879028 C61.22986345 14.93750863 61.23638806 16.89624302 61.24023438 18.85498047 C61.2499367 21.85542548 61.28094401 24.8551848 61.3125 27.85546875 C61.31903002 29.75520425 61.3242805 31.65494467 61.328125 33.5546875 C61.3404718 34.45476532 61.3528186 35.35484314 61.36553955 36.28219604 C61.36253845 37.11961334 61.35953735 37.95703064 61.35644531 38.81982422 C61.36191376 39.92449539 61.36191376 39.92449539 61.36749268 41.05148315 C60.89526575 43.55532114 59.97855514 44.44407375 58 46 C56.00708008 46.34057617 56.00708008 46.34057617 53.76953125 46.29296875 C52.96708984 46.28330078 52.16464844 46.27363281 51.33789062 46.26367188 C50.50451172 46.23853516 49.67113281 46.21339844 48.8125 46.1875 C47.5450293 46.16719727 47.5450293 46.16719727 46.25195312 46.14648438 C44.16769616 46.11115799 42.08376723 46.05735139 40 46 C40 49.3 40 52.6 40 56 C43.96 56 47.92 56 52 56 C52 57.32 52 58.64 52 60 C37.48 60 22.96 60 8 60 C8 58.68 8 57.36 8 56 C11.96 56 15.92 56 20 56 C20 52.37 20 48.74 20 45 C18.72382813 45.08378906 17.44765625 45.16757812 16.1328125 45.25390625 C14.46355965 45.35706232 12.79428779 45.45991099 11.125 45.5625 C9.86236328 45.64661133 9.86236328 45.64661133 8.57421875 45.73242188 C7.76855469 45.78076172 6.96289062 45.82910156 6.1328125 45.87890625 C5.38918457 45.9260376 4.64555664 45.97316895 3.87939453 46.02172852 C2 46 2 46 0 45 C0 30.15 0 15.3 0 0 Z M4 4 C4 16.21 4 28.42 4 41 C21.16 41 38.32 41 56 41 C56 28.79 56 16.58 56 4 C38.84 4 21.68 4 4 4 Z M25 45 C25 48.63 25 52.26 25 56 C28.3 56 31.6 56 35 56 C35 52.37 35 48.74 35 45 C31.7 45 28.4 45 25 45 Z " fill="#40C198" transform="translate(0,0)"/>
<path d="M0 0 C1.17691406 0.00257813 2.35382812 0.00515625 3.56640625 0.0078125 C5.32791016 0.00394531 5.32791016 0.00394531 7.125 0 C10.12890625 0.1328125 10.12890625 0.1328125 12.12890625 1.1328125 C12.18277254 3.25753826 12.22163696 5.38264902 12.25390625 7.5078125 C12.27710937 8.69117188 12.3003125 9.87453125 12.32421875 11.09375 C12.12890625 14.1328125 12.12890625 14.1328125 10.12890625 16.1328125 C7.125 16.36328125 7.125 16.36328125 3.56640625 16.3203125 C1.80103516 16.31064453 1.80103516 16.31064453 0 16.30078125 C-2.87109375 16.1328125 -2.87109375 16.1328125 -3.87109375 15.1328125 C-3.97018677 12.80121195 -4.00079879 10.46651308 -3.99609375 8.1328125 C-3.99867187 6.8540625 -4.00125 5.5753125 -4.00390625 4.2578125 C-3.83047989 0.17719227 -3.83047989 0.17719227 0 0 Z M-0.87109375 4.1328125 C-0.87109375 6.7728125 -0.87109375 9.4128125 -0.87109375 12.1328125 C2.09890625 12.1328125 5.06890625 12.1328125 8.12890625 12.1328125 C8.12890625 9.4928125 8.12890625 6.8528125 8.12890625 4.1328125 C5.15890625 4.1328125 2.18890625 4.1328125 -0.87109375 4.1328125 Z " fill="#40C099" transform="translate(14.87109375,5.8671875)"/>
<path d="M0 0 C1.17691406 0.00257812 2.35382812 0.00515625 3.56640625 0.0078125 C5.32791016 0.00394531 5.32791016 0.00394531 7.125 0 C10.12890625 0.1328125 10.12890625 0.1328125 12.12890625 1.1328125 C12.15576563 3.27857887 12.17523713 5.42443895 12.19140625 7.5703125 C12.20300781 8.76527344 12.21460937 9.96023437 12.2265625 11.19140625 C12.12890625 14.1328125 12.12890625 14.1328125 11.12890625 15.1328125 C8.59841223 15.20594817 6.09585788 15.22528777 3.56640625 15.1953125 C2.5000293 15.18854492 2.5000293 15.18854492 1.41210938 15.18164062 C-0.34899388 15.16982114 -2.11005411 15.15188513 -3.87109375 15.1328125 C-3.89794787 12.82037458 -3.91742216 10.5078498 -3.93359375 8.1953125 C-3.94519531 6.90753906 -3.95679688 5.61976562 -3.96875 4.29296875 C-3.84157871 0.17770568 -3.84157871 0.17770568 0 0 Z M-0.87109375 4.1328125 C-0.87109375 6.7728125 -0.87109375 9.4128125 -0.87109375 12.1328125 C2.09890625 12.1328125 5.06890625 12.1328125 8.12890625 12.1328125 C8.12890625 9.4928125 8.12890625 6.8528125 8.12890625 4.1328125 C5.15890625 4.1328125 2.18890625 4.1328125 -0.87109375 4.1328125 Z " fill="#40C098" transform="translate(14.87109375,22.8671875)"/>
<path d="M0 0 C1.39456867 0.00574201 2.78910972 0.01875397 4.18359375 0.03515625 C6.63796875 0.05578125 9.09234375 0.07640625 11.62109375 0.09765625 C11.62109375 5.04765625 11.62109375 9.99765625 11.62109375 15.09765625 C9.16671875 15.11828125 6.71234375 15.13890625 4.18359375 15.16015625 C3.40959229 15.16926025 2.63559082 15.17836426 1.83813477 15.18774414 C0.09887658 15.19490538 -1.64035929 15.14790327 -3.37890625 15.09765625 C-4.37890625 14.09765625 -4.37890625 14.09765625 -4.51171875 11.19140625 C-4.50914063 10.00546875 -4.5065625 8.81953125 -4.50390625 7.59765625 C-4.50648437 6.41171875 -4.5090625 5.22578125 -4.51171875 4.00390625 C-4.32139187 -0.16089371 -4.25048847 0.12284649 0 0 Z M-0.37890625 3.09765625 C-0.37890625 6.06765625 -0.37890625 9.03765625 -0.37890625 12.09765625 C2.59109375 12.09765625 5.56109375 12.09765625 8.62109375 12.09765625 C8.62109375 9.12765625 8.62109375 6.15765625 8.62109375 3.09765625 C5.65109375 3.09765625 2.68109375 3.09765625 -0.37890625 3.09765625 Z " fill="#40C098" transform="translate(37.37890625,6.90234375)"/>
<path d="M0 0 C1.1859375 0.00257812 2.371875 0.00515625 3.59375 0.0078125 C4.7796875 0.00523438 5.965625 0.00265625 7.1875 0 C10.09375 0.1328125 10.09375 0.1328125 11.09375 1.1328125 C11.23801614 5.80126478 11.13583415 10.46147203 11.09375 15.1328125 C6.14375 15.1328125 1.19375 15.1328125 -3.90625 15.1328125 C-4.00390625 4.29296875 -4.00390625 4.29296875 -3.90625 1.1328125 C-2.90625 0.1328125 -2.90625 0.1328125 0 0 Z M-0.90625 4.1328125 C-0.90625 6.7728125 -0.90625 9.4128125 -0.90625 12.1328125 C2.06375 12.1328125 5.03375 12.1328125 8.09375 12.1328125 C8.09375 9.4928125 8.09375 6.8528125 8.09375 4.1328125 C5.12375 4.1328125 2.15375 4.1328125 -0.90625 4.1328125 Z " fill="#40C098" transform="translate(37.90625,22.8671875)"/>
</svg>
