<svg xmlns="http://www.w3.org/2000/svg" viewBox="0 0 29.89 27.33"><defs><style>.cls-1,.cls-2{fill:none;stroke:#009245;stroke-miterlimit:10;}.cls-2{stroke-linecap:round;}</style></defs><g id="Layer_2" data-name="Layer 2"><g id="Layer_1-2" data-name="Layer 1"><path class="cls-1" d="M16.27,20.21H2.58A2.08,2.08,0,0,1,.5,18.13V6.37A2.08,2.08,0,0,1,2.58,4.29H20.93A2.09,2.09,0,0,1,23,6.37V13.6"/><path class="cls-1" d="M6.4,4.4V2.58A2.09,2.09,0,0,1,8.49.5H15a2.08,2.08,0,0,1,2.08,2.08V4.4"/><line class="cls-1" x1="0.5" y1="8.45" x2="23.02" y2="8.45"/><line class="cls-2" x1="4.02" y1="8.54" x2="4.02" y2="10.11"/><line class="cls-2" x1="19.26" y1="8.54" x2="19.26" y2="10.11"/><circle class="cls-1" cx="22.8" cy="20.24" r="3.16"/><path class="cls-1" d="M29.39,19.19V21.3a.11.11,0,0,1-.11.11H27.55a.11.11,0,0,0-.11.08A5.05,5.05,0,0,1,27,22.64a.1.1,0,0,0,0,.13L28.21,24a.12.12,0,0,1,0,.16l-1.49,1.49a.12.12,0,0,1-.16,0l-1.29-1.29-.07-.06a2.71,2.71,0,0,1-1.15.58A.11.11,0,0,0,24,25v1.73a.11.11,0,0,1-.11.11H21.75a.12.12,0,0,1-.12-.11V25a.11.11,0,0,0-.08-.11,4.67,4.67,0,0,1-1.16-.58l-.06.06-1.28,1.29a.12.12,0,0,1-.16,0L17.4,24.16a.1.1,0,0,1,0-.16l1.22-1.23a.11.11,0,0,0,0-.13,4.66,4.66,0,0,1-.48-1.15.1.1,0,0,0-.11-.08H16.32a.11.11,0,0,1-.11-.11V19.19a.11.11,0,0,1,.11-.12h1.73a.1.1,0,0,0,.11-.08,4.66,4.66,0,0,1,.48-1.15.11.11,0,0,0,0-.13L17.4,16.49a.1.1,0,0,1,0-.16l1.49-1.49a.1.1,0,0,1,.16,0l1.34,1.36h0a6.58,6.58,0,0,1,1.17-.6.1.1,0,0,0,.07-.1V13.76a.12.12,0,0,1,.12-.11h2.11a.11.11,0,0,1,.11.11v1.73a.11.11,0,0,0,.08.11,4.58,4.58,0,0,1,1.22.52l.06-.05,1.23-1.23a.1.1,0,0,1,.16,0l1.49,1.49a.12.12,0,0,1,0,.16L27,17.71a.11.11,0,0,0,0,.13A5.05,5.05,0,0,1,27.44,19a.11.11,0,0,0,.11.08h1.73A.11.11,0,0,1,29.39,19.19Z"/></g></g></svg>