<?xml version="1.0" encoding="UTF-8"?>
<svg version="1.1" xmlns="http://www.w3.org/2000/svg" width="61" height="60">
<path d="M0 0 C1.48310457 0.89779909 2.94525803 1.831949 4.375 2.8125 C5.4475 3.493125 6.52 4.17375 7.625 4.875 C13.48759962 10.30209222 16.58903211 17.88332855 17.09008789 25.76098633 C17.2474558 35.00827659 14.77606813 42.63600558 8.734375 49.7421875 C7.03486988 51.33845166 5.34919676 52.57555514 3.375 53.8125 C2.75367188 54.22242188 2.13234375 54.63234375 1.4921875 55.0546875 C-5.48742238 58.90276139 -13.88545045 59.06304524 -21.625 57.8125 C-29.20124263 55.41151829 -35.37260292 51.59943839 -39.625 44.8125 C-40.03492188 44.19117188 -40.44484375 43.56984375 -40.8671875 42.9296875 C-44.80058982 35.7953095 -44.55006499 27.68741225 -43.625 19.8125 C-42.42830135 16.08523307 -40.81799918 13.04125972 -38.625 9.8125 C-38.068125 8.905 -37.51125 7.9975 -36.9375 7.0625 C-27.38100844 -2.23570801 -12.3372815 -6.00853862 0 0 Z M-25.8125 4.8125 C-26.52792969 5.18375 -27.24335938 5.555 -27.98046875 5.9375 C-28.79451172 6.370625 -28.79451172 6.370625 -29.625 6.8125 C-29.625 7.8025 -29.625 8.7925 -29.625 9.8125 C-28.305 10.4725 -26.985 11.1325 -25.625 11.8125 C-24.24937146 10.52284824 -22.91733607 9.18560707 -21.625 7.8125 C-21.625 7.1525 -21.625 6.4925 -21.625 5.8125 C-20.635 5.4825 -19.645 5.1525 -18.625 4.8125 C-18.625 4.1525 -18.625 3.4925 -18.625 2.8125 C-21.82110552 2.8125 -23.04217626 3.35921542 -25.8125 4.8125 Z M-7.625 2.8125 C-6.06999019 6.62934226 -3.58904505 9.00445732 -0.625 11.8125 C0.695 10.4925 2.015 9.1725 3.375 7.8125 C-0.27833143 5.17870292 -3.11021602 3.34365106 -7.625 2.8125 Z M-18.6875 9.6875 C-20.84958462 11.57953874 -20.84958462 11.57953874 -20.625 13.8125 C-18.15 14.3075 -18.15 14.3075 -15.625 14.8125 C-15.625 12.5025 -15.625 10.1925 -15.625 7.8125 C-16.9662413 7.70038787 -16.9662413 7.70038787 -18.6875 9.6875 Z M-11.625 7.8125 C-11.625 10.1225 -11.625 12.4325 -11.625 14.8125 C-9.645 14.4825 -7.665 14.1525 -5.625 13.8125 C-7.66302135 9.75225679 -7.66302135 9.75225679 -11.625 7.8125 Z M-34.625 11.8125 C-37.68742216 16.65310277 -39.15911505 20.10540936 -39.625 25.8125 C-36.325 25.8125 -33.025 25.8125 -29.625 25.8125 C-28.965 22.5125 -28.305 19.2125 -27.625 15.8125 C-31.09 13.8325 -31.09 13.8325 -34.625 11.8125 Z M6.375 11.8125 C3.9 13.2975 3.9 13.2975 1.375 14.8125 C1.519375 16.070625 1.66375 17.32875 1.8125 18.625 C1.93431641 19.68654297 1.93431641 19.68654297 2.05859375 20.76953125 C2.34670735 23.00646393 2.34670735 23.00646393 3.375 25.8125 C6.345 25.8125 9.315 25.8125 12.375 25.8125 C11.33288512 19.99402526 10.6026838 16.18110659 6.375 11.8125 Z M-23.625 17.8125 C-24.285 20.4525 -24.945 23.0925 -25.625 25.8125 C-22.325 25.8125 -19.025 25.8125 -15.625 25.8125 C-15.625 23.8325 -15.625 21.8525 -15.625 19.8125 C-19.53563224 18.34202664 -19.53563224 18.34202664 -23.625 17.8125 Z M-11.625 19.8125 C-11.625 21.7925 -11.625 23.7725 -11.625 25.8125 C-8.325 25.8125 -5.025 25.8125 -1.625 25.8125 C-1.955 23.1725 -2.285 20.5325 -2.625 17.8125 C-6.00523517 17.8125 -8.45968937 18.68705622 -11.625 19.8125 Z M-39.625 29.8125 C-38.58288512 35.63097474 -37.8526838 39.44389341 -33.625 43.8125 C-30.86622355 42.51038594 -30.86622355 42.51038594 -28.625 39.8125 C-28.47122915 36.30872135 -29.02797518 33.30279895 -29.625 29.8125 C-32.925 29.8125 -36.225 29.8125 -39.625 29.8125 Z M-25.625 29.8125 C-24.965 32.1225 -24.305 34.4325 -23.625 36.8125 C-20.985 36.4825 -18.345 36.1525 -15.625 35.8125 C-15.625 33.8325 -15.625 31.8525 -15.625 29.8125 C-18.925 29.8125 -22.225 29.8125 -25.625 29.8125 Z M-11.625 29.8125 C-11.625 31.7925 -11.625 33.7725 -11.625 35.8125 C-7.17 36.8025 -7.17 36.8025 -2.625 37.8125 C-2.295 35.1725 -1.965 32.5325 -1.625 29.8125 C-4.925 29.8125 -8.225 29.8125 -11.625 29.8125 Z M3.375 29.8125 C2.715 33.1125 2.055 36.4125 1.375 39.8125 C4.345 41.7925 4.345 41.7925 7.375 43.8125 C10.43742216 38.97189723 11.90911505 35.51959064 12.375 29.8125 C9.405 29.8125 6.435 29.8125 3.375 29.8125 Z M-20.625 40.8125 C-20.22696439 43.69825819 -19.83490931 44.63439513 -17.5625 46.5625 C-16.923125 46.975 -16.28375 47.3875 -15.625 47.8125 C-15.625 45.5025 -15.625 43.1925 -15.625 40.8125 C-17.275 40.8125 -18.925 40.8125 -20.625 40.8125 Z M-11.625 40.8125 C-11.625 43.1225 -11.625 45.4325 -11.625 47.8125 C-9.00312506 46.76375002 -7.83128639 46.16318687 -6.375 43.6875 C-6.1275 43.06875 -5.88 42.45 -5.625 41.8125 C-6.69145115 40.51616379 -6.69145115 40.51616379 -9.1875 40.75 C-9.991875 40.770625 -10.79625 40.79125 -11.625 40.8125 Z M-27.625 43.8125 C-28.615 44.4725 -29.605 45.1325 -30.625 45.8125 C-29.54397181 48.94748176 -28.64659388 49.7993559 -25.75 51.5625 C-22.56697021 53.06009378 -22.56697021 53.06009378 -18.625 52.8125 C-18.40201176 50.49969705 -18.40201176 50.49969705 -20.875 48.3125 C-23.1514965 46.24295772 -24.82066446 44.95500707 -27.625 43.8125 Z M-1.625 43.8125 C-2.63093243 44.9321986 -3.6295849 46.0584412 -4.625 47.1875 C-5.181875 47.81398438 -5.73875 48.44046875 -6.3125 49.0859375 C-7.82672487 50.71639833 -7.82672487 50.71639833 -7.625 52.8125 C-6.16133658 52.41496179 -4.7041065 51.99368616 -3.25 51.5625 C-2.43789063 51.33046875 -1.62578125 51.0984375 -0.7890625 50.859375 C1.83285454 49.5910108 2.36882318 48.48826692 3.375 45.8125 C0.9 44.8225 0.9 44.8225 -1.625 43.8125 Z " fill="#282091" transform="translate(43.625,2.1875)"/>
</svg>
