<?xml version="1.0" encoding="UTF-8"?>
<svg version="1.1" xmlns="http://www.w3.org/2000/svg" width="61" height="61">
<path d="M0 0 C1.15790039 -0.00315216 2.31580078 -0.00630432 3.50878906 -0.009552 C4.76916992 -0.00752777 6.02955078 -0.00550354 7.328125 -0.00341797 C8.61170898 -0.00437469 9.89529297 -0.00533142 11.21777344 -0.00631714 C13.93816324 -0.00779378 16.65852025 -0.00564066 19.37890625 -0.00097656 C22.87297169 0.00472073 26.36696033 0.00144154 29.86102295 -0.00454903 C33.18339653 -0.00902301 36.50574923 -0.00589432 39.828125 -0.00341797 C41.08850586 -0.0054422 42.34888672 -0.00746643 43.64746094 -0.009552 C44.80536133 -0.00639984 45.96326172 -0.00324768 47.15625 0 C48.18137695 0.00079559 49.20650391 0.00159119 50.26269531 0.00241089 C52.578125 0.12939453 52.578125 0.12939453 53.578125 1.12939453 C53.77586263 4.19509129 53.91131068 7.23959035 54 10.30908203 C54.02789612 11.23278595 54.05579224 12.15648987 54.08453369 13.10818481 C54.14103542 15.0668358 54.19464005 17.02557214 54.24560547 18.984375 C54.32759984 21.98517483 54.43112629 24.9847576 54.53515625 27.98486328 C54.58727536 29.88456663 54.63809933 31.78430605 54.6875 33.68408203 C54.72172058 34.58415985 54.75594116 35.48423767 54.79119873 36.41159058 C54.81672821 37.66771652 54.81672821 37.66771652 54.84277344 38.94921875 C54.86418396 39.6856662 54.88559448 40.42211365 54.90765381 41.18087769 C54.47402099 43.74496565 53.66135611 44.60883163 51.578125 46.12939453 C49.67910447 46.19551929 47.7772088 46.24792366 45.87792969 46.18969727 C39.16962864 46.00888645 34.44664167 46.41685474 29.34155273 51.02978516 C27.8855256 52.50859574 26.48465647 54.02304699 25.09375 55.56298828 C22.6087162 58.09818581 20.9342808 59.12134054 17.578125 60.12939453 C17.71888815 58.17069023 17.8658926 56.2124336 18.015625 54.25439453 C18.09683594 53.16384766 18.17804687 52.07330078 18.26171875 50.94970703 C18.578125 48.12939453 18.578125 48.12939453 19.578125 46.12939453 C18.50328857 46.13724976 18.50328857 46.13724976 17.40673828 46.14526367 C14.17220938 46.1660012 10.93769444 46.17904437 7.703125 46.19189453 C6.01123047 46.20446289 6.01123047 46.20446289 4.28515625 46.21728516 C3.20878906 46.22050781 2.13242188 46.22373047 1.0234375 46.22705078 C0.02844238 46.2322876 -0.96655273 46.23752441 -1.99169922 46.24291992 C-4.421875 46.12939453 -4.421875 46.12939453 -6.421875 45.12939453 C-6.44714624 38.88143778 -6.46470844 32.63349412 -6.47680664 26.38549805 C-6.48184798 24.25821439 -6.48868091 22.13093422 -6.49731445 20.00366211 C-6.50938879 16.95311627 -6.51510514 13.90261608 -6.51953125 10.85205078 C-6.52469254 9.89476578 -6.52985382 8.93748077 -6.53517151 7.95118713 C-6.53524704 7.07034958 -6.53532257 6.18951202 -6.53540039 5.28198242 C-6.537621 4.50254776 -6.53984161 3.7231131 -6.54212952 2.9200592 C-6.27871868 -1.00229221 -3.25349407 0.00252501 0 0 Z M-2.421875 4.12939453 C-2.421875 16.33939453 -2.421875 28.54939453 -2.421875 41.12939453 C6.488125 41.12939453 15.398125 41.12939453 24.578125 41.12939453 C24.248125 44.09939453 23.918125 47.06939453 23.578125 50.12939453 C24.87127561 49.17306454 26.16259353 48.21425602 27.453125 47.25439453 C28.17242187 46.72072266 28.89171875 46.18705078 29.6328125 45.63720703 C31.66065132 44.13066291 31.66065132 44.13066291 33.578125 42.12939453 C41.498125 41.63439453 41.498125 41.63439453 49.578125 41.12939453 C49.578125 28.91939453 49.578125 16.70939453 49.578125 4.12939453 C32.418125 4.12939453 15.258125 4.12939453 -2.421875 4.12939453 Z " fill="#F6713E" transform="translate(6.421875,-0.12939453125)"/>
<path d="M0 0 C1.32 0 2.64 0 4 0 C4 1.98 4 3.96 4 6 C5.98 6 7.96 6 10 6 C10 7.32 10 8.64 10 10 C8.02 10 6.04 10 4 10 C4 12.31 4 14.62 4 17 C2.68 17 1.36 17 0 17 C0 14.69 0 12.38 0 10 C-1.98 10 -3.96 10 -6 10 C-6 8.68 -6 7.36 -6 6 C-4.02 6 -2.04 6 0 6 C0 4.02 0 2.04 0 0 Z " fill="#F6723E" transform="translate(28,15)"/>
</svg>
