<?xml version="1.0" encoding="UTF-8"?>
<svg version="1.1" xmlns="http://www.w3.org/2000/svg" width="60" height="61">
<path d="M0 0 C5.17448366 0.44542764 5.17448366 0.44542764 9.95703125 -1.046875 C13.90039817 -2.88661023 18.02785026 -1.2914077 22 0 C28.00363548 3.03019031 31.85775381 7.57326143 34 14 C34.14767323 16.68083716 34.23091588 19.31868052 34.25 22 C34.270625 22.72445312 34.29125 23.44890625 34.3125 24.1953125 C34.35162574 29.49685085 34.35162574 29.49685085 32.80761719 31.70620728 C30.36217199 33.45652212 28.74483598 33.38060829 25.75 33.38818359 C24.67878906 33.39764008 23.60757813 33.40709656 22.50390625 33.4168396 C20.76947266 33.40773056 20.76947266 33.40773056 19 33.3984375 C17.81277344 33.40130768 16.62554687 33.40417786 15.40234375 33.40713501 C12.89062015 33.40917777 10.37888072 33.40363322 7.8671875 33.39111328 C4.01526428 33.3750636 0.16439045 33.39095588 -3.6875 33.41015625 C-6.12500232 33.40817386 -8.56250399 33.40433027 -11 33.3984375 C-12.15628906 33.40451019 -13.31257812 33.41058289 -14.50390625 33.4168396 C-15.57511719 33.40738312 -16.64632813 33.39792664 -17.75 33.38818359 C-18.69359375 33.38579681 -19.6371875 33.38341003 -20.609375 33.38095093 C-23 33 -23 33 -24.79663086 31.69082642 C-27.92359266 27.29720401 -26.77709697 19.15767807 -26 14 C-23.7550053 7.4706015 -19.94291629 3.09250534 -13.8828125 -0.16796875 C-8.9532996 -2.34636345 -4.87337817 -2.43668908 0 0 Z M-17 8 C-20.81991586 12.89732803 -22.14122064 16.47737756 -22.125 22.625 C-22.12757812 23.60726562 -22.13015625 24.58953125 -22.1328125 25.6015625 C-22.27005965 27.95225011 -22.27005965 27.95225011 -21 29 C-19.44000952 29.09846967 -17.87559456 29.12798618 -16.3125 29.12939453 C-15.31476562 29.13254669 -14.31703125 29.13569885 -13.2890625 29.13894653 C-12.20367187 29.1369223 -11.11828125 29.13489807 -10 29.1328125 C-8.34097656 29.13424759 -8.34097656 29.13424759 -6.6484375 29.13571167 C-4.30468692 29.13639367 -1.96093447 29.13453804 0.3828125 29.13037109 C3.98441788 29.12502314 7.58589853 29.13031547 11.1875 29.13671875 C13.45833361 29.13605797 15.72916714 29.13477682 18 29.1328125 C19.08539063 29.13483673 20.17078125 29.13686096 21.2890625 29.13894653 C22.28679688 29.13579437 23.28453125 29.13264221 24.3125 29.12939453 C25.63701172 29.12820114 25.63701172 29.12820114 26.98828125 29.12698364 C28.99767892 29.22270674 28.99767892 29.22270674 30 28 C30.7656173 20.85842222 30.31191425 14.88716466 26 9 C23.23771416 5.80784835 20.63622787 4.17041818 16.5 3.0625 C13.04380035 2.79927449 13.04380035 2.79927449 10.125 4 C4.83499894 5.69280034 -0.25584899 4.42838797 -5.5625 3.125 C-10.48096083 2.94614688 -13.32226797 4.85793764 -17 8 Z " fill="#7CC10A" transform="translate(26,27)"/>
<path d="M0 0 C3.23857278 1.30921027 4.60256422 2.52033613 6.8125 5.1875 C8.93275089 10.20914684 8.59978568 14.32691364 6.8125 19.3125 C4.68082803 22.473255 3.56986793 23.63281654 0 25 C-4.1258218 25.62094308 -8.09195514 25.94816953 -11.91015625 24.05078125 C-15.14007169 21.53509772 -17.16510234 18.9889555 -18 15 C-17.89634995 8.47004685 -16.59777507 5.59777507 -12 1 C-8.31064308 -0.84467846 -4.03564658 -0.35009552 0 0 Z M-11 6 C-13.48038907 9.7205836 -13.46337203 11.59796571 -13 16 C-10.94502229 19.00342896 -9.52366286 19.83287356 -6.0625 20.9375 C-2.29691206 21.01434873 -0.8475577 20.45206358 2 18 C3.67073042 15.23785028 3.67073042 15.23785028 4 12 C2.53502838 7.99060398 1.57596197 6.38397465 -2 4 C-5.59215647 3.6315737 -7.96906921 4.01421776 -11 6 Z " fill="#7CC10A" transform="translate(35,0)"/>
</svg>
