<?xml version="1.0" encoding="UTF-8"?>
<svg version="1.1" xmlns="http://www.w3.org/2000/svg" width="60" height="60">
<path d="M0 0 C4.86275001 0.97255 7.07813602 2.17260969 11 5 C10.01 6.485 10.01 6.485 9 8 C10.26831693 8.81642254 11.53975931 9.62799105 12.8125 10.4375 C13.52019531 10.88996094 14.22789063 11.34242187 14.95703125 11.80859375 C19.9950429 14.74663114 25.33878214 14.67993739 31 14 C34.55740034 12.67216812 37.73386619 10.92125518 41 9 C42.32830058 8.32336141 43.66001914 7.65320251 45 7 C45.99 7.99 46.98 8.98 48 10 C46.63369847 11.13554838 45.25647748 12.25796375 43.875 13.375 C42.72644531 14.31472656 42.72644531 14.31472656 41.5546875 15.2734375 C34.44449529 20.07879676 26.27663614 19.85502439 18 19 C13.6555939 17.57380608 9.53468252 15.82759236 6.546875 12.26953125 C6.03640625 11.85058594 5.5259375 11.43164062 5 11 C3.35 11.33 1.7 11.66 0 12 C0 8.04 0 4.08 0 0 Z " fill="#E255AB" transform="translate(3,41)"/>
<path d="M0 0 C6.8467882 0.35111734 12.29065316 4.05480768 16.83984375 9 C20.87025798 14.20307753 23.11969355 18.87248865 23.6875 25.5 C23.77386719 26.4178125 23.86023438 27.335625 23.94921875 28.28125 C24 31 24 31 23.39453125 33.59375 C22.92531868 36.45548213 23.4820894 37.58920081 25 40 C23.71186658 40.83878455 22.41936744 41.67086783 21.125 42.5 C20.40570313 42.9640625 19.68640625 43.428125 18.9453125 43.90625 C17 45 17 45 15 45 C15 41.04 15 37.08 15 33 C15.99 33.33 16.98 33.66 18 34 C18.4490278 26.51620326 18.73635576 20.13874043 14 14 C9.86424018 9.63545347 5.52986537 6.35019278 0 4 C0 2.68 0 1.36 0 0 Z " fill="#E255AB" transform="translate(34,3)"/>
<path d="M0 0 C4.05281712 1.22527029 7.44360764 2.69880494 11 5 C7.53258866 7.95749791 4.13126473 10.07848152 0 12 C0 10.68 0 9.36 0 8 C-7.65406569 11.76866851 -13.1841549 15.53593519 -16.5078125 23.7890625 C-17.61386815 28.75753472 -17.20529149 33.94374662 -17 39 C-18.32 39.66 -19.64 40.32 -21 41 C-23.85355051 35.29289897 -22.76960608 26.56731187 -20.9765625 20.5859375 C-17.77655821 13.60250272 -13.67606591 8.8387379 -7 5 C-5.01463373 4.29094062 -3.01927511 3.60578253 -1 3 C-0.67 2.01 -0.34 1.02 0 0 Z " fill="#E255AB" transform="translate(22,0)"/>
<path d="M0 0 C1.32 0.33 2.64 0.66 4 1 C3.979375 2.2065625 3.95875 3.413125 3.9375 4.65625 C3.75283034 13.62887856 3.75283034 13.62887856 6.7421875 21.8359375 C8.73593781 23.74205043 10.79779337 25.34620281 13 27 C16 30.42666667 16 30.42666667 16 34 C10.42285299 33.29608824 6.20372782 28.9923942 2.53125 25.03125 C-2.70680403 18.10489757 -0.89262522 8.14348858 0 0 Z " fill="#E355AC" transform="translate(25,13)"/>
</svg>
