<?xml version="1.0" encoding="UTF-8"?>
<svg version="1.1" xmlns="http://www.w3.org/2000/svg" width="61" height="61">
<path d="M0 0 C5.23625026 1.04725005 7.19336074 2.58067499 10.8125 6.125 C11.87047745 7.12825448 12.9290724 8.13085818 13.98828125 9.1328125 C14.75712646 9.86806152 14.75712646 9.86806152 15.54150391 10.61816406 C17.48611072 12.46056021 19.48343328 14.2369229 21.5 16 C22.0878125 16.515625 22.675625 17.03125 23.28125 17.5625 C23.8484375 18.036875 24.415625 18.51125 25 19 C25.6290625 19.598125 26.258125 20.19625 26.90625 20.8125 C28.98295817 22.30255777 28.98295817 22.30255777 31.51171875 21.41796875 C34.09135199 19.94794227 35.79193179 18.47769835 37.8125 16.3125 C41.68454799 12.28732017 45.75727316 8.62656319 50 5 C50.55945312 4.48953125 51.11890625 3.9790625 51.6953125 3.453125 C54.81409495 0.6634603 55.62967199 0 60 0 C60 16.83 60 33.66 60 51 C40.2 51 20.4 51 0 51 C0 34.17 0 17.34 0 0 Z M4 7 C4 18.55 4 30.1 4 42 C7.91575839 38.86739329 10.5106065 36.38930907 13.5625 32.5625 C14.30628906 31.63566406 15.05007813 30.70882812 15.81640625 29.75390625 C16.89728516 28.39072266 16.89728516 28.39072266 18 27 C19.33305447 25.33311028 20.66629789 23.66637158 22 22 C20.50407837 20.62056407 19.0030031 19.24671669 17.5 17.875 C16.6646875 17.10929687 15.829375 16.34359375 14.96875 15.5546875 C11.45413944 12.53027262 7.70941054 9.78205791 4 7 Z M51.40234375 10.28125 C50.68369141 10.95800781 49.96503906 11.63476562 49.22460938 12.33203125 C48.09249023 13.40517578 48.09249023 13.40517578 46.9375 14.5 C46.17888672 15.21542969 45.42027344 15.93085938 44.63867188 16.66796875 C42.7570177 18.4431142 40.87757759 20.22054485 39 22 C40.66571765 25.52275831 42.65456792 28.00711362 45.3125 30.875 C47.94615641 33.741911 50.54605883 36.60255046 53 39.625 C53.66 40.40875 54.32 41.1925 55 42 C55.33 42 55.66 42 56 42 C56 30.45 56 18.9 56 7 C54.08780415 7 52.70959599 9.04605103 51.40234375 10.28125 Z M24 26 C22.56450274 27.59334239 21.20172673 29.25251082 19.875 30.9375 C16.20049914 35.54104808 12.4040081 39.97065779 8.43359375 44.3203125 C6.89180208 45.7587232 6.89180208 45.7587232 7 47 C22.18 47 37.36 47 53 47 C49.44170804 42.25561072 46.21283576 37.97146211 42.25 33.6875 C39.92599892 31.16983217 37.90395322 28.85592982 36 26 C35.38125 26.309375 34.7625 26.61875 34.125 26.9375 C32.75 27.625 31.375 28.3125 30 29 C29.38125 28.505 28.7625 28.01 28.125 27.5 C26.16119096 25.80777227 26.16119096 25.80777227 24 26 Z " fill="#3F68C5" transform="translate(0,9)"/>
<path d="M0 0 C3 1 3 1 4.6875 3.9375 C6 7 6 7 6 9 C5.01 9 4.02 9 3 9 C3 13.62 3 18.24 3 23 C1.68 23 0.36 23 -1 23 C-1 18.38 -1 13.76 -1 9 C-1.99 9 -2.98 9 -4 9 C-2.94124926 5.59687262 -1.99097846 2.98646769 0 0 Z " fill="#3F68C6" transform="translate(29,0)"/>
</svg>
