<?xml version="1.0" encoding="UTF-8"?>
<svg version="1.1" xmlns="http://www.w3.org/2000/svg" width="60" height="61">
<path d="M0 0 C3.53219967 1.35275732 4.68424109 2.55793753 6.875 5.625 C8.34904611 10.04713833 8.11514948 13.5063606 7 18 C5.4375 21.0625 5.4375 21.0625 4 23 C4.928125 23.45375 5.85625 23.9075 6.8125 24.375 C10 26 10 26 13 28 C15.18945668 28.09210084 15.18945668 28.09210084 17.5 27.875 C19.921875 27.80859375 19.921875 27.80859375 22 28 C23.75 29.9375 23.75 29.9375 25 32 C25.825 32.165 26.65 32.33 27.5 32.5 C30 33 30 33 31.8125 34.75 C33.22468142 37.42571216 33.22432268 39.00903092 33 42 C33 43.32 33 44.64 33 46 C32.3125 52.53125 32.3125 52.53125 30 56 C27.4375 56.125 27.4375 56.125 25 56 C24.67 56.33 24.34 56.66 24 57 C22.40389018 57.09333705 20.80366572 57.11745372 19.20483398 57.11352539 C18.18385117 57.11344986 17.16286835 57.11337433 16.11094666 57.11329651 C15.0005452 57.10813522 13.89014374 57.10297394 12.74609375 57.09765625 C11.61551041 57.0962413 10.48492706 57.09482635 9.32008362 57.09336853 C5.69252935 57.08775019 2.06503576 57.07519458 -1.5625 57.0625 C-4.01497307 57.05748736 -6.4674471 57.05292405 -8.91992188 57.04882812 C-14.94663545 57.0377748 -20.97331339 57.02101884 -27 57 C-27.17648219 53.52149069 -27.28156271 50.04415151 -27.375 46.5625 C-27.42527344 45.58861328 -27.47554687 44.61472656 -27.52734375 43.61132812 C-27.6739479 36.30555483 -26.10679107 31.36097524 -21 26 C-18.36685962 24.25091036 -15.96284256 23.17492033 -13 22 C-13.66 21.360625 -14.32 20.72125 -15 20.0625 C-17.67866158 15.96079946 -17.84961154 12.7780134 -17 8 C-12.83099868 0.09327336 -8.36724276 -0.84341807 0 0 Z M-12 8 C-12.99666889 11.18934044 -13.31016328 13.06951017 -12.25 16.25 C-10.94895128 18.29017165 -10.94895128 18.29017165 -8 20 C-5.0850745 20.5838196 -5.0850745 20.5838196 -2 20 C1.32274404 17.54405875 2.77618008 16.0743356 3.625 12 C2.78253791 7.95618195 1.26600019 6.46764459 -2 4 C-6.52849739 2.98108809 -8.90813196 4.73636151 -12 8 Z M-20.3125 32.5 C-22.5606177 35.83054475 -23.12550171 38.30425832 -23.09765625 42.23046875 C-23.09515869 42.95387451 -23.09266113 43.67728027 -23.09008789 44.42260742 C-23.08098389 45.33502197 -23.07187988 46.24743652 -23.0625 47.1875 C-23.041875 50.095625 -23.02125 53.00375 -23 56 C-13.43 56 -3.86 56 6 56 C5.01 54.35 4.02 52.7 3 51 C2.8125 48.4375 2.8125 48.4375 3 46 C3 44.68 3 43.36 3 42 C3.41638116 37.10752141 4.69555276 34.62423246 8 31 C5.16015917 27.88969814 3.1309246 27.07305351 -1.14453125 26.796875 C-2.35496094 26.78140625 -3.56539062 26.7659375 -4.8125 26.75 C-6.01519531 26.72421875 -7.21789062 26.6984375 -8.45703125 26.671875 C-13.5881455 27.14708293 -16.82447784 28.72916524 -20.3125 32.5 Z M16 32 C15.67 33.32 15.34 34.64 15 36 C13.88625 36.103125 12.7725 36.20625 11.625 36.3125 C10.42875 36.539375 9.2325 36.76625 8 37 C7.34 37.99 6.68 38.98 6 40 C6.66 40 7.32 40 8 40 C8.08004482 43.5219721 8.04005702 46.61981469 7 50 C8.670625 50.6496875 8.670625 50.6496875 10.375 51.3125 C14 53 14 53 16 56 C17.94074861 55.72382467 17.94074861 55.72382467 20 55 C20.66 54.01 21.32 53.02 22 52 C25.125 51.3125 25.125 51.3125 28 51 C29.35074193 48.06271544 29.35074193 48.06271544 27.9375 45.5625 C27 43 27 43 27.9375 40.8125 C28.288125 40.214375 28.63875 39.61625 29 39 C28.67 38.34 28.34 37.68 28 37 C26.2984375 36.5359375 26.2984375 36.5359375 24.5625 36.0625 C21 35 21 35 19 32 C18.01 32 17.02 32 16 32 Z " fill="#B55C5C" transform="translate(27,4)"/>
<path d="M0 0 C3.375 0.875 3.375 0.875 5.375 2.875 C6.05181895 9.98159898 6.05181895 9.98159898 3.8125 12.9375 C0.3242992 14.27911569 -2.05025344 13.80178615 -5.625 12.875 C-7.95249345 9.38375983 -8.12799316 7.98277749 -7.625 3.875 C-5.30290294 0.25252859 -4.34513693 -0.14983231 0 0 Z M-1.625 3.875 C-2.285 5.195 -2.945 6.515 -3.625 7.875 C-2.14 8.865 -2.14 8.865 -0.625 9.875 C0.035 9.545 0.695 9.215 1.375 8.875 C1.375 7.555 1.375 6.235 1.375 4.875 C0.385 4.545 -0.605 4.215 -1.625 3.875 Z " fill="#B55C5C" transform="translate(45.625,41.125)"/>
</svg>
