<svg id="Layer_1" data-name="Layer 1" xmlns="http://www.w3.org/2000/svg" viewBox="0 0 270 270"><defs><style>.cls-1{fill:orange;}</style></defs><path class="cls-1" d="M260,134.82c.29,7.32-2.71,13.17-6.28,18.75a86.3,86.3,0,0,1-7.17,9.9c-8.21,9.54-11.9,20.76-13.09,33.08A102.51,102.51,0,0,1,231.08,209c-3,13.43-12.08,20.3-25.08,22.72-5.08.95-10.17,2-15.3,2.52-10.39,1-19,5.73-27,12.09a98.89,98.89,0,0,1-14.34,9.79c-9.79,5.31-19.51,5.13-29.09-.35a59.58,59.58,0,0,1-10.53-7C98.37,238.47,84.84,234,69.94,232.7A63,63,0,0,1,63,231.54c-14.55-2.9-22.49-12.06-24.88-26.4-.8-4.79-1.63-9.58-2.18-14.4-1.28-11.19-6.67-20.38-13.57-28.91a90.76,90.76,0,0,1-7.93-11.64c-5.76-10-6-19.94-.25-29.89A65,65,0,0,1,21.75,109C31.51,98.11,35.9,85.21,37.13,70.94a54.52,54.52,0,0,1,1.22-7.41c3.85-16.69,12.3-24.09,31.06-26.14,15-1.64,28.83-5.6,40.22-16.12,2.5-2.32,5.6-4,8.51-5.85,11.32-7.23,22.66-7.24,34,.08,2.37,1.54,4.94,2.85,7,4.74,12,11,26.32,15.6,42.24,17.23,17.61,1.81,26.37,9.37,30,24.35a77.27,77.27,0,0,1,2.06,11.57c1.11,12.69,5.25,24,13.65,33.83a65.7,65.7,0,0,1,10.23,15.72C259.05,126.85,260.26,130.86,260,134.82Zm-4.89,0c-.37-8.8-5.27-15.54-10.34-22.14-6.8-8.87-13.32-17.85-14.91-29.36-.69-5-1.47-9.92-2.25-14.87-1.77-11.12-5.78-20.64-17.89-24a60.75,60.75,0,0,0-10.56-2.18,75.71,75.71,0,0,1-42.35-17.18c-16.8-13.78-25.54-13.38-43.19-.29-8.8,6.54-17.36,13.48-28.71,15.2-5,.74-9.9,1.58-14.86,2.27-16.4,2.3-23.21,7.92-26.59,22.15a58.29,58.29,0,0,0-1.35,7.85c-1.42,14.69-5.76,28.12-15.86,39.36a58,58,0,0,0-8.31,12.49,22.49,22.49,0,0,0-.06,21.63,79.44,79.44,0,0,0,9.41,14c7.18,8.8,12.26,18.5,13.61,29.92a149.42,149.42,0,0,0,3.09,18.06c2.39,9.73,8.27,16,18.14,18.2a73,73,0,0,0,9.2,1.83c15.35,1.44,29.38,5.95,41.06,16.53a65.41,65.41,0,0,0,8.46,5.93c9.34,6.06,18.76,6.35,28.18.16,3-2,6-4,8.87-6.16,8.5-6.51,17.14-12.7,28.11-14.4,6.19-1,12.39-1.89,18.56-3,13.39-2.45,19.36-8.24,22.18-21.45.79-3.67,1.43-7.38,1.86-11.11,1.44-12.4,5.28-23.74,13.52-33.43a79.42,79.42,0,0,0,9.34-13.51C253.54,143.41,255.18,139.39,255.06,134.81Z"/><path class="cls-1" d="M68.21,137.32c-.11-7,14.42-21.22,21.11-21,3.22.1,5.59,1.69,7.76,3.88,7.3,7.36,14.76,14.57,21.92,22.06,2.35,2.45,3.54,2.73,6.13.1,15.62-15.91,31.47-31.61,47.26-47.36,6.42-6.42,11.24-6.45,17.65-.14q3.87,3.81,7.68,7.65c5.84,5.91,5.86,11.06-.1,17Q179.85,137.39,162,155.16q-15.66,15.66-31.33,31.31c-5.87,5.84-11.21,5.84-17,0q-20.49-20.49-41-41C70.21,143.15,68,140.75,68.21,137.32ZM197,110.85a5.9,5.9,0,0,0-2-3.76c-2.7-2.63-5.33-5.33-8-8-5.11-5.12-6.35-5.11-11.44,0l-48.33,48.31c-5.13,5.12-5.13,5.11-10.42-.17-7.78-7.77-15.54-15.57-23.36-23.3-3.68-3.63-5.52-3.6-9.1-.08-3,3-6,6-9,9-2.8,2.71-2.91,5.24-.06,8.06q21.39,21.27,42.66,42.65c2.93,2.95,5.53,2.83,8.43-.08q34.11-34.18,68.32-68.3C195.93,113.87,197,112.57,197,110.85Z"/><path class="cls-1" d="M169.92,221c-1.33-.28-2.5-.58-2.69-2.19-.2-1.79.94-2.59,2.31-3.07a76.07,76.07,0,0,1,13.68-3.08,124.82,124.82,0,0,0,13.35-2.48c7.8-2.06,12.16-7.15,14.05-14.76s2-15.82,4.49-23.45c.34-1,.71-2.06,1.09-3.09.61-1.67,1.89-2,3.39-1.42a2.13,2.13,0,0,1,1.36,3c-3.37,8.38-3.28,17.47-5.39,26.11-2.41,9.85-8.19,16.36-18.23,18.61-4.56,1-9.22,1.66-13.83,2.46A70.19,70.19,0,0,0,169.92,221Z"/><path class="cls-1" d="M49.21,99.51c3.39-8.62,3.34-17.88,5.56-26.69C57.24,63,63.3,57.12,73,54.67c8.8-2.23,18.05-2.23,26.65-5.45a2.32,2.32,0,0,1,3.24,1.83c.47,2-1.1,2.75-2.61,3.3-6.09,2.2-12.5,2.94-18.84,3.81-15.87,2.18-21.31,7.66-23.37,23.77-.79,6.2-1.6,12.42-3.71,18.37-.6,1.71-1.48,2.69-3.4,2.42C48.8,102.42,49.36,100.8,49.21,99.51Z"/><path class="cls-1" d="M197,110.85c0,1.72-1,3-2.28,4.29q-34.18,34.12-68.32,68.3c-2.9,2.91-5.5,3-8.43.08q-21.28-21.37-42.66-42.65c-2.85-2.82-2.74-5.35.06-8.06,3-2.95,6-6,9-9,3.58-3.52,5.42-3.55,9.1.08,7.82,7.73,15.58,15.53,23.36,23.3,5.29,5.28,5.29,5.29,10.42.17l48.33-48.31c5.09-5.09,6.33-5.1,11.44,0,2.66,2.66,5.29,5.36,8,8A5.9,5.9,0,0,1,197,110.85Z"/></svg>