<svg id="Layer_1" data-name="Layer 1" xmlns="http://www.w3.org/2000/svg" viewBox="0 0 200 200"><defs><style>.cls-1{fill:#123c7f;}</style></defs><path class="cls-1" d="M142,178.5H43.85a8.73,8.73,0,0,1-8.72-8.72V41.12a8.73,8.73,0,0,1,8.72-8.72h71.8l35,35.51V169.78A8.73,8.73,0,0,1,142,178.5ZM43.85,36.76a4.37,4.37,0,0,0-4.36,4.36V169.78a4.37,4.37,0,0,0,4.36,4.36H142a4.37,4.37,0,0,0,4.36-4.36V69.7L113.83,36.76Z"/><path class="cls-1" d="M156.15,165.42h-7.63v-4.36h7.63a4.37,4.37,0,0,0,4.36-4.37V30.22a4.37,4.37,0,0,0-4.36-4.36H58a4.37,4.37,0,0,0-4.36,4.36v4.36H49.3V30.22A8.73,8.73,0,0,1,58,21.5h98.13a8.73,8.73,0,0,1,8.72,8.72V156.69A8.74,8.74,0,0,1,156.15,165.42Z"/><path class="cls-1" d="M148.52,70.56h-33.8a2.17,2.17,0,0,1-2.18-2.18V34.58a2.18,2.18,0,0,1,4.36,0V66.2h31.62a2.18,2.18,0,0,1,0,4.36Z"/><path class="cls-1" d="M94.79,49.85H55.23a2.18,2.18,0,1,1,0-4.36H94.79a2.18,2.18,0,0,1,0,4.36Z"/><path class="cls-1" d="M94.79,65.11H55.23a2.18,2.18,0,1,1,0-4.36H94.79a2.18,2.18,0,0,1,0,4.36Z"/><path class="cls-1" d="M134.89,95.64h-85a2.18,2.18,0,1,1,0-4.36h85a2.18,2.18,0,1,1,0,4.36Z"/><path class="cls-1" d="M134.89,112h-85a2.18,2.18,0,0,1,0-4.36h85a2.18,2.18,0,0,1,0,4.36Z"/><path class="cls-1" d="M134.89,128.35h-85a2.18,2.18,0,0,1,0-4.36h85a2.18,2.18,0,1,1,0,4.36Z"/><path class="cls-1" d="M134.89,144.7h-85a2.18,2.18,0,0,1,0-4.36h85a2.18,2.18,0,1,1,0,4.36Z"/><path class="cls-1" d="M134.89,161.06h-85a2.19,2.19,0,0,1,0-4.37h85a2.19,2.19,0,0,1,0,4.37Z"/></svg>