<svg id="Layer_1" data-name="Layer 1" xmlns="http://www.w3.org/2000/svg" viewBox="0 0 200 200"><defs><style>.cls-1{fill:#123c7f;}</style></defs><path class="cls-1" d="M177.26,158.29h-99a8,8,0,0,1-8-8v-61a8,8,0,0,1,8-8h99a8,8,0,0,1,8,8v61A8,8,0,0,1,177.26,158.29Zm-99-73a4,4,0,0,0-4,4v61a4,4,0,0,0,4,4h99a4,4,0,0,0,4-4v-61a4,4,0,0,0-4-4Z"/><path class="cls-1" d="M104.61,75c-6.56,0-13.12,0-19.67,0-12.12.08-20.64,8.52-20.8,20.62-.06,4.16-.09,8.32,0,12.49A3.57,3.57,0,0,1,61.32,112c-4.53,1.55-9,3.25-13.5,4.9a24.43,24.43,0,0,0-2.33.91c-1.67.79-2.76,2-2.09,4s2.4,2.34,4.11,1.78c4.26-1.37,8.44-3,12.67-4.44,3.55-1.24,3.92-1,3.94,2.84,0,4.27-.06,8.53,0,12.8,0,2.17-.67,3.48-2.84,4.19-4,1.3-7.8,2.9-11.75,4.22-7.72,2.58-14.52-.68-17.31-8.29Q24.09,112.58,16,90.27c-3.25-9-.16-15.63,8.71-18.86Q63.86,57.12,103,42.87c8.51-3.1,15.38.07,18.48,8.51q3.61,9.81,7.17,19.65c1.27,3.49,1,3.92-2.83,3.94C118.76,75,111.68,75,104.61,75ZM42.15,105.88c3.68-1.12,8.09-2.19,11.84-4.62,2.72-1.76,2.31-4.67,1.18-7.33-1.39-3.32-1.6-8.18-6.53-7.92a24.78,24.78,0,0,0-12.75,4.6c-3.54,2.48-1.47,6-.39,9.1S37.49,105.8,42.15,105.88Z"/><path class="cls-1" d="M102.17,117.29a11.37,11.37,0,0,1-5.7-1.5,11.51,11.51,0,1,1,0-20,11.31,11.31,0,0,1,5.7-1.52,11.5,11.5,0,0,1,0,23Zm-5.7-5.89a2,2,0,0,1,1.2.4,7.42,7.42,0,0,0,4.5,1.49,7.5,7.5,0,1,0-4.5-13.49,2,2,0,0,1-2.41,0,7.43,7.43,0,0,0-4.5-1.51,7.5,7.5,0,0,0,0,15,7.39,7.39,0,0,0,4.5-1.49A2,2,0,0,1,96.47,111.4Z"/></svg>