<svg id="Layer_1" data-name="Layer 1" xmlns="http://www.w3.org/2000/svg" viewBox="0 0 200 200"><defs><style>.cls-1{fill:#123c7f;}.cls-2{fill:none;stroke:#123c7f;stroke-linecap:round;stroke-linejoin:round;stroke-width:4px;}</style></defs><path class="cls-1" d="M123.84,55.58c0,10,0,20.06,0,30.1,0,1.08.3,1.34,1.36,1.33,4.49-.06,9,0,13.47,0a3.59,3.59,0,0,1,3,6.08q-15.12,19.53-30.21,39.06-4.12,5.32-8.23,10.66c-1.94,2.52-4.41,2.54-6.34,0q-18.94-24.54-37.91-49c-.87-1.13-1.84-2.2-1.56-3.79A3.45,3.45,0,0,1,61,87c4.61,0,9.22,0,13.83,0,1.11,0,1.41-.28,1.41-1.4q0-29.67,0-59.35c0-3.44,1.32-4.76,4.76-4.76h38.35c3.19,0,4.57,1.4,4.57,4.58Z"/><path class="cls-2" d="M169.59,129.23v44.3c0,2.75-2.73,5-6.09,5H36.5c-3.36,0-6.09-2.22-6.09-5v-44.3"/></svg>