<svg id="Layer_1" data-name="Layer 1" xmlns="http://www.w3.org/2000/svg" viewBox="0 0 200 200">
<path class="cls-1" d="M124.44,152.19c-3.39,0-5.19-1.66-5.29-5.11-.12-3.69,1.6-5.58,5.36-5.58,3.6,0,4.94,2,4.91,5.34S128,152.21,124.44,152.19Z"/>
<path class="cls-1" d="M149.58,162H136.93l-12.7,0H113.31Q98,162,82.69,162c-3.38,0-8.49,0-11.5-5.05s-.48-9.14,1.52-12.45q11-18.14,21.91-36.28L115.32,74c2.74-4.52,5.77-6.81,9-6.81h0c3.27,0,6.34,2.33,9.12,6.94,13.69,22.68,27.69,45.94,42.81,71.1,2.68,4.45,3.17,8.65,1.39,11.83s-5.58,4.91-10.74,5C161.16,162,155.35,162,149.58,162Zm-25.35-4,12.7,0c9.82,0,20,0,29.95,0,3.66,0,6.25-1.07,7.28-2.92s.58-4.64-1.33-7.81C157.71,122.1,143.71,98.85,130,76.17c-2-3.23-4-5-5.69-5h0c-1.72,0-3.65,1.69-5.58,4.88q-10.36,17.13-20.7,34.28-11,18.13-21.91,36.28c-2,3.34-3.18,5.53-1.51,8.34,1.56,2.64,3.83,3.06,8.05,3.09q15.31,0,30.63,0Z"/>
<path class="cls-1" d="M129.2,97.12c-.76,11.37-1.49,22.74-2.3,34.11-.13,1.93.32,4.64-2.72,4.58-2.62-.06-2.31-2.56-2.44-4.32-.9-12.86-1.7-25.72-2.61-38.58-.28-4,.8-6.71,5.35-6.64,4.22.06,5.33,2.66,5,6.38-.13,1.48-.14,3-.21,4.48Z"/>
<path class="cls-1" d="M125.8,51.51,107.19,82c-.51-.46-1.13-1-1.9-1.64-1.61-1.33-3-2.3-3.85-2.88l.29,0C80.94,66,56.36,80.1,56.51,105.52c.46,8.73,5.16,17.18,14.29,23.13l-.29,0a33.4,33.4,0,0,0,6.55,2.74l.59.17-8.58,14-.69.06-4.44.4c-4.21,1.75-7.69,4.62-11.27,7.31-3.22,2.42-6.14,2.43-8.89-.68-.24-.28-.53-.53-.79-.79-11-11.15-11.49-9.11-2.24-21.1,5-6.43,3-13.84-6.2-14.79-16-1.64-12.74-3.08-13.24-16.67-.17-4.79,1.42-7.36,6.49-7.78a41,41,0,0,0,10.59-2.21c4.74-1.73,6.33-6.55,3.86-10.92A69.2,69.2,0,0,0,36.56,70c-2.73-3.54-3-6.74.65-9.77.15-.12.26-.27.4-.39,9.94-9.46,8.64-12.52,21.14-2.36,7,5.67,13.82,1.87,14.88-6.13,2-15.09.88-13.07,16.54-13.39,5.2-.1,7.56,2,8,7a49,49,0,0,0,2,9.88c1.5,4.85,6.2,6.79,10.63,4.35A89.94,89.94,0,0,0,120.08,53C122.11,51.47,124,50.94,125.8,51.51Z"/></svg>