<svg xmlns="http://www.w3.org/2000/svg" width="512" height="512" viewBox="0 0 512 512" version="1.1">
<path d="M 238.161 188.032 C 226.178 191.171, 215.786 197.289, 206.135 206.884 L 197.703 215.268 214.410 231.884 C 223.599 241.023,
 231.534 249.175, 232.043 250 C 232.553 250.825, 232.969 253.525, 232.969 256 C 232.969 258.475, 232.553 261.175, 232.043 262 C 231.534 262.825, 
 223.599 270.977, 214.410 280.116 L 197.703 296.732 206.135 305.116 C 220.406 319.305,
 236.391 326, 256 326 C 295.095 326, 326 295.095, 326 256 C 326 223.786, 304.446 195.915, 273.391 187.972 C 263.206 185.367, 248.238 185.393, 238.161 188.032"
  stroke="none" fill="#cbebfb" fill-rule="evenodd"/>
  <path d="M 243 84.134 C 176.625 87.501, 112.597 119.225, 57.746 175.922 C 37.373 196.980, 14.789 226.156, 2.659 247.088 C -0.874 253.184,
   -0.874 258.816, 2.659 264.912 C 14.789 285.844, 37.373 315.020, 57.746 336.078 C 107.919 387.939, 165.831 418.922, 226.930 426.591 C 241.770 428.454,
    270.230 428.454, 285.070 426.591 C 346.169 418.922, 404.081 387.939, 454.254 336.078 C 474.833 314.806, 493.880 290.273, 508.867 265.732 C 512.111 260.421,
     513 257.988, 513 254.423 C 513 251.650, 512.611 250.123, 512 250.500 C 511.450 250.840, 511 250.688, 511 250.162 C 511 248.118, 488.670 215.822,
      478.612 203.319 C 413.053 121.827, 329.832 79.729, 243 84.134 M 238.500 111.642 C 207.830 115.138, 187.929 120.606, 163.562 132.233 C 119.153 153.423,
       80.639 186.064, 46.322 231.596 C 36.690 244.376, 30 254.406, 30 256.067 C 30 258.889, 46.745 282.038, 61.056 299 C 70.774 310.519, 93.974 333.820,
        103.658 341.788 L 108.816 346.032 103.020 334.766 C 90.940 311.284, 84.013 284.654, 84.004 261.654 C 83.999 250.008, 85.297 247.003,
         91.663 243.921 C 97.217 241.233, 102.038 242.105, 106.548 246.615 C 110.253 250.320, 110.317 250.586, 111.953 269.177 C 116.389 319.588,
          146.439 363.210, 192.687 386.372 C 235.514 407.821, 294.924 405.302, 348.438 379.767 C 392.847 358.577, 431.361 325.936, 465.678 280.404 C 475.310 267.624,
           482 257.594, 482 255.933 C 482 253.111, 465.255 229.962, 450.944 213 C 441.226 201.481, 418.026 178.180,
            408.342 170.212 L 403.184 165.968 408.980 177.234 C 421.060 200.716, 427.987 227.346, 427.996 250.346 C 428.001 261.992,
             426.703 264.997, 420.337 268.079 C 414.783 270.767, 409.962 269.895, 405.452 265.385 C 401.747 261.680, 401.683 261.414,
              400.047 242.823 C 394.121 175.476, 342.314 121.461, 275 112.445 C 265.540 111.178, 246.284 110.754, 238.500 111.642 M 235.500 160.932 C 220.922 164.359,
               210.807 168.930, 198.286 177.748 C 184.612 187.378, 168 209.275, 168 217.670 C 168 223.554, 170.001 226.275, 185.293 241.179 L 200.500 256 185.293 270.821 C 170.001 285.725,
                168 288.446, 168 294.330 C 168 302.725, 184.612 324.622, 198.286 334.252 C 211.413 343.497, 222.635 348.372, 238 351.504 C 250.351 354.022, 270.317 353.187,
                 282.128 349.657 C 316.284 339.452, 340.137 315.201, 350.198 280.451 C 352.186 273.583, 352.500 270.253, 352.500 256 C 352.500 241.747, 352.186 238.417,
                  350.198 231.549 C 340.138 196.802, 316.335 172.598, 282.128 162.331 C 270.269 158.772, 247.585 158.091, 235.500 160.932 M 238.161 188.032 C 226.178 191.171,
                   215.786 197.289, 206.135 206.884 L 197.703 215.268 214.410 231.884 C 223.599 241.023, 231.534 249.175, 232.043 250 C 232.553 250.825, 232.969 253.525, 
                   232.969 256 C 232.969 258.475, 232.553 261.175, 232.043 262 C 231.534 262.825, 223.599 270.977, 214.410 280.116 L 197.703 296.732 206.135 305.116 C 220.406 319.305,
                    236.391 326, 256 326 C 295.095 326, 326 295.095, 326 256 C 326 223.786, 304.446 195.915, 273.391 187.972 C 263.206 185.367, 248.238 185.393,
                     238.161 188.032 M 0.300 256 C 0.300 259.025, 0.487 260.262, 0.716 258.750 C 0.945 257.238, 0.945 254.762, 0.716 253.250 C 0.487 251.738,
                      0.300 252.975, 0.300 256" stroke="none" fill="#2c547c" fill-rule="evenodd"/></svg>
