<svg xmlns="http://www.w3.org/2000/svg" width="500" height="500" viewBox="0 0 500 500" version="1.1">
<path d="M 45.251 87.545 C 33.275 90.770, 24.931 97.704, 19.674 108.799 L 16.500 115.500 16.500 250.123 L 16.500 384.745 20.500 392.579 C 25.144 401.674,
 31.349 407.389, 40.656 411.143 L 46.500 413.500 246.500 413.796 C 393.031 414.013, 448.095 413.787, 452.467 412.953 C 464.999 410.561, 474.767 402.934,
  480.326 391.201 L 483.500 384.500 483.500 250 L 483.500 115.500 480.723 109.570 C 475.359 98.116, 466.510 90.551, 454.842 87.446 C 446.868 85.323,
   53.147 85.419, 45.251 87.545 M 47.764 102.991 C 40.075 105.320, 33.918 112.060, 32.039 120.206 C 31.495 122.568, 31.038 129.787,
    31.024 136.250 L 31 148 239.545 148 L 448.091 148 450.545 150.455 C 453.793 153.702, 453.793 158.298,
     450.545 161.545 L 448.091 164 239.528 164 L 30.965 164 31.233 272.829 L 31.500 381.658 34.524 386.548 C 36.187 389.238,
      39.488 392.802, 41.860 394.469 L 46.172 397.500 250 397.500 L 453.828 397.500 458.140 394.469 C 460.512 392.802, 463.813 389.238,
       465.476 386.548 L 468.500 381.658 468.772 296.329 L 469.044 211 260.476 211 L 51.909 211 49.455 208.545 C 45.459 204.550, 46.469 198.941,
        51.684 196.163 C 53.325 195.290, 105.559 195, 261.489 195 L 469.110 195 468.805 157.250 C 468.469 115.647, 468.465 115.619, 462.037 109.191 C 460.250 107.404,
         457.373 105.167, 455.644 104.221 C 452.702 102.611, 439.556 102.489, 251.500 102.331 C 140.950 102.238, 49.269 102.535, 47.764 102.991 M 82.079 290.265 C 76.819 292.949,
          77.316 301.646, 82.861 303.942 C 84.744 304.722, 100.127 304.973, 134.171 304.778 C 180.365 304.514, 182.897 304.405, 184.896 302.595 C 188.053 299.736,
           187.778 293.757, 184.365 291.073 C 181.781 289.040, 180.795 289, 133.115 289.015 C 96.530 289.026, 83.901 289.335, 82.079 290.265 M 206.337 290.477 C 201.759 293.683,
            202.694 301.802, 207.888 303.954 C 209.766 304.732, 220.885 304.990, 243.892 304.790 L 277.179 304.500 279.089 302.139 C 281.750 298.852, 281.525 294.434,
             278.545 291.455 L 276.091 289 242.268 289 C 214.059 289, 208.095 289.245, 206.337 290.477 M 357.024 290.562 C 349.388 292.671, 344.100 296.016,
              338.204 302.467 C 320.705 321.614, 327.087 352.007, 351 363.403 L 357.500 366.500 382.500 366.500 C 406.334 366.500, 407.768 366.392, 413.247 364.179 C 421.274 360.938,
               429.171 353.431, 433.226 345.187 C 436.297 338.945, 436.500 337.876, 436.500 327.992 C 436.500 318.122, 436.294 317.034, 433.250 310.854 C 429.268 302.768,
                423.112 296.896, 414.180 292.665 L 407.500 289.500 385 289.275 C 367.450 289.100, 361.295 289.383, 357.024 290.562 M 359.147 306.118 C 357.303 306.664,
                 353.691 309.223, 351.119 311.805 C 339.393 323.582, 342.382 341.165, 357.500 349.338 C 361.229 351.354, 362.887 351.500, 382 351.500 C 404.562 351.500,
                  407.743 350.921, 413.645 345.739 C 419.055 340.988, 421.420 335.600, 421.463 327.922 C 421.495 322.308, 421.056 320.626, 418.474 316.448 C 416.600 313.417,
                   413.584 310.400, 410.556 308.526 L 405.664 305.500 384.082 305.313 C 372.113 305.210, 361.007 305.568, 359.147 306.118 M 81.866 329.511 C 76.891 332.214,
                    77.354 340.473, 82.615 342.870 C 86.132 344.473, 241.868 344.473, 245.385 342.870 C 250.821 340.394, 251.194 331.922, 245.983 329.286 C 242.069 327.306,
                     85.530 327.521, 81.866 329.511" stroke="none" fill="#244487" fill-rule="evenodd"/>
                    
                     <path d="M 47.764 102.991 C 40.075 105.320, 33.918 112.060,
                      32.039 120.206 C 31.495 122.568, 31.038 129.787, 31.024 136.250 L 31 148 239.545 148 L 448.091 148 450.545 150.455 C 453.793 153.702, 453.793 158.298, 
                      450.545 161.545 L 448.091 164 239.528 164 L 30.965 164 31.233 272.829 L 31.500 381.658 34.524 386.548 C 36.187 389.238, 39.488 392.802, 
                      41.860 394.469 L 46.172 397.500 250 397.500 L 453.828 397.500 458.140 394.469 C 460.512 392.802, 463.813 389.238,
                       465.476 386.548 L 468.500 381.658 468.772 296.329 L 469.044 211 260.476 211 L 51.909 211 49.455 208.545 C 45.459 204.550,
                        46.469 198.941, 51.684 196.163 C 53.325 195.290, 105.559 195, 261.489 195 L 469.110 195 468.805 157.250 C 468.469 115.647,
                         468.465 115.619, 462.037 109.191 C 460.250 107.404, 457.373 105.167, 455.644 104.221 C 452.702 102.611, 439.556 102.489,
                         
                          251.500 102.331 C 140.950 102.238, 49.269 102.535, 47.764 102.991 M 15.444 155 C 15.444 171.775, 15.581 178.637, 15.748 170.250 C 15.915 161.863,
                           15.915 148.137, 15.748 139.750 C 15.581 131.363, 15.444 138.225, 15.444 155 M 484.478 273.500 C 484.478 319.700, 484.600 338.454,
                            484.750 315.175 C 484.899 291.896, 484.899 254.096, 484.750 231.175 C 484.600 208.254, 484.478 227.300, 484.478 273.500 M 15.478 288.500 C 15.478 335.250,
                             15.600 354.229, 15.750 330.675 C 15.899 307.121, 15.899 268.871, 15.750 245.675 C 15.600 222.479, 15.478 241.750, 15.478 288.500 M 82.079 290.265 C 76.819 292.949,
                              77.316 301.646, 82.861 303.942 C 84.744 304.722, 100.127 304.973, 134.171 304.778 C 180.365 304.514, 182.897 304.405, 184.896 302.595 C 188.053 299.736,
                               187.778 293.757, 184.365 291.073 C 181.781 289.040, 180.795 289, 133.115 289.015 C 96.530 289.026, 83.901 289.335, 82.079 290.265 M 206.337 290.477 C 201.759 293.683,
                                202.694 301.802, 207.888 303.954 C 209.766 304.732, 220.885 304.990, 243.892 304.790 L 277.179 304.500 279.089 302.139 C 281.750 298.852, 281.525 294.434,
                                 278.545 291.455 L 276.091 289 242.268 289 C 214.059 289, 208.095 289.245, 206.337 290.477 M 357.024 290.562 C 349.388 292.671, 344.100 296.016,
                                  338.204 302.467 C 320.705 321.614, 327.087 352.007, 351 363.403 L 357.500 366.500 382.500 366.500 C 406.334 366.500, 407.768 366.392,
                                   413.247 364.179 C 421.274 360.938, 429.171 353.431, 433.226 345.187 C 436.297 338.945, 436.500 337.876, 436.500 327.992 C 436.500 318.122, 436.294 317.034,
                                    433.250 310.854 C 429.268 302.768, 423.112 296.896, 414.180 292.665 L 407.500 289.500 385 289.275 C 367.450 289.100, 361.295 289.383, 
                                    357.024 290.562 M 359.147 306.118 C 357.303 306.664, 353.691 309.223, 351.119 311.805 C 339.393 323.582, 342.382 341.165, 357.500 349.338 C 361.229 351.354,
                                     362.887 351.500, 382 351.500 C 404.562 351.500, 407.743 350.921, 413.645 345.739 C 419.055 340.988, 421.420 335.600,
                                      421.463 327.922 C 421.495 322.308, 421.056 320.626, 418.474 316.448 C 416.600 313.417, 413.584 310.400,
                                       410.556 308.526 L 405.664 305.500 384.082 305.313 C 372.113 305.210, 361.007 305.568, 359.147 306.118 M 81.866 329.511 C 76.891 332.214,
                                        77.354 340.473, 82.615 342.870 C 86.132 344.473, 241.868 344.473, 245.385 342.870 C 250.821 340.394, 251.194 331.922, 245.983 329.286 C 242.069 327.306,
                                         85.530 327.521, 81.866 329.511" stroke="none" fill="#bcc0de" fill-rule="evenodd"/>
                                          <rect class="cls-3" x="32" y="165" width="436" height="30" rx="0" fill="#ffdb00"/>
                                          <rect class="cls-3" x="346" y="305" width="75" height="46" rx="25" fill="#ffdb00"/>
                                          </svg>