<svg xmlns="http://www.w3.org/2000/svg" viewBox="0 0 500 500" width="288" height="288"><path fill="#ffffff" d="M0 0 C1.81465857 -0.02018708 3.62930058 -0.04191233 5.44392395 -0.06504822 C10.34472742 -0.12144976 15.24532847 -0.15162761 20.14639735 -0.17328572 C23.21418444 -0.18728739 26.28191642 -0.20568229 29.34967232 -0.22530937 C38.96583458 -0.28526624 48.58186484 -0.32855354 58.19819444 -0.34852701 C69.2679425 -0.37175889 80.33544027 -0.45082461 91.40447134 -0.57802969 C99.98489042 -0.67320104 108.56467393 -0.71811808 117.14561373 -0.72543138 C122.26081516 -0.7309101 127.37380875 -0.75728929 132.48844719 -0.83635139 C137.30033424 -0.90937934 142.10843444 -0.9196524 146.92069817 -0.88317299 C148.67830345 -0.88037974 150.4361132 -0.89951339 152.19318008 -0.94310379 C166.08507475 -1.26762361 166.08507475 -1.26762361 171.50534248 3.46869087 C174.14994169 6.14017551 176.46900908 8.99608041 178.67891896 12.03336346 C180.4479569 14.45512143 182.38318072 16.73423995 184.30493164 19.03540039 C185.01520508 19.9184082 185.72547852 20.80141602 186.45727539 21.71118164 C192.95686875 29.6644928 199.76611389 37.37844774 206.67993164 44.97290039 C209.44159396 48.01921868 212.07157222 51.11926371 214.61743164 54.34790039 C219.59459544 60.65823306 224.906922 66.66991399 230.18725586 72.72583008 C232.86921588 75.81386425 235.52398527 78.92499679 238.17993164 82.03540039 C241.43270792 85.84282413 244.70726945 89.62313001 248.05493164 93.34790039 C252.49822118 98.31065594 256.68782438 103.47517334 260.86743164 108.66040039 C261.56037197 109.41185428 262.2533123 110.16330816 262.96725082 110.93753338 C265.24231787 114.19759419 265.3619979 115.86526164 265.34844971 119.80439758 C265.35669769 121.6574073 265.35669769 121.6574073 265.3651123 123.54785156 C265.35095767 124.90869532 265.33641846 126.26953513 265.3215332 127.63037109 C265.32040439 129.06951363 265.32103925 130.50865848 265.32330322 131.94779968 C265.32445 135.8484081 265.30094705 139.74852362 265.27300739 143.64901757 C265.24798744 147.72759004 265.24565128 151.80617404 265.24090576 155.8848114 C265.2284777 163.60543463 265.19565848 171.32583107 265.1555078 179.04635447 C265.11078474 187.83708127 265.08880172 196.62781894 265.06872606 205.4186312 C265.02692564 223.49934947 264.95657696 241.57985669 264.86743164 259.66040039 C265.79322021 259.94778076 266.71900879 260.23516113 267.67285156 260.53125 C271.37948718 261.8413906 274.14058797 263.8050844 277.17993164 266.22290039 C277.74317139 266.66400146 278.30641113 267.10510254 278.88671875 267.55957031 C289.32032028 275.87229171 296.78383962 284.82333375 302.86743164 296.66040039 C303.31473633 297.51762695 303.76204102 298.37485352 304.22290039 299.25805664 C314.27579639 319.76596448 315.05051097 344.08768829 307.86743164 365.66040039 C306.44845006 369.49165067 304.79659203 373.06146252 302.86743164 376.66040039 C302.37629883 377.62204102 301.88516602 378.58368164 301.37915039 379.57446289 C291.17902027 398.41670803 273.09911039 413.4858347 252.68774414 420.11352539 C229.7409977 426.56007633 203.29987705 424.32925548 182.42211914 412.79321289 C176.54748845 409.36297591 171.10053429 405.45472092 166.83003902 400.11097527 C162.84769063 395.30034222 159.58573373 392.19837579 153.16976655 391.54435086 C149.3568993 391.36829479 145.56528678 391.41598357 141.75048828 391.49682617 C140.03288612 391.4963321 138.31528037 391.49137255 136.59770203 391.48231506 C132.91498855 391.47242371 129.23429833 391.49385153 125.55186653 391.54016495 C119.72150805 391.61334378 113.89236729 391.61615255 108.06163025 391.6100769 C98.83464227 391.60879408 89.60859324 391.65485702 80.38186496 391.72099483 C63.86994185 391.83828157 47.35781241 391.88442897 30.84550184 391.89908397 C25.05776367 391.9062152 19.27078229 391.93701198 13.48326695 391.98770452 C9.87396723 392.01594649 6.26473139 392.02796603 2.65533638 392.03629875 C0.99090422 392.04370462 -0.67351492 392.05801461 -2.33781815 392.08001518 C-17.30740775 392.27246352 -27.88380781 389.59949262 -38.88256836 378.96899414 C-45.09266737 372.27761245 -48.25043337 364.13190656 -48.26678944 355.06082058 C-48.27124728 353.91360293 -48.27570512 352.76638528 -48.28029805 351.58440346 C-48.28011369 350.32343615 -48.27992933 349.06246884 -48.27973938 347.76329041 C-48.2830393 346.41061741 -48.28676514 345.0579454 -48.29088086 343.70527464 C-48.30089453 339.98442951 -48.30461664 336.2636005 -48.30727017 332.5427438 C-48.31117513 328.530971 -48.32075339 324.51921095 -48.32948303 320.50744629 C-48.34924268 310.81672828 -48.35931332 301.12600924 -48.36821082 291.43527612 C-48.37259481 286.87062836 -48.37796136 282.30598176 -48.38319969 277.74133492 C-48.40021197 262.56522201 -48.41470563 247.38910983 -48.42194843 232.21298885 C-48.4238583 228.27496782 -48.42577863 224.33694679 -48.42773438 220.39892578 C-48.42821812 219.42016094 -48.42870186 218.4413961 -48.42920025 217.43297172 C-48.43749863 201.58146495 -48.4628323 185.73003369 -48.49531505 169.87855988 C-48.52839961 153.60054998 -48.54639848 137.32257844 -48.54959267 121.04453474 C-48.55175655 111.90651839 -48.56048716 102.76861214 -48.58605385 93.63062859 C-48.60777997 85.84738289 -48.61580189 78.06427402 -48.60608707 70.28100144 C-48.6015478 66.31200665 -48.60340655 62.34329408 -48.62284851 58.37433815 C-48.64052028 54.73521328 -48.63945047 51.09657566 -48.62395122 47.45744533 C-48.62046514 45.52914184 -48.63657154 43.60083301 -48.65355569 41.67260116 C-48.56449893 29.57675513 -45.03176566 19.87073494 -37.13256836 10.66040039 C-26.74913618 0.43095979 -13.72514032 0.04566896 0 0 Z M171.86743164 32.66040039 C171.79759592 39.93677599 171.74445139 47.21307807 171.71199512 54.48972225 C171.69640938 57.86940883 171.67530308 61.24886433 171.64111328 64.62841797 C171.60455214 68.52325442 171.58766397 72.41776685 171.57446289 76.31274414 C171.55897903 77.51309799 171.54349518 78.71345184 171.52754211 79.95018005 C171.52588267 88.30261375 172.40396572 94.93000913 177.05493164 101.97290039 C182.57586154 107.24845562 188.92581049 109.79485539 196.54418945 109.77392578 C197.92516815 109.77381248 197.92516815 109.77381248 199.33404541 109.7736969 C200.31959412 109.76853561 201.30514282 109.76337433 202.32055664 109.75805664 C203.84359406 109.75593422 203.84359406 109.75593422 205.3973999 109.75376892 C208.63744056 109.74817555 211.8774119 109.73562424 215.11743164 109.72290039 C217.31534731 109.71788453 219.51326406 109.71332178 221.71118164 109.70922852 C227.09662193 109.69820829 232.48202183 109.68147673 237.86743164 109.66040039 C236.93145776 108.40043464 235.99378396 107.1417316 235.05541992 105.88354492 C234.53344025 105.18246613 234.01146057 104.48138733 233.47366333 103.75906372 C231.02973975 100.5658925 228.39892424 97.55198441 225.74243164 94.53540039 C224.59889607 93.22577204 223.45567424 91.91586968 222.31274414 90.60571289 C221.73943359 89.94990234 221.16612305 89.2940918 220.57543945 88.6184082 C217.90859813 85.56122304 215.2597937 82.48875219 212.61743164 79.41040039 C212.12049805 78.83169189 211.62356445 78.2529834 211.11157227 77.65673828 C208.10090691 74.13779825 205.15433176 70.57446106 202.24243164 66.97290039 C198.44649953 62.29307795 194.43055899 57.85945186 190.35180664 53.42602539 C187.0773158 49.78083747 183.99594647 45.99608272 180.91430664 42.18774414 C178.29336299 38.95157898 175.63423092 35.77304958 172.86743164 32.66040039 C172.53743164 32.66040039 172.20743164 32.66040039 171.86743164 32.66040039 Z M173.99243164 289.41040039 C161.29325673 304.47441234 154.70583104 322.91928987 156.14111328 342.64086914 C157.94237565 361.43351387 167.08956346 378.95779073 181.69165039 391.00805664 C197.75979926 403.21061853 215.84573311 408.35682766 235.90063477 405.94946289 C256.24490025 402.95944175 271.52312995 391.30019947 283.89868164 375.53930664 C294.30246634 360.32583576 297.36008658 342.30975031 294.59008789 324.33227539 C290.7923083 305.03544937 279.99381278 290.14642549 264.49243164 278.37133789 C235.21396931 259.28805441 197.86584588 264.46864059 173.99243164 289.41040039 Z " transform="translate(118.133 38.34)" class="color4EC2F8 svgShape"></path><path fill="#408469" d="M0 0 C1.81465857 -0.02018708 3.62930058 -0.04191233 5.44392395 -0.06504822 C10.34472742 -0.12144976 15.24532847 -0.15162761 20.14639735 -0.17328572 C23.21418444 -0.18728739 26.28191642 -0.20568229 29.34967232 -0.22530937 C38.96583458 -0.28526624 48.58186484 -0.32855354 58.19819444 -0.34852701 C69.2679425 -0.37175889 80.33544027 -0.45082461 91.40447134 -0.57802969 C99.98489042 -0.67320104 108.56467393 -0.71811808 117.14561373 -0.72543138 C122.26081516 -0.7309101 127.37380875 -0.75728929 132.48844719 -0.83635139 C137.30033424 -0.90937934 142.10843444 -0.9196524 146.92069817 -0.88317299 C148.67830345 -0.88037974 150.4361132 -0.89951339 152.19318008 -0.94310379 C166.08507475 -1.26762361 166.08507475 -1.26762361 171.50534248 3.46869087 C174.14994169 6.14017551 176.46900908 8.99608041 178.67891896 12.03336346 C180.4479569 14.45512143 182.38318072 16.73423995 184.30493164 19.03540039 C185.01520508 19.9184082 185.72547852 20.80141602 186.45727539 21.71118164 C192.95686875 29.6644928 199.76611389 37.37844774 206.67993164 44.97290039 C209.44159396 48.01921868 212.07157222 51.11926371 214.61743164 54.34790039 C219.59459544 60.65823306 224.906922 66.66991399 230.18725586 72.72583008 C232.86921588 75.81386425 235.52398527 78.92499679 238.17993164 82.03540039 C241.43270792 85.84282413 244.70726945 89.62313001 248.05493164 93.34790039 C252.49822118 98.31065594 256.68782438 103.47517334 260.86743164 108.66040039 C261.56037197 109.41185428 262.2533123 110.16330816 262.96725082 110.93753338 C265.24231787 114.19759419 265.3619979 115.86526164 265.34844971 119.80439758 C265.35669769 121.6574073 265.35669769 121.6574073 265.3651123 123.54785156 C265.35095767 124.90869532 265.33641846 126.26953513 265.3215332 127.63037109 C265.32040439 129.06951363 265.32103925 130.50865848 265.32330322 131.94779968 C265.32445 135.8484081 265.30094705 139.74852362 265.27300739 143.64901757 C265.24798744 147.72759004 265.24565128 151.80617404 265.24090576 155.8848114 C265.2284777 163.60543463 265.19565848 171.32583107 265.1555078 179.04635447 C265.11078474 187.83708127 265.08880172 196.62781894 265.06872606 205.4186312 C265.02692564 223.49934947 264.95657696 241.57985669 264.86743164 259.66040039 C265.79322021 259.94778076 266.71900879 260.23516113 267.67285156 260.53125 C271.37948718 261.8413906 274.14058797 263.8050844 277.17993164 266.22290039 C277.74317139 266.66400146 278.30641113 267.10510254 278.88671875 267.55957031 C289.32032028 275.87229171 296.78383962 284.82333375 302.86743164 296.66040039 C303.31473633 297.51762695 303.76204102 298.37485352 304.22290039 299.25805664 C314.27579639 319.76596448 315.05051097 344.08768829 307.86743164 365.66040039 C306.44845006 369.49165067 304.79659203 373.06146252 302.86743164 376.66040039 C302.37629883 377.62204102 301.88516602 378.58368164 301.37915039 379.57446289 C291.17902027 398.41670803 273.09911039 413.4858347 252.68774414 420.11352539 C229.7409977 426.56007633 203.29987705 424.32925548 182.42211914 412.79321289 C176.54748845 409.36297591 171.10053429 405.45472092 166.83003902 400.11097527 C162.84769063 395.30034222 159.58573373 392.19837579 153.16976655 391.54435086 C149.3568993 391.36829479 145.56528678 391.41598357 141.75048828 391.49682617 C140.03288612 391.4963321 138.31528037 391.49137255 136.59770203 391.48231506 C132.91498855 391.47242371 129.23429833 391.49385153 125.55186653 391.54016495 C119.72150805 391.61334378 113.89236729 391.61615255 108.06163025 391.6100769 C98.83464227 391.60879408 89.60859324 391.65485702 80.38186496 391.72099483 C63.86994185 391.83828157 47.35781241 391.88442897 30.84550184 391.89908397 C25.05776367 391.9062152 19.27078229 391.93701198 13.48326695 391.98770452 C9.87396723 392.01594649 6.26473139 392.02796603 2.65533638 392.03629875 C0.99090422 392.04370462 -0.67351492 392.05801461 -2.33781815 392.08001518 C-17.30740775 392.27246352 -27.88380781 389.59949262 -38.88256836 378.96899414 C-45.09266737 372.27761245 -48.25043337 364.13190656 -48.26678944 355.06082058 C-48.27124728 353.91360293 -48.27570512 352.76638528 -48.28029805 351.58440346 C-48.28011369 350.32343615 -48.27992933 349.06246884 -48.27973938 347.76329041 C-48.2830393 346.41061741 -48.28676514 345.0579454 -48.29088086 343.70527464 C-48.30089453 339.98442951 -48.30461664 336.2636005 -48.30727017 332.5427438 C-48.31117513 328.530971 -48.32075339 324.51921095 -48.32948303 320.50744629 C-48.34924268 310.81672828 -48.35931332 301.12600924 -48.36821082 291.43527612 C-48.37259481 286.87062836 -48.37796136 282.30598176 -48.38319969 277.74133492 C-48.40021197 262.56522201 -48.41470563 247.38910983 -48.42194843 232.21298885 C-48.4238583 228.27496782 -48.42577863 224.33694679 -48.42773438 220.39892578 C-48.42821812 219.42016094 -48.42870186 218.4413961 -48.42920025 217.43297172 C-48.43749863 201.58146495 -48.4628323 185.73003369 -48.49531505 169.87855988 C-48.52839961 153.60054998 -48.54639848 137.32257844 -48.54959267 121.04453474 C-48.55175655 111.90651839 -48.56048716 102.76861214 -48.58605385 93.63062859 C-48.60777997 85.84738289 -48.61580189 78.06427402 -48.60608707 70.28100144 C-48.6015478 66.31200665 -48.60340655 62.34329408 -48.62284851 58.37433815 C-48.64052028 54.73521328 -48.63945047 51.09657566 -48.62395122 47.45744533 C-48.62046514 45.52914184 -48.63657154 43.60083301 -48.65355569 41.67260116 C-48.56449893 29.57675513 -45.03176566 19.87073494 -37.13256836 10.66040039 C-26.74913618 0.43095979 -13.72514032 0.04566896 0 0 Z M-25.94506836 22.91040039 C-26.48776367 23.45180664 -27.03045898 23.99321289 -27.58959961 24.55102539 C-32.74232373 31.59525583 -32.56160423 38.23847576 -32.52024841 46.70394897 C-32.52563395 48.02256727 -32.53101949 49.34118556 -32.53656822 50.69976199 C-32.55100638 54.34935061 -32.54678328 57.99871309 -32.53940141 61.648314 C-32.53466796 65.58843505 -32.54718119 69.5285073 -32.55741882 73.46861267 C-32.57460898 81.18370565 -32.57544635 88.89871719 -32.57020592 96.61382435 C-32.56616321 102.88551884 -32.56760898 109.15718926 -32.57295418 115.4288826 C-32.5737026 116.32177734 -32.57445102 117.21467209 -32.57522212 118.13462425 C-32.57675361 119.94859294 -32.57829196 121.76256162 -32.57983709 123.57653029 C-32.59356304 140.5852386 -32.58812389 157.5939009 -32.57665188 174.60260816 C-32.5667205 190.15782474 -32.57965835 205.71292235 -32.60358607 221.26812057 C-32.62797797 237.24564336 -32.63758465 253.22311073 -32.63093334 269.20065176 C-32.62744119 278.16863758 -32.62967292 287.13653191 -32.64718437 296.10450363 C-32.66190753 303.73916305 -32.66254038 311.37366657 -32.64511346 319.00832294 C-32.63660178 322.90214656 -32.63445779 326.79569172 -32.64976501 330.68950081 C-32.6636175 334.25749008 -32.65884233 337.82496247 -32.63952578 341.39292188 C-32.63399318 343.28775157 -32.64803278 345.18260761 -32.66287988 347.07738721 C-32.57864895 356.85059322 -30.17733547 363.55638357 -24.08569336 371.15258789 C-16.51598201 376.99640506 -7.30684786 376.06783913 1.73852539 376.00097656 C3.34559615 376.0001294 4.95266807 376.00060716 6.55973816 376.00230408 C10.90426996 376.003162 15.2485514 375.98556932 19.59302521 375.9645822 C24.14004739 375.94578139 28.68707581 375.94406228 33.23413086 375.94050598 C41.83645802 375.9311955 50.4386703 375.90659525 59.04094696 375.87645751 C68.83778597 375.84288242 78.63463058 375.82641968 88.43151283 375.81137121 C108.57688313 375.78004479 128.72215014 375.72730372 148.86743164 375.66040039 C148.55721069 374.70786377 148.55721069 374.70786377 148.24072266 373.73608398 C147.29938651 370.83726561 146.36460806 367.93637259 145.42993164 365.03540039 C145.10444336 364.03637695 144.77895508 363.03735352 144.44360352 362.00805664 C137.70007451 341.01273952 139.73263803 317.50573562 149.11743164 297.53540039 C151.6814784 292.63236427 154.92777134 288.28982895 158.29321289 283.91040039 C160.0585221 281.84494972 160.0585221 281.84494972 159.86743164 279.66040039 C160.52743164 279.66040039 161.18743164 279.66040039 161.86743164 279.66040039 C161.86743164 279.00040039 161.86743164 278.34040039 161.86743164 277.66040039 C162.85743164 277.33040039 163.84743164 277.00040039 164.86743164 276.66040039 C164.86743164 276.00040039 164.86743164 275.34040039 164.86743164 274.66040039 C165.85743164 274.33040039 166.84743164 274.00040039 167.86743164 273.66040039 C167.86743164 273.00040039 167.86743164 272.34040039 167.86743164 271.66040039 C168.58930664 271.41290039 169.31118164 271.16540039 170.05493164 270.91040039 C172.89352969 269.791221 172.89352969 269.791221 175.05493164 267.91040039 C189.74611461 256.15745401 207.29380458 251.58699363 225.80493164 251.41040039 C226.60318359 251.40089355 227.40143555 251.39138672 228.22387695 251.3815918 C235.40388644 251.42069229 241.55690111 252.53570339 248.86743164 253.66040039 C248.86743164 211.42040039 248.86743164 169.18040039 248.86743164 125.66040039 C218.67243164 125.16540039 218.67243164 125.16540039 187.86743164 124.66040039 C175.23136475 120.86958032 167.33310627 116.30213512 160.55493164 104.97290039 C159.25842284 102.42790164 158.31347449 100.44816821 157.86743164 97.66040039 C157.20743164 97.66040039 156.54743164 97.66040039 155.86743164 97.66040039 C155.53743164 70.93040039 155.20743164 44.20040039 154.86743164 16.66040039 C125.02564665 16.57299607 125.02564665 16.57299607 95.18383789 16.51391602 C83.01436572 16.49611549 70.84495586 16.4751898 58.67553711 16.43408203 C49.81259393 16.40415769 40.94970132 16.38482016 32.08670902 16.37813491 C27.39487002 16.3742278 22.70317565 16.36506048 18.01138306 16.34321022 C13.59224736 16.32279715 9.17331541 16.31657633 4.75413704 16.32107735 C3.13525344 16.3202543 1.51636279 16.31431739 -0.10247993 16.30278397 C-14.2039843 15.92796397 -14.2039843 15.92796397 -25.94506836 22.91040039 Z M171.86743164 32.66040039 C171.79759592 39.93677599 171.74445139 47.21307807 171.71199512 54.48972225 C171.69640938 57.86940883 171.67530308 61.24886433 171.64111328 64.62841797 C171.60455214 68.52325442 171.58766397 72.41776685 171.57446289 76.31274414 C171.55897903 77.51309799 171.54349518 78.71345184 171.52754211 79.95018005 C171.52588267 88.30261375 172.40396572 94.93000913 177.05493164 101.97290039 C182.57586154 107.24845562 188.92581049 109.79485539 196.54418945 109.77392578 C197.92516815 109.77381248 197.92516815 109.77381248 199.33404541 109.7736969 C200.31959412 109.76853561 201.30514282 109.76337433 202.32055664 109.75805664 C203.84359406 109.75593422 203.84359406 109.75593422 205.3973999 109.75376892 C208.63744056 109.74817555 211.8774119 109.73562424 215.11743164 109.72290039 C217.31534731 109.71788453 219.51326406 109.71332178 221.71118164 109.70922852 C227.09662193 109.69820829 232.48202183 109.68147673 237.86743164 109.66040039 C236.93145776 108.40043464 235.99378396 107.1417316 235.05541992 105.88354492 C234.53344025 105.18246613 234.01146057 104.48138733 233.47366333 103.75906372 C231.02973975 100.5658925 228.39892424 97.55198441 225.74243164 94.53540039 C224.59889607 93.22577204 223.45567424 91.91586968 222.31274414 90.60571289 C221.73943359 89.94990234 221.16612305 89.2940918 220.57543945 88.6184082 C217.90859813 85.56122304 215.2597937 82.48875219 212.61743164 79.41040039 C212.12049805 78.83169189 211.62356445 78.2529834 211.11157227 77.65673828 C208.10090691 74.13779825 205.15433176 70.57446106 202.24243164 66.97290039 C198.44649953 62.29307795 194.43055899 57.85945186 190.35180664 53.42602539 C187.0773158 49.78083747 183.99594647 45.99608272 180.91430664 42.18774414 C178.29336299 38.95157898 175.63423092 35.77304958 172.86743164 32.66040039 C172.53743164 32.66040039 172.20743164 32.66040039 171.86743164 32.66040039 Z M173.99243164 289.41040039 C161.29325673 304.47441234 154.70583104 322.91928987 156.14111328 342.64086914 C157.94237565 361.43351387 167.08956346 378.95779073 181.69165039 391.00805664 C197.75979926 403.21061853 215.84573311 408.35682766 235.90063477 405.94946289 C256.24490025 402.95944175 271.52312995 391.30019947 283.89868164 375.53930664 C294.30246634 360.32583576 297.36008658 342.30975031 294.59008789 324.33227539 C290.7923083 305.03544937 279.99381278 290.14642549 264.49243164 278.37133789 C235.21396931 259.28805441 197.86584588 264.46864059 173.99243164 289.41040039 Z " transform="translate(118.133 38.34)" class="color047CBD svgShape"></path><path fill="#408469" d="M0 0 C0.71944951 -0.0055344 1.43889902 -0.01106879 2.18015003 -0.0167709 C4.58554167 -0.03036006 6.98989254 -0.01541857 9.39526367 -0.00050354 C11.12186117 -0.00428737 12.84845563 -0.00978793 14.57504272 -0.01687622 C19.26101239 -0.03083984 23.94661525 -0.01965471 28.63256454 -0.00316501 C33.53629597 0.01068396 38.44000607 0.00422559 43.34375 0.0007019 C51.5787548 -0.00200034 59.81361386 0.01147661 68.04858398 0.03465271 C77.56953395 0.06126252 87.09024023 0.06300959 96.61121464 0.05126435 C105.76984335 0.04048533 114.9283839 0.04667462 124.08700562 0.06081963 C127.98483361 0.06657835 131.88259708 0.06649763 135.78042603 0.06175423 C140.37039218 0.05698209 144.96009147 0.06709595 149.55000687 0.08870888 C151.23463669 0.09427369 152.91929217 0.09474484 154.6039238 0.08975601 C156.90340032 0.08380036 159.20206174 0.09631289 161.50146484 0.11352539 C162.78824631 0.11595529 164.07502777 0.11838518 165.40080261 0.12088871 C169.29007737 0.56243715 171.96377488 1.7142479 174.75073242 4.50120544 C174.89188403 7.17179395 174.7932035 9.82552782 174.75073242 12.50120544 C174.09073242 12.50120544 173.43073242 12.50120544 172.75073242 12.50120544 C172.09073242 13.82120544 171.43073242 15.14120544 170.75073242 16.50120544 C147.61151957 16.57123969 124.47232416 16.62416622 101.33302689 16.65664196 C90.58941356 16.67212079 79.84586602 16.69322971 69.10229492 16.7275238 C59.73984698 16.75739507 50.37744669 16.77677306 41.01495242 16.78347093 C36.05608394 16.78738704 31.09735177 16.79661153 26.13852692 16.81839561 C21.47317375 16.83872486 16.80801334 16.84504647 12.14262009 16.84052849 C10.42852863 16.84135529 8.71443087 16.84734213 7.00037766 16.85882187 C4.66311973 16.87371048 2.32659309 16.87017269 -0.01068115 16.86196899 C-1.97410021 16.86611706 -1.97410021 16.86611706 -3.9771843 16.87034893 C-7.43617319 16.48011949 -8.82520311 15.94555322 -11.24926758 13.50120544 C-12.03442383 11.38011169 -12.03442383 11.38011169 -12.31176758 9.06370544 C-12.42649414 8.30186951 -12.5412207 7.54003357 -12.65942383 6.75511169 C-12.24926758 4.50120544 -12.24926758 4.50120544 -10.17671204 2.39166164 C-6.51603519 0.02770586 -4.33910325 0.00070572 0 0 Z " transform="translate(145.25 241.499)" class="color027CBE svgShape"></path><path fill="#408469" d="M0 0 C0.72353306 -0.00623996 1.44706613 -0.01247993 2.19252443 -0.01890898 C4.61171548 -0.03483633 7.02989855 -0.02223651 9.44909668 -0.00964355 C11.18554776 -0.01506482 12.92199424 -0.0221875 14.65843201 -0.03088379 C19.37124597 -0.04911966 24.08370968 -0.04204854 28.79652977 -0.02936745 C33.72829508 -0.01924116 38.66003039 -0.0286321 43.59179688 -0.03491211 C51.87387476 -0.04218959 60.15580998 -0.03259815 68.43786621 -0.0135498 C78.01339098 0.00821912 87.58857508 0.00116782 97.16409159 -0.02085543 C105.38503896 -0.03900654 113.60588376 -0.04156916 121.82684469 -0.03110075 C126.73704201 -0.02486424 131.6470792 -0.02403454 136.55726624 -0.0372467 C141.17355359 -0.04880037 145.78940167 -0.04078837 150.40564156 -0.01766968 C152.09994846 -0.01237999 153.79429232 -0.01390082 155.48858452 -0.02272034 C157.80140131 -0.03364968 160.11281008 -0.01994564 162.42553711 0 C163.71969292 0.0015081 165.01384872 0.0030162 166.34722137 0.00457001 C170.30012371 0.59578173 171.97162439 1.63590748 174.71276855 4.50793457 C175.33776855 7.94543457 175.33776855 7.94543457 174.71276855 11.50793457 C172.0868018 14.88927673 170.60320234 16.34146357 166.34722137 17.13714027 C164.40598766 17.13996797 164.40598766 17.13996797 162.42553711 17.14285278 C161.70200405 17.15065274 160.97847098 17.15845269 160.23301268 17.16648901 C157.81363405 17.18639974 155.39583012 17.17064967 152.97644043 17.15490723 C151.23998599 17.16168382 149.50353874 17.17058718 147.7671051 17.18145752 C143.05422663 17.20425267 138.34189539 17.19541369 133.62900734 17.17956209 C128.69723662 17.16690421 123.76551279 17.17864289 118.83374023 17.18649292 C110.55163153 17.19558981 102.26974576 17.18360053 93.9876709 17.15979004 C84.41208071 17.1325787 74.83702281 17.14139283 65.26144552 17.16892207 C57.04048147 17.191611 48.81967767 17.19481427 40.59869242 17.18172872 C35.68846314 17.17393303 30.77848408 17.17289587 25.86827087 17.18941116 C21.25189227 17.20385353 16.6362 17.19383865 12.01989555 17.16493988 C10.32559283 17.15832779 8.63123235 17.16022889 6.93695259 17.1712532 C4.62385514 17.18491654 2.3129572 17.16778731 0 17.14285278 C-1.29415581 17.14096766 -2.58831161 17.13908253 -3.92168427 17.13714027 C-8.17766523 16.34146357 -9.6612647 14.88927673 -12.28723145 11.50793457 C-12.91223145 7.94543457 -12.91223145 7.94543457 -12.28723145 4.50793457 C-8.40049286 0.43561373 -5.51747938 0.00642962 0 0 Z " transform="translate(145.287 194.492)" class="color027DBE svgShape"></path><path fill="#408469" d="M0 0 C3.87266682 0.70998892 4.65334259 1.16027968 7.421875 3.6796875 C8.11893555 4.31334229 8.81599609 4.94699707 9.53417969 5.59985352 C13.33072924 9.17679217 17.06008607 12.81328357 20.75 16.5 C21.52472656 17.26248047 22.29945313 18.02496094 23.09765625 18.81054688 C23.82855469 19.53951172 24.55945313 20.26847656 25.3125 21.01953125 C25.97378906 21.67671143 26.63507813 22.3338916 27.31640625 23.01098633 C28.75 24.6875 28.75 24.6875 28.75 26.6875 C29.41 26.6875 30.07 26.6875 30.75 26.6875 C32.08743169 32.88831967 32.08743169 32.88831967 30.5625 36.5 C28.60980888 38.85669618 27.69024566 39.87076509 24.75 40.6875 C20.85394175 40.83734839 18.59619318 40.43118939 15.63378906 37.82763672 C14.93479492 37.09818848 14.23580078 36.36874023 13.515625 35.6171875 C12.80696289 34.88483887 12.09830078 34.15249023 11.36816406 33.39794922 C10.83416992 32.83350098 10.30017578 32.26905273 9.75 31.6875 C9.74589111 32.99420654 9.74178223 34.30091309 9.73754883 35.6472168 C9.71575196 40.50243395 9.66145598 45.35684134 9.59741211 50.21166992 C9.57423704 52.31152578 9.55983756 54.4114978 9.55444336 56.51147461 C9.54515037 59.53312525 9.50415154 62.55295017 9.45703125 65.57421875 C9.46293022 66.97917854 9.46293022 66.97917854 9.46894836 68.41252136 C9.36757568 72.95672529 9.22576425 75.05469609 6.42456055 78.78051758 C3.75 80.6875 3.75 80.6875 0.25 81.3125 C-4.29483916 80.50092158 -5.48184531 79.36936371 -8.25 75.6875 C-8.98896215 72.31810201 -8.97147257 69.01371136 -8.95703125 65.57421875 C-8.97971321 64.11989189 -8.97971321 64.11989189 -9.00285339 62.63618469 C-9.04573491 59.54888663 -9.05456899 56.46256622 -9.0625 53.375 C-9.0856439 51.27796879 -9.11100901 49.18096084 -9.13867188 47.08398438 C-9.20152905 41.95173647 -9.23386075 36.82009887 -9.25 31.6875 C-9.63671875 32.16960937 -10.0234375 32.65171875 -10.421875 33.1484375 C-10.94265625 33.78007812 -11.4634375 34.41171875 -12 35.0625 C-12.51046875 35.68898438 -13.0209375 36.31546875 -13.546875 36.9609375 C-15.37523197 38.81445535 -16.82437406 39.76143738 -19.25 40.6875 C-23.45842764 40.61234951 -25.52350128 40.33948603 -28.6875 37.5 C-30.6302852 34.00298664 -31.09945396 32.62587743 -30.25 28.6875 C-25.86026426 22.75465111 -20.30070734 17.61176678 -15.0625 12.4375 C-14.01545898 11.39722656 -14.01545898 11.39722656 -12.94726562 10.3359375 C-11.61905956 9.01657772 -10.28832958 7.69975186 -8.95458984 6.38598633 C-7.59699064 5.03324819 -6.27450015 3.6452993 -4.96484375 2.24609375 C-3.25 0.6875 -3.25 0.6875 0 0 Z " transform="translate(343.25 334.313)" class="color087EBD svgShape"></path><path fill="#408469" d="M0 0 C1.23004509 -0.00087616 1.23004509 -0.00087616 2.48493958 -0.00177002 C5.18530155 0.00100839 7.88454856 0.03208812 10.5847168 0.06347656 C12.46086524 0.07093983 14.3370215 0.07663236 16.21318054 0.08062744 C21.14366293 0.09587699 26.07367164 0.13515299 31.00396729 0.17944336 C36.03798007 0.22041069 41.07206962 0.23864158 46.10620117 0.25878906 C55.97815372 0.30164786 65.8497552 0.36989103 75.72143555 0.45410156 C75.72143555 1.11410156 75.72143555 1.77410156 75.72143555 2.45410156 C77.04143555 3.11410156 78.36143555 3.77410156 79.72143555 4.45410156 C80.20955177 11.77584498 80.20955177 11.77584498 78.20910645 14.55554199 C74.76918737 17.18084556 71.68389851 17.01514605 67.52807617 16.97167969 C66.29325752 16.9821936 66.29325752 16.9821936 65.03349304 16.99291992 C62.31454658 17.01051347 59.59664244 16.99887267 56.87768555 16.98535156 C54.98726197 16.98804609 53.09683973 16.99192819 51.2064209 16.99694824 C47.24530842 17.00284512 43.28455685 16.99427423 39.32348633 16.97558594 C34.24555993 16.95279626 29.16847917 16.96591833 24.0905838 16.98987579 C20.18721137 17.00432864 16.28403948 16.99973014 12.38066101 16.98936462 C10.50835571 16.98669592 8.63603222 16.98997215 6.76374817 16.99928284 C4.14693969 17.00944006 1.53150132 16.99395975 -1.08520508 16.97167969 C-1.85935257 16.97977661 -2.63350006 16.98787354 -3.43110657 16.99621582 C-6.97251047 16.94034316 -8.90975617 16.73812884 -11.75524902 14.54675293 C-13.39666969 12.29185474 -13.84645291 11.21299131 -13.84106445 8.45410156 C-13.86297852 7.79410156 -13.88489258 7.13410156 -13.9074707 6.45410156 C-11.89300995 0.04786613 -5.7140659 -0.10706985 0 0 Z " transform="translate(146.279 147.546)" class="color037DBE svgShape"></path><path fill="#27b87e" d="M0 0 C5.28115644 0.96821201 8.15422634 3.82720966 11.75 7.6875 C12.41 8.6775 13.07 9.6675 13.75 10.6875 C11.77 10.3575 9.79 10.0275 7.75 9.6875 C7.255 7.7075 7.255 7.7075 6.75 5.6875 C3.03400809 5.48663557 1.97791555 5.5355563 -1.25 7.6875 C-1.58 6.3675 -1.91 5.0475 -2.25 3.6875 C-6.67900174 7.41775146 -10.79714985 11.00148908 -14.25 15.6875 C-15.53667172 17.39044787 -16.86096733 19.06696188 -18.25 20.6875 C-18.91 20.6875 -19.57 20.6875 -20.25 20.6875 C-20.4975 21.285625 -20.745 21.88375 -21 22.5 C-22.43072525 25.00376919 -23.8191582 26.16822388 -26.25 27.6875 C-26.91 27.6875 -27.57 27.6875 -28.25 27.6875 C-28.25 30.3275 -28.25 32.9675 -28.25 35.6875 C-27.26 34.6975 -26.27 33.7075 -25.25 32.6875 C-25.25 34.3375 -25.25 35.9875 -25.25 37.6875 C-19.805 37.1925 -19.805 37.1925 -14.25 36.6875 C-17.80699246 40.24449246 -19.30041406 40.60216231 -24.25 40.6875 C-27.05189446 38.92108828 -28.76524911 37.65700178 -30.25 34.6875 C-30.75 32.0625 -30.75 32.0625 -30.25 28.6875 C-25.94120636 22.72047612 -20.28532755 17.59657473 -15.0625 12.4375 C-14.01545898 11.39722656 -14.01545898 11.39722656 -12.94726562 10.3359375 C-11.61905956 9.01657772 -10.28832958 7.69975186 -8.95458984 6.38598633 C-7.59699064 5.03324819 -6.27450015 3.6452993 -4.96484375 2.24609375 C-3.25 0.6875 -3.25 0.6875 0 0 Z " transform="translate(343.25 334.313)" class="color2788B8 svgShape"></path><path fill="#45ad82" d="M0 0 C2 3 2 3 2 6 C2.66 6 3.32 6 4 6 C4.05834421 10.52077862 4.09371252 15.04145953 4.125 19.5625 C4.14175781 20.83931641 4.15851563 22.11613281 4.17578125 23.43164062 C4.20811155 29.65522259 4.23461206 35.14953928 2 41 C1.34 41 0.68 41 0 41 C0.061875 41.928125 0.12375 42.85625 0.1875 43.8125 C0 47 0 47 -1.5 48.875 C-1.995 49.24625 -2.49 49.6175 -3 50 C-4 48 -4 48 -3.29296875 45.77734375 C-2.74576172 44.37162109 -2.74576172 44.37162109 -2.1875 42.9375 C2.75999717 28.45702049 2.1299881 14.92630124 0 0 Z " transform="translate(411 355)" class="color2380B1 svgShape"></path><path fill="#4dc191" d="M0 0 C-1.25 1.5 -1.25 1.5 -3 3 C-4.32 3 -5.64 3 -7 3 C-7 3.66 -7 4.32 -7 5 C-8.65002828 6.35386936 -10.3174387 7.68678142 -12 9 C-12.33 9.66 -12.66 10.32 -13 11 C-13.99 11.33 -14.98 11.66 -16 12 C-17.05771739 13.63064764 -18.05273046 15.30280873 -19 17 C-20.5625 19.3125 -20.5625 19.3125 -22 21 C-22.66 21 -23.32 21 -24 21 C-21.73709359 11.94837435 -15.68776854 5.88655733 -8 1 C-4.83177843 -0.79022185 -3.49113384 -1.24683351 0 0 Z " transform="translate(97 42)" class="color2184B6 svgShape"></path><path fill="#33bd86" d="M0 0 C0.33 0 0.66 0 1 0 C4.43152098 15.31491095 2.57667728 32.14623045 -2 47 C-2.33 47 -2.66 47 -3 47 C-3.05437607 45.41705218 -3.09296271 43.83355744 -3.125 42.25 C-3.14820313 41.36828125 -3.17140625 40.4865625 -3.1953125 39.578125 C-3 37 -3 37 -2.01367188 35.21923828 C-0.71080125 32.36685533 -0.67769636 30.04468644 -0.5859375 26.9140625 C-0.54726563 25.73585938 -0.50859375 24.55765625 -0.46875 23.34375 C-0.4378125 22.1165625 -0.406875 20.889375 -0.375 19.625 C-0.33632813 18.40554688 -0.29765625 17.18609375 -0.2578125 15.9296875 C-0.0954349 10.6176202 0.01894222 5.31478889 0 0 Z " transform="translate(428 357)" class="color338FBD svgShape"></path><path fill="#4abb8b" d="M0 0 C1.12792969 0.22816406 2.25585938 0.45632813 3.41796875 0.69140625 C13.59435245 2.5981806 22.98439783 3.19540677 33.3190918 2.33227539 C34.58619995 2.23160767 34.58619995 2.23160767 35.87890625 2.12890625 C37.00147827 2.02171265 37.00147827 2.02171265 38.14672852 1.91235352 C40 2 40 2 42 4 C35.81691979 5.09419678 29.76907488 5.14908095 23.5 5.125 C21.98986328 5.13080078 21.98986328 5.13080078 20.44921875 5.13671875 C5.66133909 5.11733752 5.66133909 5.11733752 0 1 C0 0.67 0 0.34 0 0 Z " transform="translate(321 441)" class="color2584B9 svgShape"></path><path fill="#30c086" d="M0 0 C1.5149707 -0.00870117 1.5149707 -0.00870117 3.06054688 -0.01757812 C4.12337891 -0.00404297 5.18621094 0.00949219 6.28125 0.0234375 C7.89870117 0.03213867 7.89870117 0.03213867 9.54882812 0.04101562 C17.00649851 0.16268155 23.73362017 0.8019423 30.78125 3.3984375 C30.78125 4.0584375 30.78125 4.7184375 30.78125 5.3984375 C30.1728125 5.26566406 29.564375 5.13289063 28.9375 4.99609375 C16.18072541 2.42597887 3.7019859 1.9603419 -9.21875 3.3984375 C-6.09919077 0.64925768 -4.13451909 0.01540541 0 0 Z " transform="translate(336.219 303.602)" class="color308DC0 svgShape"></path><path fill="#2ac184" d="M0 0 C0 0.99 0 1.98 0 3 C2.94729537 4.15811388 2.94729537 4.15811388 6 4 C5.67 4.99 5.34 5.98 5 7 C5.66 7 6.32 7 7 7 C7 6.34 7 5.68 7 5 C7.66 5.33 8.32 5.66 9 6 C10.26229508 10.47540984 10.26229508 10.47540984 9 13 C6.0991395 12.64701919 5.10483324 12.11271704 3.078125 9.93359375 C2.47484375 9.10988281 1.8715625 8.28617188 1.25 7.4375 C0.63640625 6.61121094 0.0228125 5.78492187 -0.609375 4.93359375 C-1.06828125 4.29550781 -1.5271875 3.65742187 -2 3 C-2.99 3.66 -3.98 4.32 -5 5 C-4.625 3.0625 -4.625 3.0625 -4 1 C-2 0 -2 0 0 0 Z " transform="translate(293 69)" class="color2A8CC1 svgShape"></path><path fill="#3ec38e" d="M0 0 C0.33 0 0.66 0 1 0 C1.24234375 0.9178125 1.4846875 1.835625 1.734375 2.78125 C3.91495863 10.95839691 3.91495863 10.95839691 7.3125 18.6875 C8.1478125 20.3271875 8.1478125 20.3271875 9 22 C8.67 22.99 8.34 23.98 8 25 C7.01 24.67 6.02 24.34 5 24 C4.87625 23.05125 4.7525 22.1025 4.625 21.125 C4.28312823 17.91332809 4.28312823 17.91332809 2 16 C1.875 13.375 1.875 13.375 2 11 C1.34 11 0.68 11 0 11 C0 7.37 0 3.74 0 0 Z " transform="translate(275 387)" class="color3E96C3 svgShape"></path><path fill="#34b581" d="M0 0 C0.33 0 0.66 0 1 0 C1.11381955 6.76594019 0.88021369 13.28837062 0 20 C-0.66 20 -1.32 20 -2 20 C-1.938125 20.928125 -1.87625 21.85625 -1.8125 22.8125 C-2 26 -2 26 -3.5 27.875 C-4.2425 28.431875 -4.2425 28.431875 -5 29 C-6 27 -6 27 -5.29296875 24.70703125 C-4.74576172 23.27423828 -4.74576172 23.27423828 -4.1875 21.8125 C-1.65782261 14.60860904 -0.78533923 7.56405683 0 0 Z " transform="translate(413 376)" class="color3489B5 svgShape"></path><path fill="#17b978" d="M0 0 C2.73296087 2.6317401 5.06719725 5.32053087 7.3125 8.375 C10.50030214 12.5495028 13.89683405 15.73421485 18 19 C17.34 19.66 16.68 20.32 16 21 C16 20.34 16 19.68 16 19 C15.13375 18.61908203 15.13375 18.61908203 14.25 18.23046875 C7.79632902 14.70111743 3.13067225 8.52223385 0 2 C0 1.34 0 0.68 0 0 Z " transform="translate(284 411)" class="color2F89B4 svgShape"></path><path fill="#3cbf8a" d="M0 0 C0.99 0 1.98 0 3 0 C3.33 1.32 3.66 2.64 4 4 C4.99 3.67 5.98 3.34 7 3 C7.66 5.31 8.32 7.62 9 10 C9.66 10 10.32 10 11 10 C11.33 11.65 11.66 13.3 12 15 C8.94433539 12.03693129 6.02864172 8.98279839 3.1875 5.8125 C2.58292969 5.13832031 1.97835938 4.46414062 1.35546875 3.76953125 C0 2 0 2 0 0 Z " transform="translate(324 109)" class="color3C96BF svgShape"></path><path fill="#2bba81" d="M0 0 C0.99 0.33 1.98 0.66 3 1 C4.56659619 7.02536998 4.56659619 7.02536998 2.953125 9.80078125 C1.70838944 11.26579304 0.35934288 12.64065712 -1 14 C-1.66 13.67 -2.32 13.34 -3 13 C-2.67 12.01 -2.34 11.02 -2 10 C-1.34 10 -0.68 10 0 10 C0.08226668 6.95613276 -0.02391783 4.92824652 -1 2 C-0.67 1.34 -0.34 0.68 0 0 Z " transform="translate(411 418)" class="color2B8ABA svgShape"></path><path fill="#4dc191" d="M0 0 C0.99 0.66 1.98 1.32 3 2 C-0.3 4.97 -3.6 7.94 -7 11 C-7.66 10.01 -8.32 9.02 -9 8 C-8 6 -8 6 -6 3 C-2.875 2.8125 -2.875 2.8125 0 3 C0 2.01 0 1.02 0 0 Z " transform="translate(299 318)" class="color1E85BA svgShape"></path><path fill="#44c792" d="M0 0 C0.99 0 1.98 0 3 0 C1.27933894 5.44876003 -0.84705349 10.71169451 -3 16 C-3.33 16 -3.66 16 -4 16 C-4 13.03 -4 10.06 -4 7 C-3.01 7 -2.02 7 -1 7 C-1.20625 6.401875 -1.4125 5.80375 -1.625 5.1875 C-2 3 -2 3 0 0 Z " transform="translate(281 339)" class="color4498C7 svgShape"></path><path fill="#44c390" d="M0 0 C1.32 0.33 2.64 0.66 4 1 C4 1.66 4 2.32 4 3 C4.66 3.33 5.32 3.66 6 4 C6.33 4.99 6.66 5.98 7 7 C7.99 7.9590625 7.99 7.9590625 9 8.9375 C11.05502754 11.05674715 11.59106845 12.13747914 12 15 C8.94433539 12.03693129 6.02864172 8.98279839 3.1875 5.8125 C2.58292969 5.13832031 1.97835938 4.46414062 1.35546875 3.76953125 C0 2 0 2 0 0 Z " transform="translate(302 83)" class="color4496C3 svgShape"></path><path fill="#30b781" d="M0 0 C1 3 1 3 -0.21484375 5.91796875 C-0.78332031 6.99691406 -1.35179687 8.07585937 -1.9375 9.1875 C-2.50339844 10.27417969 -3.06929688 11.36085938 -3.65234375 12.48046875 C-4.09707031 13.31191406 -4.54179687 14.14335937 -5 15 C-6.33585969 10.99242094 -5.47592409 7.84049358 -4 4 C-1.875 1.5 -1.875 1.5 0 0 Z " transform="translate(424 404)" class="color308CB7 svgShape"></path><path fill="#35b984" d="M0 0 C0.99 0 1.98 0 3 0 C3 1.32 3 2.64 3 4 C3.66 4 4.32 4 5 4 C5 5.65 5 7.3 5 9 C5.66 9.33 6.32 9.66 7 10 C7 11.98 7 13.96 7 16 C5.1290051 13.19350765 3.76982048 10.50039527 2.375 7.4375 C1.92898438 6.46683594 1.48296875 5.49617188 1.0234375 4.49609375 C0 2 0 2 0 0 Z " transform="translate(404 339)" class="color358EB9 svgShape"></path><path fill="#13a8b6" d="M0 0 C1.32 0.66 2.64 1.32 4 2 C4 4.31 4 6.62 4 9 C-0.8 6.53846154 -0.8 6.53846154 -1.8125 3.8125 C-1.874375 3.214375 -1.93625 2.61625 -2 2 C-1.34 2 -0.68 2 0 2 C0 1.34 0 0.68 0 0 Z " transform="translate(379 150)" class="color137EB6 svgShape"></path><path fill="#408469" d="M0 0 C1 2 1 2 0.4375 4.3125 C-1.47539467 7.88878134 -3.78248866 9.55189355 -7 12 C-7.66 11.67 -8.32 11.34 -9 11 C-6.03 7.37 -3.06 3.74 0 0 Z " transform="translate(403 411)" class="color4095C0 svgShape"></path><path fill="#65c59e" d="M0 0 C2.475 0.495 2.475 0.495 5 1 C5 1.66 5 2.32 5 3 C8.3 3 11.6 3 15 3 C11 6 11 6 7.5 6 C3.41362671 4.83246477 2.25471949 3.5173624 0 0 Z " transform="translate(357 369)" class="color65A6C5 svgShape"></path><path fill="#31bd85" d="M0 0 C1.1725131 0.95117134 2.33787015 1.91117009 3.5 2.875 C4.47453125 3.67550781 4.47453125 3.67550781 5.46875 4.4921875 C5.9740625 4.98976563 6.479375 5.48734375 7 6 C7 6.66 7 7.32 7 8 C7.66 8 8.32 8 9 8 C8.67 8.66 8.34 9.32 8 10 C7.01 9.34 6.02 8.68 5 8 C5 7.34 5 6.68 5 6 C4.38125 6.185625 3.7625 6.37125 3.125 6.5625 C1 7 1 7 -1 6 C-1 5.34 -1 4.68 -1 4 C-0.34 4 0.32 4 1 4 C0.67 2.68 0.34 1.36 0 0 Z " transform="translate(365 353)" class="color318CBD svgShape"></path><path fill="#67c8a1" d="M0 0 C-3.21351606 2.43448186 -4.64337141 3.01783143 -8.75 2.8125 C-9.8225 2.544375 -10.895 2.27625 -12 2 C-12.33 1.34 -12.66 0.68 -13 0 C-11.39679026 -0.19551338 -9.79237014 -0.38111983 -8.1875 -0.5625 C-7.29417969 -0.66691406 -6.40085937 -0.77132813 -5.48046875 -0.87890625 C-3 -1 -3 -1 0 0 Z " transform="translate(329 372)" class="color67ABC8 svgShape"></path><path fill="#3ec18c" d="M0 0 C9.405 1.485 9.405 1.485 19 3 C19 3.33 19 3.66 19 4 C16.77144426 4.0814222 14.54202345 4.13938079 12.3125 4.1875 C10.45044922 4.23970703 10.45044922 4.23970703 8.55078125 4.29296875 C4.80907731 3.9842473 2.96217879 3.24853724 0 1 C0 0.67 0 0.34 0 0 Z " transform="translate(321 441)" class="color3E95C1 svgShape"></path><path fill="#3ebf8b" d="M0 0 C-1.11666174 3.34998521 -1.74694925 3.79340222 -4.5625 5.6875 C-5.20316406 6.12449219 -5.84382813 6.56148438 -6.50390625 7.01171875 C-6.99761719 7.33785156 -7.49132812 7.66398437 -8 8 C-8.66 6.68 -9.32 5.36 -10 4 C-8.35 4 -6.7 4 -5 4 C-5 3.01 -5 2.02 -5 1 C-3 0 -3 0 0 0 Z " transform="translate(401 439)" class="color3E94BF svgShape"></path><path fill="#26be81" d="M0 0 C2 4 2 4 2 6 C-0.64 6.33 -3.28 6.66 -6 7 C-4.02 4.69 -2.04 2.38 0 0 Z " transform="translate(393 423)" class="color268BBE svgShape"></path><path fill="#24b1be" d="M0 0 C1.32 0.33 2.64 0.66 4 1 C4 2.32 4 3.64 4 5 C2.35 5.66 0.7 6.32 -1 7 C-2.65 5.35 -4.3 3.7 -6 2 C-3.69 2.33 -1.38 2.66 1 3 C0.67 2.01 0.34 1.02 0 0 Z " transform="translate(386 313)" class="color2487BE svgShape"></path><path fill="#1faebb" d="M0 0 C0.66 0.33 1.32 0.66 2 1 C3.26229508 5.47540984 3.26229508 5.47540984 2 8 C0.68 7.67 -0.64 7.34 -2 7 C-2.33 5.68 -2.66 4.36 -3 3 C-2.01 2.67 -1.02 2.34 0 2 C0 1.34 0 0.68 0 0 Z " transform="translate(300 74)" class="color1F85BB svgShape"></path><path fill="#43bf8d" d="M0 0 C1.32 0.66 2.64 1.32 4 2 C2.9375 3.5 2.9375 3.5 1 5 C-2.6875 5.1875 -2.6875 5.1875 -6 5 C-6.33 4.34 -6.66 3.68 -7 3 C-4.69 3 -2.38 3 0 3 C0 2.01 0 1.02 0 0 Z " transform="translate(346 410)" class="color4395BF svgShape"></path><path fill="#15a6b3" d="M0 0 C2.15377564 2.62198774 3.40072174 4.64404172 4 8 C3.01 8 2.02 8 1 8 C0.67 7.34 0.34 6.68 0 6 C-0.99 6.33 -1.98 6.66 -3 7 C-3 6.01 -3 5.02 -3 4 C-2.34 3.67 -1.68 3.34 -1 3 C-0.67 2.01 -0.34 1.02 0 0 Z " transform="translate(419 333)" class="color157DB3 svgShape"></path><path fill="#25adba" d="M0 0 C4.875 4.75 4.875 4.75 6 7 C4.35 7.66 2.7 8.32 1 9 C0.29925156 5.846632 0 3.27275026 0 0 Z " transform="translate(306 63)" class="color2587BA svgShape"></path><path fill="#3cc08b" d="M0 0 C0.33 0.66 0.66 1.32 1 2 C1.66 2 2.32 2 3 2 C3.33 5.96 3.66 9.92 4 14 C0.7354972 10.7354972 0.06763945 6.58952701 -0.125 2.0625 C-0.08375 1.381875 -0.0425 0.70125 0 0 Z " transform="translate(70 394)" class="color3C93C0 svgShape"></path><path fill="#408469" d="M0 0 C-1.41519715 2.0343459 -2.54982123 2.90410393 -4.98046875 3.421875 C-6.98176954 3.66273952 -8.9909944 3.83532741 -11 4 C-7.64918101 0.31409911 -4.96535219 -1.77334007 0 0 Z " transform="translate(97 42)" class="color4498C0 svgShape"></path><path fill="#0ca4b2" d="M0 0 C1.65 0.33 3.3 0.66 5 1 C5 1.66 5 2.32 5 3 C2 5 2 5 -1 5 C-0.67 3.35 -0.34 1.7 0 0 Z " transform="translate(364 454)" class="color0C7AB2 svgShape"></path><path fill="#50b98d" d="M0 0 C-0.33 2.31 -0.66 4.62 -1 7 C-2.65 7.33 -4.3 7.66 -6 8 C-6 7.34 -6 6.68 -6 6 C-5.01 6 -4.02 6 -3 6 C-3.33 4.35 -3.66 2.7 -4 1 C-2 0 -2 0 0 0 Z " transform="translate(373 365)" class="color097AB2 svgShape"></path><path fill="#0ca7b5" d="M0 0 C2 1.375 2 1.375 4 3 C4 3.66 4 4.32 4 5 C1.69 5 -0.62 5 -3 5 C-3 4.01 -3 3.02 -3 2 C-2.01 1.34 -1.02 0.68 0 0 Z " transform="translate(332 94)" class="color0C79B5 svgShape"></path><path fill="#20a2ae" d="M0 0 C1.98 0 3.96 0 6 0 C6.33 1.65 6.66 3.3 7 5 C6.01 5 5.02 5 4 5 C1.8125 2.5 1.8125 2.5 0 0 Z " transform="translate(79 416)" class="color207CAE svgShape"></path><path fill="#35c289" d="M0 0 C2.31 0.66 4.62 1.32 7 2 C7 3.65 7 5.3 7 7 C5.83040013 6.02433888 4.66438823 5.044375 3.5 4.0625 C2.8503125 3.51722656 2.200625 2.97195313 1.53125 2.41015625 C1.0259375 1.94480469 0.520625 1.47945313 0 1 C0 0.67 0 0.34 0 0 Z " transform="translate(387 320)" class="color358EC2 svgShape"></path><path fill="#3bbe89" d="M0 0 C3.63094642 2.64960955 5.89851796 5.01824456 8 9 C7.01 9.495 7.01 9.495 6 10 C5.7525 9.195625 5.505 8.39125 5.25 7.5625 C4.27761141 4.828919 4.27761141 4.828919 1.875 4.1875 C1.25625 4.125625 0.6375 4.06375 0 4 C0 2.68 0 1.36 0 0 Z " transform="translate(352 117)" class="color3B92BE svgShape"></path><path fill="#4ac996" d="M0 0 C0.33 0 0.66 0 1 0 C1.66 3.63 2.32 7.26 3 11 C2.01 11 1.02 11 0 11 C0 7.37 0 3.74 0 0 Z " transform="translate(275 387)" class="color4A9DC9 svgShape"></path><path fill="#25a5b1" d="M0 0 C2.375 0.25 2.375 0.25 5 1 C6.3125 3.0625 6.3125 3.0625 7 5 C5.35 4.67 3.7 4.34 2 4 C2 3.01 2 2.02 2 1 C1.34 0.67 0.68 0.34 0 0 Z " transform="translate(282 39)" class="color2580B1 svgShape"></path><path fill="#26a3af" d="M0 0 C-4.29 -0.33 -8.58 -0.66 -13 -1 C-13 -1.33 -13 -1.66 -13 -2 C-11.58696762 -2.2506019 -10.16920526 -2.47461921 -8.75 -2.6875 C-7.56664062 -2.87892578 -7.56664062 -2.87892578 -6.359375 -3.07421875 C-4 -3 -4 -3 0 0 Z " transform="translate(338 461)" class="color2680AF svgShape"></path><path fill="#1ec280" d="M0 0 C1.32 0 2.64 0 4 0 C3.34 1.32 2.68 2.64 2 4 C1.34 2.68 0.68 1.36 0 0 Z M-3 3 C-1.68 3 -0.36 3 1 3 C0.67 3.99 0.34 4.98 0 6 C-0.99 5.01 -1.98 4.02 -3 3 Z " transform="translate(346 129)" class="color1E89C2 svgShape"></path><path fill="#68c6a0" d="M0 0 C2.95929119 2.75520215 5.03681826 5.46627288 7 9 C6.01 9 5.02 9 4 9 C0 2.25 0 2.25 0 0 Z " transform="translate(284 411)" class="color68A9C6 svgShape"></path><path fill="#35bf88" d="M0 0 C2.31 0 4.62 0 7 0 C7 0.66 7 1.32 7 2 C7.99 2.33 8.98 2.66 10 3 C5.82412255 4.39195915 3.86525224 2.82323219 0 1 C0 0.67 0 0.34 0 0 Z " transform="translate(367 309)" class="color3590BF svgShape"></path><path fill="#53be93" d="M0 0 C0 0.66 0 1.32 0 2 C-1.96147874 3.38938077 -3.96166576 4.7260411 -6 6 C-6.66 5.67 -7.32 5.34 -8 5 C-3.375 0 -3.375 0 0 0 Z " transform="translate(343 335)" class="color539EBE svgShape"></path><path fill="#58c297" d="M0 0 C0.66 0.33 1.32 0.66 2 1 C0.69593116 3.01920337 -0.63823419 5.01924973 -2 7 C-2.33 7 -2.66 7 -3 7 C-3.1875 4.625 -3.1875 4.625 -3 2 C-2.01 1.34 -1.02 0.68 0 0 Z " transform="translate(287 332)" class="color58A0C2 svgShape"></path></svg>