<svg id="Layer_1" data-name="Layer 1" xmlns="http://www.w3.org/2000/svg" viewBox="0 0 200 200">
<defs><style>.cls-1{fill:#ffc000;}</style></defs>
<path class="cls-1" d="M167.44,132.85a3.2,3.2,0,0,1-1.64-.57l-11.86-6.91a2.37,2.37,0,0,1-1-3c0-.12.09-.24.14-.37l.1-.26A57.93,57.93,0,0,0,115,45.4a57.62,57.62,0,0,0-41.8,3.93L87.86,64.05a3.64,3.64,0,0,1,1,1.29l.83,1.92-2,.75a3.8,3.8,0,0,1-1.5.22H44.33a2.53,2.53,0,0,1-2.93-3V23.44a3.43,3.43,0,0,1,.24-1.55l.66-1.56,1.64.39a3,3,0,0,1,1.61,1L59.34,35.52A76.19,76.19,0,0,1,106.1,24.75a74.53,74.53,0,0,1,35.46,12.6,76.22,76.22,0,0,1,32.65,48.42,74.37,74.37,0,0,1,1.46,19.41,75.82,75.82,0,0,1-5.94,25.8,2.7,2.7,0,0,1-1.6,1.76A2.16,2.16,0,0,1,167.44,132.85Zm-10.29-10.24,9.44,5.51A72,72,0,0,0,171.68,105a70.78,70.78,0,0,0-1.38-18.37,72.4,72.4,0,0,0-31-45.95,70.73,70.73,0,0,0-33.58-11.93A72.21,72.21,0,0,0,61,39.21l-.27.17a2.5,2.5,0,0,1-3.62-.45l-.2-.2L45.4,27.25v37h37L69.06,50.9a2.64,2.64,0,0,1-1-2.33,2.68,2.68,0,0,1,1.65-1.93,61.56,61.56,0,0,1,46.38-5.09,61.88,61.88,0,0,1,41.1,81.06Z"/>
<path class="cls-1" d="M111.08,136.28a1.35,1.35,0,0,1,.84-.12h41.67c1,0,1,0,1,1v41.67a1.27,1.27,0,0,1-.12.82c-.33-.08-.5-.37-.72-.58L140,165.35c-.34-.34-.61-.89-1.09-.93s-.81.41-1.21.65a74.18,74.18,0,0,1-28,10.11,74.6,74.6,0,0,1-59.45-17.39,73.6,73.6,0,0,1-24.81-43.2,72.17,72.17,0,0,1-1-18.62,74.12,74.12,0,0,1,5.22-22.64c.47-1.17.4-1,1.34-.46q5.61,3.36,11.22,6.76c.71.43.72.43.43,1.21a59.06,59.06,0,0,0-3.33,14.53,58.09,58.09,0,0,0,4,28.14,59.6,59.6,0,0,0,32.22,32.9,56.88,56.88,0,0,0,16.81,4.41A59,59,0,0,0,127.22,154c1.06-.57,1-.47.16-1.31l-15.67-15.67A2.22,2.22,0,0,1,111.08,136.28Z"/></svg>