<svg id="Layer_1" data-name="Layer 1" xmlns="http://www.w3.org/2000/svg" viewBox="0 0 200 200"><defs><style>.cls-1{fill:#123c7f;}</style></defs><path class="cls-1" d="M166.23,178.5H82.86a7.42,7.42,0,0,1-7.41-7.41V61.79a7.43,7.43,0,0,1,7.41-7.41h61l29.77,30.17v86.54A7.42,7.42,0,0,1,166.23,178.5ZM82.86,58.09a3.7,3.7,0,0,0-3.7,3.7v109.3a3.7,3.7,0,0,0,3.7,3.7h83.37a3.7,3.7,0,0,0,3.7-3.7v-85l-27.61-28Z"/><path class="cls-1" d="M77.31,160.44H62.49a5.56,5.56,0,0,1-5.56-5.56V45.58A5.55,5.55,0,0,1,62.49,40h46.84v16.2H82.86a5.47,5.47,0,0,0-4.12,1.62,5.37,5.37,0,0,0-1.43,3.94Z"/><path class="cls-1" d="M53.22,141.91H31.92a5.56,5.56,0,0,1-5.56-5.55V27.06a5.56,5.56,0,0,1,5.56-5.56H81.05V37.25l-23.47.13a4.15,4.15,0,0,0-3.85,1.94,3.88,3.88,0,0,0-.42,2.57Z"/><path class="cls-1" d="M171.78,86.8H143.07A1.85,1.85,0,0,1,141.22,85V56.23a1.85,1.85,0,0,1,3.7,0V83.1h26.86a1.85,1.85,0,1,1,0,3.7Z"/><path class="cls-1" d="M126.14,75.69H92.53a1.86,1.86,0,0,1,0-3.71h33.61a1.86,1.86,0,0,1,0,3.71Z"/><path class="cls-1" d="M126.14,88.65H92.53a1.85,1.85,0,1,1,0-3.7h33.61a1.85,1.85,0,0,1,0,3.7Z"/><path class="cls-1" d="M156,106.25H92.53a1.85,1.85,0,1,1,0-3.7H156a1.85,1.85,0,0,1,0,3.7Z"/><path class="cls-1" d="M156,119.22H92.53a1.86,1.86,0,0,1,0-3.71H156a1.86,1.86,0,0,1,0,3.71Z"/><path class="cls-1" d="M156,132.19H92.53a1.86,1.86,0,0,1,0-3.71H156a1.86,1.86,0,0,1,0,3.71Z"/><path class="cls-1" d="M156,145.15H92.53a1.85,1.85,0,1,1,0-3.7H156a1.85,1.85,0,0,1,0,3.7Z"/></svg>