<svg id="Layer_1" data-name="Layer 1" xmlns="http://www.w3.org/2000/svg" viewBox="0 0 200 200"><defs><style>.cls-1{fill:#123c7f;}.cls-2{opacity:0.39;}</style></defs><path class="cls-1" d="M131.28,178.5a41.11,41.11,0,1,1,41.11-41.11A41.15,41.15,0,0,1,131.28,178.5Zm0-78.36a37.25,37.25,0,1,0,37.25,37.25A37.3,37.3,0,0,0,131.28,100.14Z"/><path class="cls-1" d="M100.1,49.67a68.18,68.18,0,0,0,33.22,8.47,68.2,68.2,0,0,0,31.2-7.78v7.78a57,57,0,0,1-64.42-.25Z"/><path class="cls-1" d="M100.1,65.78a68.41,68.41,0,0,0,33.22,8.47,68.33,68.33,0,0,0,31.2-7.78v7.78A57,57,0,0,1,100.1,74Z"/><path class="cls-1" d="M100.1,81.89a68.09,68.09,0,0,0,19,7,52.39,52.39,0,0,0-12.23,5.19,57.75,57.75,0,0,1-6.81-4Z"/><path class="cls-1" d="M164.52,82.58v7.78A56,56,0,0,1,159,93.67a51.73,51.73,0,0,0-11.77-4.82A68.26,68.26,0,0,0,164.52,82.58Z"/><path class="cls-1" d="M82.36,127A51.86,51.86,0,0,0,81,136.46a56.7,56.7,0,0,1-20.13,4,57.7,57.7,0,0,1-33.23-10.1v-8.21A67.94,67.94,0,0,0,82.36,127Z"/><path class="cls-1" d="M82.39,152a56.57,56.57,0,0,1-21.55,4.6,57.71,57.71,0,0,1-33.23-10.09v-8.22A67.94,67.94,0,0,0,81,143.54Z"/><path class="cls-1" d="M87.78,165.45a57,57,0,0,1-60.17-2.86v-8.22a68,68,0,0,0,56.82,4.09Z"/><g class="cls-2"><path class="cls-1" d="M81,143.54,82.39,152A49.9,49.9,0,0,1,81,143.54Z"/></g><g class="cls-2"><path class="cls-1" d="M84.43,158.46l3.35,7A52.82,52.82,0,0,1,84.43,158.46Z"/></g><path class="cls-1" d="M137.9,126.09a8.45,8.45,0,0,0-2.4-2.09,6.16,6.16,0,0,0-3.11-.77,6.81,6.81,0,0,0-2.91.54,3.77,3.77,0,0,0-1.69,1.46,4.31,4.31,0,0,0-.54,2.23,3.81,3.81,0,0,0,1.29,3,11.31,11.31,0,0,0,3.39,2l4.52,1.74a24.92,24.92,0,0,1,3.68,1.71,16.84,16.84,0,0,1,3.28,2.46,10.32,10.32,0,0,1,2.34,3.4,11.42,11.42,0,0,1,.86,4.65,10.62,10.62,0,0,1-6.68,10.25,19,19,0,0,1-7.65,1.4,15.93,15.93,0,0,1-6.63-1.4,18.29,18.29,0,0,1-5.42-3.74,16.68,16.68,0,0,1-3.6-5.25l6-4.06a22.82,22.82,0,0,0,2.74,4.22,10,10,0,0,0,3.19,2.61,8.84,8.84,0,0,0,4,.88,7.62,7.62,0,0,0,3.06-.54,3.77,3.77,0,0,0,1.82-1.6,5.21,5.21,0,0,0,.6-2.6,4.28,4.28,0,0,0-1.2-3.11,10.5,10.5,0,0,0-3.14-2.14q-1.94-.92-4.28-1.77a29.29,29.29,0,0,1-3.31-1.43,16.85,16.85,0,0,1-3.48-2.34,11.48,11.48,0,0,1-2.72-3.49,10.65,10.65,0,0,1-1-4.91,8.72,8.72,0,0,1,1.71-5.22,12,12,0,0,1,4.74-3.8,15.9,15.9,0,0,1,6.85-1.43,15.72,15.72,0,0,1,6.57,1.23,13.83,13.83,0,0,1,4.48,3.17,16.79,16.79,0,0,1,2.83,4l-6.23,3.72A16.82,16.82,0,0,0,137.9,126.09Zm-2.48-15.37-.23,9.77h-5.71l-.23-9.77Zm-.23,43.46.23,9.65h-6.17l.23-9.65Z"/><path class="cls-1" d="M132.45,21.5c-17.79,0-32.22,6.76-32.22,15.1s14.43,15.1,32.22,15.1,32.22-6.76,32.22-15.1S150.24,21.5,132.45,21.5Zm11.42,20.38a12.65,12.65,0,0,1-4.26,1.38,33.69,33.69,0,0,1-4,.42l.12,2.07H130.4l.13-2.1a27.17,27.17,0,0,1-3.23-.39A24.06,24.06,0,0,1,122.62,42a9.78,9.78,0,0,1-3.1-1.81l5.17-1.4a13,13,0,0,0,2.36,1.46,11.61,11.61,0,0,0,2.76.9,18,18,0,0,0,3.45.3,16.22,16.22,0,0,0,2.64-.18,3.93,3.93,0,0,0,1.57-.56,1.05,1.05,0,0,0,.52-.89c0-.43-.35-.79-1-1.07a13.7,13.7,0,0,0-2.71-.74c-1.11-.21-2.34-.42-3.69-.61-.85-.12-1.81-.28-2.86-.5a21.25,21.25,0,0,1-3-.8,8.26,8.26,0,0,1-2.34-1.2,2.09,2.09,0,0,1-.91-1.7c0-.65.49-1.25,1.48-1.8a13.78,13.78,0,0,1,4.08-1.3,28.24,28.24,0,0,1,3.53-.42l-.13-2.2h5.32l-.13,2.21a26.1,26.1,0,0,1,3,.34,18,18,0,0,1,3.87,1.09,10.21,10.21,0,0,1,2.44,1.4l-5.37,1.28a9.78,9.78,0,0,0-1.65-1A9.67,9.67,0,0,0,135.8,32a12.65,12.65,0,0,0-2.69-.26,14.38,14.38,0,0,0-2.51.18,4.06,4.06,0,0,0-1.45.51.89.89,0,0,0-.47.76c0,.42.37.77,1.11,1a16.88,16.88,0,0,0,2.93.68l3.89.6c1.08.15,2.14.35,3.18.59a21.57,21.57,0,0,1,2.83.84,6.23,6.23,0,0,1,2,1.18,2.1,2.1,0,0,1,.74,1.6A2.57,2.57,0,0,1,143.87,41.88Z"/><path class="cls-1" d="M59.83,92.11c-17.79,0-32.22,6.77-32.22,15.11s14.43,15.1,32.22,15.1c11.15,0,21-2.66,26.75-6.69h0c3.45-2.4,5.46-5.29,5.46-8.4v-.14C91.89,98.8,77.53,92.11,59.83,92.11ZM72.4,112.48A13.69,13.69,0,0,1,67.86,114a35.76,35.76,0,0,1-4.27.43l.13,2.21H58.06l.13-2.23a33.19,33.19,0,0,1-3.43-.41,25.83,25.83,0,0,1-5-1.38,10.71,10.71,0,0,1-3.3-1.92l5.5-1.49a14.73,14.73,0,0,0,2.52,1.55,12,12,0,0,0,2.93,1,18.6,18.6,0,0,0,3.67.33,16.92,16.92,0,0,0,2.81-.2,4.11,4.11,0,0,0,1.67-.59,1.12,1.12,0,0,0,.55-.95c0-.46-.36-.84-1.1-1.14a15.57,15.57,0,0,0-2.88-.79c-1.19-.22-2.5-.44-3.93-.65-.91-.12-1.92-.3-3-.52a24.18,24.18,0,0,1-3.2-.86A8.53,8.53,0,0,1,49.49,105a2.24,2.24,0,0,1-1-1.8c0-.7.53-1.33,1.58-1.91a14.69,14.69,0,0,1,4.35-1.4,31.41,31.41,0,0,1,3.75-.44l-.14-2.34h5.66l-.14,2.35a26.72,26.72,0,0,1,3.18.36A19.62,19.62,0,0,1,70.88,101a11,11,0,0,1,2.59,1.49l-5.71,1.36A10.25,10.25,0,0,0,66,102.76a9.64,9.64,0,0,0-2.2-.76,12.72,12.72,0,0,0-2.86-.29,15,15,0,0,0-2.67.2,4.23,4.23,0,0,0-1.54.54.94.94,0,0,0-.5.81c0,.45.39.81,1.18,1.09a18.22,18.22,0,0,0,3.11.73l4.15.63c1.15.17,2.28.38,3.38.63a21.9,21.9,0,0,1,3,.9,6.81,6.81,0,0,1,2.15,1.25A2.25,2.25,0,0,1,74,110.2,2.73,2.73,0,0,1,72.4,112.48Z"/></svg>