<svg id="Layer_1" data-name="Layer 1" xmlns="http://www.w3.org/2000/svg" viewBox="0 0 200 200"><defs>
<style>.cls-2{fill:none;stroke:#1f98df;stroke-linecap:round;stroke-linejoin:round;stroke-width:10px;}</style></defs>
<path class="cls-1" d="M76.16,110.6c0-10,0-20.07,0-30.1,0-1.09-.3-1.35-1.36-1.33-4.49.06-9,0-13.47,0a3.59,3.59,0,0,1-3-6.08Q73.49,53.59,88.58,34.06q4.13-5.33,
8.23-10.66c1.94-2.52,4.41-2.53,6.34,0l37.91,49.05c.87,1.12,1.84,2.19,1.56,3.78a3.44,3.44,0,0,1-3.57,3c-4.61,0-9.22,0-13.83,0-1.11,0-1.41.28-1.41,1.4q0,29.68,
0,59.35c0,3.44-1.32,4.76-4.76,4.76H80.73c-3.19,0-4.57-1.4-4.57-4.58Z" fill="#123c7f"/><path class="cls-2" d="M169.59,129.23v44.3c0,2.75-2.73,5-6.09,5H36.5c-3.36,0-6.09-2.22-6.09-5v-44.3"/>
</svg>