<svg id="Layer_1" data-name="Layer 1" xmlns="http://www.w3.org/2000/svg" viewBox="0 0 200 200"><defs><style>.cls-1{fill:#123c7f;}</style></defs><path class="cls-1" d="M121.66,166.21H63.6c-7.56,0-10.52-3-10.52-10.69v-7.67c0-7.22,0-14.69,0-22A34,34,0,0,1,87.33,91.64h.74c2.84,0,5.75-.09,8.56-.18,7.48-.22,15.21-.45,22.83.9A33.55,33.55,0,0,1,147,125.2c.1,9.09.06,18.32,0,27.25v4.08c0,6.49-3.27,9.66-9.92,9.67Zm-21.53-4H110.9q13.06,0,26.14,0c4.47,0,5.91-1.39,5.93-5.69v-4.08c0-8.91.07-18.13,0-27.19a29.56,29.56,0,0,0-24.18-28.95c-7.22-1.27-14.74-1.05-22-.83-3,.09-6.17.19-9.28.18h-.14a30,30,0,0,0-30.24,30.2c-.05,7.33,0,14.79,0,22v7.67c0,5.49,1.16,6.68,6.53,6.69h36.52Z"/><path class="cls-1" d="M100,89.16h-.11a27.69,27.69,0,1,1,.52-55.37A27.69,27.69,0,0,1,100,89.16Zm-.1-4a23.75,23.75,0,1,0-16.65-7,23.47,23.47,0,0,0,16.65,7Z"/><path class="cls-1" d="M42.17,164.18c-8.12,0-17.07.11-26-.05a6,6,0,0,1-6-6.29c-.1-9.36-.39-18.75.12-28.09.68-12.47,11.53-22.72,24-23.27,3.87-.17,7.75,0,11.9,0C39.16,125.38,43.42,144.76,42.17,164.18Z"/><path class="cls-1" d="M157.84,164.21c-1.15-19.32,2.95-38.61-3.91-57.67,7.65-.1,15.35-1.11,22.46,3,8.58,4.91,13.22,12.31,13.49,22.18.22,8.28.08,16.58,0,24.87,0,5.26-2.35,7.62-7.55,7.65C174,164.24,165.55,164.21,157.84,164.21Z"/><path class="cls-1" d="M67.91,77.57A22.47,22.47,0,1,1,45.58,55.06,22.5,22.5,0,0,1,67.91,77.57Z"/><path class="cls-1" d="M154.54,100A22.47,22.47,0,1,1,177.08,77.7,22.51,22.51,0,0,1,154.54,100Z"/></svg>