<svg id="Layer_1" data-name="Layer 1" xmlns="http://www.w3.org/2000/svg" viewBox="0 0 200 200">
<defs><style>.cls-1{fill:#123c7f;}</style></defs>
<path class="cls-1" d="M100,106.35c7.46.2,15-.79,22.35,1.13,15.63,4.09,26.18,13.8,31.82,28.9a2.76,2.76,0,0,1-.56,3.13c-27.09,32.36-79.91,32.37-107.14,0a2.84,2.84,0,0,1-.63-3.12c5.42-16.71,22-29.38,39.55-30C90.23,106.19,95.1,106.35,100,106.35Z"/>
<path class="cls-1" d="M68.9,67.46a31.1,31.1,0,1,1,31.18,31A31.12,31.12,0,0,1,68.9,67.46Z"/>
<path class="cls-2" d="M100,178.5A78.5,78.5,0,1,1,178.5,100,78.6,78.6,0,0,1,100,178.5Zm0-153.1A74.6,74.6,0,1,0,174.6,100,74.69,74.69,0,0,0,100,25.4Z"/>
</svg>