<svg id="Layer_1" data-name="Layer 1" xmlns="http://www.w3.org/2000/svg" viewBox="0 0 200 200"><defs><style>.cls-1{fill:none;stroke:#123c7f;stroke-miterlimit:10;stroke-width:4px;}.cls-2{fill:#123c7f;}</style></defs><path class="cls-1" d="M100,142.87c-22.94-.5-42.53-9.46-59.67-24.41a115.88,115.88,0,0,1-15.48-16.67c-.85-1.11-1.33-1.93-.27-3.31C40.32,78.27,59.82,63.83,85.34,58.66c20.31-4.12,39.17.36,56.94,10.34,13,7.31,23.68,17.29,32.77,29.05.94,1.21,1.43,2.07.28,3.55C159.46,122,139.72,136.34,114,141.48a57.72,57.72,0,0,1-5.85.88C105.47,142.61,102.81,142.7,100,142.87ZM99.91,70.8a29.18,29.18,0,1,0,29.31,29.07A29.21,29.21,0,0,0,99.91,70.8Z"/><path class="cls-2" d="M100,115.79a15.84,15.84,0,0,1-2.7-31.44c1.93-.34,2.72-.21,2.7,2.2-.07,7.38,6,12.51,13.34,11.25,2.42-.42,2.61.43,2.6,2.34A15.92,15.92,0,0,1,100,115.79Z"/></svg>