<svg width="599" height="844" viewBox="0 0 599 844" fill="none" xmlns="http://www.w3.org/2000/svg">
<g clip-path="url(#clip0_533_131)">
<rect width="595" height="842" fill="white"/>
<line x1="522.458" y1="378.392" x2="593.344" y2="331.498" stroke="#F9FAFB" stroke-width="6"/>
<line x1="520" y1="377.674" x2="520" y2="465.863" stroke="#F9FAFB" stroke-width="6"/>
<line x1="596.677" y1="502.344" x2="587.871" y2="509.378" stroke="#F9FAFB" stroke-width="6"/>
</g>
<line y1="-3" x2="84.4815" y2="-3" transform="matrix(0.884414 0.466704 -0.611554 0.791202 79 716.113)" stroke="#F5F6F8" stroke-opacity="0.62" stroke-width="6"/>
<line x1="156.91" y1="755.535" x2="156.91" y2="824.171" stroke="#F5F6F8" stroke-opacity="0.62" stroke-width="6"/>
<line y1="-3" x2="80.8511" y2="-3" transform="matrix(-0.861999 0.50691 -0.652631 -0.757676 223.41 714.038)" stroke="#F5F6F8" stroke-opacity="0.62" stroke-width="6"/>
<line y1="-3" x2="84.4815" y2="-3" transform="matrix(0.884414 0.466704 -0.611554 0.791202 223.41 716.631)" stroke="#F5F6F8" stroke-opacity="0.62" stroke-width="6"/>
<line y1="-3" x2="80.8511" y2="-3" transform="matrix(-0.861999 0.50691 -0.652631 -0.757676 365.936 713)" stroke="#F5F6F8" stroke-opacity="0.62" stroke-width="6"/>
<line y1="-3" x2="85.2791" y2="-3" transform="matrix(0.883505 0.468423 -0.613354 0.789808 365.936 715.594)" stroke="#F5F6F8" stroke-opacity="0.62" stroke-width="6"/>
<line y1="-3" x2="21.5964" y2="-3" transform="matrix(-0.639605 0.768703 -0.869503 -0.493928 153.715 821.427)" stroke="#F5F6F8" stroke-opacity="0.62" stroke-width="6"/>
<line y1="-3" x2="21.5964" y2="-3" transform="matrix(-0.639605 0.768703 -0.869503 -0.493928 296.242 821.427)" stroke="#F5F6F8" stroke-opacity="0.62" stroke-width="6"/>
<line y1="-3" x2="21.808" y2="-3" transform="matrix(0.679751 0.733443 -0.845048 0.534691 153.715 823.502)" stroke="#F5F6F8" stroke-opacity="0.62" stroke-width="6"/>
<line y1="-3" x2="21.808" y2="-3" transform="matrix(0.679751 0.733443 -0.845048 0.534691 294.986 823.502)" stroke="#F5F6F8" stroke-opacity="0.62" stroke-width="6"/>
<line y1="-3" x2="69.0236" y2="-3" transform="matrix(-0.027289 0.999628 -0.999826 -0.0186343 296.242 755.022)" stroke="#F5F6F8" stroke-opacity="0.62" stroke-width="6"/>
<line x1="444.07" y1="753.602" x2="444.07" y2="826.104" stroke="#F5F6F8" stroke-opacity="0.62" stroke-width="6"/>
<line y1="-3" x2="87.5223" y2="-3" transform="matrix(-0.900148 0.435585 -0.437738 -0.899103 521.949 715.861)" stroke="#F5F6F8" stroke-opacity="0.62" stroke-width="6"/>
<line x1="523.25" y1="717.927" x2="596.3" y2="753.067" stroke="#F5F6F8" stroke-opacity="0.62" stroke-width="6"/>
<line y1="-3" x2="21.5964" y2="-3" transform="matrix(-0.639605 0.768703 -0.869503 -0.493928 441.281 823.502)" stroke="#F5F6F8" stroke-opacity="0.62" stroke-width="6"/>
<line y1="-3" x2="21.808" y2="-3" transform="matrix(0.679751 0.733443 -0.845048 0.534691 441.281 825.577)" stroke="#F5F6F8" stroke-opacity="0.62" stroke-width="6"/>
<line x1="79.2031" y1="637.557" x2="79.2031" y2="712.682" stroke="#F5F6F8" stroke-opacity="0.62" stroke-width="6"/>
<line y1="-3" x2="84.3319" y2="-3" transform="matrix(-0.846783 0.531938 -0.627701 -0.778454 147.41 592.136)" stroke="#F5F6F8" stroke-opacity="0.62" stroke-width="6"/>
<line y1="-3" x2="87.8834" y2="-3" transform="matrix(0.871127 0.491058 -0.586209 0.81016 147.41 594.975)" stroke="#F5F6F8" stroke-opacity="0.62" stroke-width="6"/>
<line y1="-3" x2="84.3319" y2="-3" transform="matrix(-0.846783 0.531938 -0.627701 -0.778454 293.451 591)" stroke="#F5F6F8" stroke-opacity="0.62" stroke-width="6"/>
<line y1="-3" x2="88.7228" y2="-3" transform="matrix(0.870136 0.492812 -0.588019 0.808847 293.451 593.839)" stroke="#F5F6F8" stroke-opacity="0.62" stroke-width="6"/>
<line y1="-3" x2="75.5471" y2="-3" transform="matrix(-0.0255472 0.999674 -0.999802 -0.0199053 225.93 637)" stroke="#F5F6F8" stroke-opacity="0.62" stroke-width="6"/>
<line x1="373.438" y1="635.439" x2="373.438" y2="714.798" stroke="#F5F6F8" stroke-opacity="0.62" stroke-width="6"/>
<line y1="-3" x2="88.7228" y2="-3" transform="matrix(0.870136 0.492812 -0.588019 0.808847 441.799 594.807)" stroke="#F5F6F8" stroke-opacity="0.62" stroke-width="6"/>
<line x1="521.785" y1="636.408" x2="521.785" y2="715.766" stroke="#F5F6F8" stroke-opacity="0.62" stroke-width="6"/>
<line y1="-3" x2="80.9066" y2="-3" transform="matrix(-0.858778 0.512348 -0.607997 -0.793939 442.062 594.408)" stroke="#F5F6F8" stroke-opacity="0.62" stroke-width="6"/>
<path d="M587.001 592L596.954 598.723" stroke="#F5F6F8" stroke-opacity="0.62" stroke-width="6"/>
<line x1="446" y1="510.599" x2="446" y2="598.788" stroke="#FAFBFC" stroke-width="6"/>
<line x1="514.922" y1="462.892" x2="588.578" y2="508.449" stroke="#F5F6F8" stroke-opacity="0.62" stroke-width="6"/>
<line x1="587" y1="511" x2="587" y2="599.189" stroke="#F5F6F8" stroke-opacity="0.62" stroke-width="6"/>
<line x1="520.307" y1="638.523" x2="589.078" y2="591.523" stroke="#F5F6F8" stroke-opacity="0.62" stroke-width="6"/>
<line y1="-3" x2="82.5387" y2="-3" transform="matrix(-0.829772 0.558103 -0.561898 -0.827207 513.605 465)" stroke="#F5F6F8" stroke-opacity="0.62" stroke-width="6"/>
<defs>
<clipPath id="clip0_533_131">
<rect width="595" height="842" fill="white"/>
</clipPath>
</defs>
</svg>
