<svg width="602" height="844" viewBox="0 0 602 844" fill="none" xmlns="http://www.w3.org/2000/svg">
<g clip-path="url(#clip0_533_131)">
<rect width="595" height="842" fill="white"/>
<path d="M511.719 345.5L595.702 288.379" stroke="#F9FAFB" stroke-width="6"/>
<path d="M513.219 343.674V423.5" stroke="#F9FAFB" stroke-width="6"/>
<line x1="597.441" y1="450.744" x2="587.441" y2="464.744" stroke="#F9FAFB" stroke-width="6"/>
</g>
<line y1="-3" x2="90.8465" y2="-3" transform="matrix(0.863495 0.504357 -0.572538 0.819878 56.1504 695.776)" stroke="#F5F6F8" stroke-opacity="0.62" stroke-width="6"/>
<line x1="137.799" y1="741.589" x2="137.799" y2="821.351" stroke="#F5F6F8" stroke-opacity="0.62" stroke-width="6"/>
<line y1="-3" x2="87.3071" y2="-3" transform="matrix(-0.838098 0.545519 -0.61415 -0.78919 207.768 693.364)" stroke="#F5F6F8" stroke-opacity="0.62" stroke-width="6"/>
<line y1="-3" x2="90.8465" y2="-3" transform="matrix(0.863495 0.504357 -0.572538 0.819878 207.768 696.378)" stroke="#F5F6F8" stroke-opacity="0.62" stroke-width="6"/>
<line y1="-3" x2="87.3071" y2="-3" transform="matrix(-0.838098 0.545519 -0.61415 -0.78919 357.406 692.159)" stroke="#F5F6F8" stroke-opacity="0.62" stroke-width="6"/>
<line y1="-3" x2="91.72" y2="-3" transform="matrix(0.862459 0.506127 -0.574349 0.818611 357.406 695.173)" stroke="#F5F6F8" stroke-opacity="0.62" stroke-width="6"/>
<line y1="-3" x2="24.1353" y2="-3" transform="matrix(-0.600884 0.799336 -0.846565 -0.532285 134.594 818.162)" stroke="#F5F6F8" stroke-opacity="0.62" stroke-width="6"/>
<line y1="-3" x2="24.1353" y2="-3" transform="matrix(-0.600884 0.799336 -0.846565 -0.532285 284.234 818.162)" stroke="#F5F6F8" stroke-opacity="0.62" stroke-width="6"/>
<line y1="-3" x2="24.2432" y2="-3" transform="matrix(0.641987 0.766716 -0.819098 0.573654 134.594 820.573)" stroke="#F5F6F8" stroke-opacity="0.62" stroke-width="6"/>
<line y1="-3" x2="24.2432" y2="-3" transform="matrix(0.641987 0.766716 -0.819098 0.573654 282.916 820.573)" stroke="#F5F6F8" stroke-opacity="0.62" stroke-width="6"/>
<line y1="-3" x2="80.2065" y2="-3" transform="matrix(-0.0246562 0.999696 -0.999787 -0.0206247 284.234 740.993)" stroke="#F5F6F8" stroke-opacity="0.62" stroke-width="6"/>
<line x1="439.291" y1="739.342" x2="439.291" y2="823.597" stroke="#F5F6F8" stroke-opacity="0.62" stroke-width="6"/>
<line y1="-3" x2="93.8325" y2="-3" transform="matrix(-0.881517 0.472152 -0.40263 -0.915363 521.207 695.484)" stroke="#F5F6F8" stroke-opacity="0.62" stroke-width="6"/>
<line y1="-3" x2="86.8904" y2="-3" transform="matrix(0.882683 0.469969 -0.398578 0.917134 521.207 701.026)" stroke="#F5F6F8" stroke-opacity="0.62" stroke-width="6"/>
<line y1="-3" x2="24.1353" y2="-3" transform="matrix(-0.600884 0.799336 -0.846565 -0.532285 436.512 820.573)" stroke="#F5F6F8" stroke-opacity="0.62" stroke-width="6"/>
<line y1="-3" x2="24.2432" y2="-3" transform="matrix(0.641987 0.766716 -0.819098 0.573654 436.512 822.984)" stroke="#F5F6F8" stroke-opacity="0.62" stroke-width="6"/>
<line x1="56.2148" y1="604.486" x2="56.2148" y2="691.789" stroke="#F5F6F8" stroke-opacity="0.62" stroke-width="6"/>
<line y1="-3" x2="91.3174" y2="-3" transform="matrix(-0.821036 0.570877 -0.588819 -0.808265 127.975 551.702)" stroke="#F5F6F8" stroke-opacity="0.62" stroke-width="6"/>
<line y1="-3" x2="94.741" y2="-3" transform="matrix(0.848402 0.529352 -0.547174 0.837019 127.975 555.001)" stroke="#F5F6F8" stroke-opacity="0.62" stroke-width="6"/>
<line y1="-3" x2="91.3174" y2="-3" transform="matrix(-0.821036 0.570877 -0.588819 -0.808265 281.305 550.382)" stroke="#F5F6F8" stroke-opacity="0.62" stroke-width="6"/>
<line y1="-3" x2="95.6636" y2="-3" transform="matrix(0.847281 0.531145 -0.548978 0.835837 281.305 553.681)" stroke="#F5F6F8" stroke-opacity="0.62" stroke-width="6"/>
<line y1="-3" x2="87.7876" y2="-3" transform="matrix(-0.0230822 0.999734 -0.999757 -0.0220313 210.414 603.839)" stroke="#F5F6F8" stroke-opacity="0.62" stroke-width="6"/>
<line x1="365.133" y1="602.025" x2="365.133" y2="694.247" stroke="#F5F6F8" stroke-opacity="0.62" stroke-width="6"/>
<line y1="-3" x2="95.6636" y2="-3" transform="matrix(0.847281 0.531145 -0.548978 0.835837 437.057 554.806)" stroke="#F5F6F8" stroke-opacity="0.62" stroke-width="6"/>
<line x1="520.885" y1="603.151" x2="520.885" y2="695.373" stroke="#F5F6F8" stroke-opacity="0.62" stroke-width="6"/>
<line y1="-3" x2="87.4185" y2="-3" transform="matrix(-0.834474 0.551047 -0.568965 -0.822362 437.332 554.342)" stroke="#F5F6F8" stroke-opacity="0.62" stroke-width="6"/>
<path d="M589.505 551.545L599.955 559.358" stroke="#F5F6F8" stroke-opacity="0.62" stroke-width="6"/>
<path d="M441.316 471L441.316 559.433" stroke="#FAFBFC" stroke-width="6"/>
<line x1="589" y1="462.77" x2="589" y2="554.03" stroke="#F5F6F8" stroke-opacity="0.62" stroke-width="6"/>
<line y1="-3" x2="90.5342" y2="-3" transform="matrix(0.797519 -0.603293 0.525373 0.850872 521.26 608.487)" stroke="#F5F6F8" stroke-opacity="0.62" stroke-width="6"/>
<path d="M515 421L589.647 462.492" stroke="#F5F6F8" stroke-opacity="0.62" stroke-width="6"/>
<path d="M515.501 420L439.568 472.558" stroke="#F5F6F8" stroke-opacity="0.62" stroke-width="6"/>
<defs>
<clipPath id="clip0_533_131">
<rect width="595" height="842" fill="white"/>
</clipPath>
</defs>
</svg>
