<svg width="595" height="848" viewBox="0 0 595 848" fill="none" xmlns="http://www.w3.org/2000/svg">
<g clip-path="url(#clip0_535_173)">
<rect width="595" height="842" fill="white"/>
<path d="M516.001 399.244L589.291 351.5" stroke="#F9FAFB" stroke-width="6"/>
<path d="M517.01 396.674V476.5" stroke="#F9FAFB" stroke-width="6"/>
<path d="M89.5391 710.606L166.518 757.647" stroke="#F5F6F8" stroke-opacity="0.62" stroke-width="6"/>
<path d="M234.685 714.526L165.07 758.396" stroke="#F5F6F8" stroke-opacity="0.62" stroke-width="6"/>
<path d="M233.295 714.09L305.571 755.24" stroke="#F5F6F8" stroke-opacity="0.62" stroke-width="6"/>
<path d="M377.512 715.833L303.851 757.345" stroke="#F5F6F8" stroke-opacity="0.62" stroke-width="6"/>
<path d="M375.193 715.833L446.606 758.082" stroke="#F5F6F8" stroke-opacity="0.62" stroke-width="6"/>
<path d="M302.5 827.5L286.62 844.758" stroke="#F5F6F8" stroke-opacity="0.62" stroke-width="6"/>
<path d="M303.199 824.158L320.473 846.501" stroke="#F5F6F8" stroke-opacity="0.62" stroke-width="6"/>
<line y1="-3" x2="69.8719" y2="-3" transform="matrix(-0.0262494 0.999655 -0.999812 -0.0193726 302.143 756.333)" stroke="#F5F6F8" stroke-opacity="0.62" stroke-width="6"/>
<line x1="446.166" y1="754.896" x2="446.166" y2="828.292" stroke="#F5F6F8" stroke-opacity="0.62" stroke-width="6"/>
<path d="M522.19 716.268L446.326 757.676" stroke="#F5F6F8" stroke-opacity="0.62" stroke-width="6"/>
<path d="M521.266 716.704L596 756" stroke="#F5F6F8" stroke-opacity="0.62" stroke-width="6"/>
<path d="M445.725 827.048L430.837 844.758" stroke="#F5F6F8" stroke-opacity="0.62" stroke-width="6"/>
<path d="M445.648 826.258L462.37 845.629" stroke="#F5F6F8" stroke-opacity="0.62" stroke-width="6"/>
<line x1="90" y1="639.028" x2="90" y2="715.079" stroke="#F5F6F8" stroke-opacity="0.62" stroke-width="6"/>
<path d="M160.973 594.064L88.6558 641.218" stroke="#F5F6F8" stroke-opacity="0.62" stroke-width="6"/>
<path d="M157.857 593.734L235.655 639.476" stroke="#F5F6F8" stroke-opacity="0.62" stroke-width="6"/>
<path d="M302.895 592L233.8 639.476" stroke="#F5F6F8" stroke-opacity="0.62" stroke-width="6"/>
<path d="M300.066 592.587L377.089 639.911" stroke="#F5F6F8" stroke-opacity="0.62" stroke-width="6"/>
<line y1="-3" x2="76.4758" y2="-3" transform="matrix(-0.0245738 0.999698 -0.999786 -0.0206939 232.793 638.464)" stroke="#F5F6F8" stroke-opacity="0.62" stroke-width="6"/>
<line x1="166.879" y1="757.995" x2="167" y2="827.995" stroke="#F5F6F8" stroke-opacity="0.62" stroke-width="6"/>
<line x1="376.504" y1="636.885" x2="376.504" y2="717.221" stroke="#F5F6F8" stroke-opacity="0.62" stroke-width="6"/>
<line y1="-3" x2="87.2359" y2="-3" transform="matrix(0.861718 0.507388 -0.57306 0.819514 442.99 595.751)" stroke="#F5F6F8" stroke-opacity="0.62" stroke-width="6"/>
<line y1="-3" x2="80.3361" y2="-3" transform="matrix(0.000165829 1 -1 0.000146299 517.947 637.865)" stroke="#F5F6F8" stroke-opacity="0.62" stroke-width="6"/>
<line y1="-3" x2="79.6126" y2="-3" transform="matrix(-0.849809 0.527091 -0.593074 -0.805148 443.246 595.347)" stroke="#F5F6F8" stroke-opacity="0.62" stroke-width="6"/>
<path d="M584.852 518.071L596.286 507.964" stroke="#F5F6F8" stroke-opacity="0.62" stroke-width="6"/>
<path d="M585.551 591.05L597.33 600.876" stroke="#F5F6F8" stroke-opacity="0.62" stroke-width="6"/>
<path d="M585.999 352L600.525 359.798" stroke="#F5F6F8" stroke-opacity="0.62" stroke-width="6"/>
<path d="M447.826 521.138L447.826 598.173" stroke="#FAFBFC" stroke-width="6"/>
<line x1="585.012" y1="513.969" x2="585.012" y2="593.467" stroke="#F5F6F8" stroke-opacity="0.62" stroke-width="6"/>
<path d="M520.507 638.683L584.795 592.135" stroke="#F5F6F8" stroke-opacity="0.62" stroke-width="6"/>
<path d="M516.162 477.582L584.998 516" stroke="#F5F6F8" stroke-opacity="0.62" stroke-width="6"/>
<path d="M516.626 476.712L446.203 522.496" stroke="#F5F6F8" stroke-opacity="0.62" stroke-width="6"/>
</g>
<path d="M165.881 827.342L150.001 844.6" stroke="#F5F6F8" stroke-opacity="0.62" stroke-width="6"/>
<path d="M166.58 824L183.854 846.342" stroke="#F5F6F8" stroke-opacity="0.62" stroke-width="6"/>
<path d="M484 245.954L494.661 241.006" stroke="#F5F6F8" stroke-opacity="0.62" stroke-width="6"/>
<defs>
<clipPath id="clip0_535_173">
<rect width="595" height="842" fill="white"/>
</clipPath>
</defs>
</svg>
