<svg width="37" height="37" viewBox="0 0 37 37" fill="none" xmlns="http://www.w3.org/2000/svg">
<path d="M1 27.45C1.12 26.8 1.21 26.14 1.36 25.49C2.12 22.23 3.69 19.5 6.49 17.56C7.87 16.61 9.4 16.07 11.08 15.94C11.37 15.92 11.6 15.98 11.83 16.18C14.05 18.12 16.82 18.2 19.08 16.31C19.71 15.78 20.34 15.92 20.95 16.07C21.83 16.28 22.68 16.62 23.53 16.94C23.77 17.03 23.95 17.07 24.16 16.92C24.36 16.78 24.62 16.7 24.78 16.52C25.4 15.79 26.17 15.91 26.97 16.08C30.24 16.76 32.52 18.74 34.15 21.55C35.41 23.73 36.01 26.1 36.01 28.62C36.01 29.91 36.02 31.21 36.01 32.5C35.99 34.14 34.96 35.59 33.53 35.96C33.32 36.01 33.1 36.02 32.88 36.02C23.39 36.02 13.89 36.02 4.4 36.02C2.93 36.02 1.89 35.32 1.34 33.95C1.21 33.63 1.12 33.29 1.01 32.97V27.47L1 27.45ZM27.62 23.17C27.27 22.58 26.98 21.99 26.61 21.46C25.14 19.3 23.21 17.78 20.57 17.3C20.2 17.23 19.92 17.3 19.61 17.53C17.01 19.46 13.86 19.42 11.29 17.48C11.12 17.35 10.82 17.25 10.62 17.3C9.9 17.47 9.17 17.62 8.5 17.92C5.71 19.19 4.02 21.46 3.03 24.28C2.04 27.07 2.13 29.97 2.35 32.86C2.42 33.79 3.08 34.77 4.55 34.77C11.83 34.75 19.12 34.77 26.4 34.77C27.89 34.77 28.84 33.73 28.73 32.21C26.25 31.91 24.55 30.64 24.28 28.05C24.04 25.72 25.19 24.14 27.6 23.18L27.62 23.17ZM29.34 34.76C30.39 34.76 31.36 34.76 32.33 34.76C33.7 34.76 34.55 34.08 34.65 32.7C34.75 31.25 34.74 29.8 34.7 28.35C34.63 25.86 33.96 23.54 32.56 21.46C31.1 19.29 29.17 17.8 26.53 17.29C25.85 17.16 25.56 17.6 25.09 17.87C26.79 19.21 28 20.83 28.84 22.74C28.94 22.96 29.05 23.06 29.31 23.08C31.87 23.26 33.85 25.86 33.34 28.39C33 30.07 32.02 31.22 30.43 31.87C30.29 31.93 30.09 32.1 30.09 32.21C30.12 33.11 29.86 33.92 29.34 34.76ZM28.83 30.87C30.64 30.87 32.12 29.41 32.13 27.62C32.13 25.8 30.65 24.33 28.83 24.33C27.01 24.33 25.52 25.81 25.53 27.63C25.53 29.41 27.03 30.88 28.83 30.88V30.87Z" fill="white" stroke="white" stroke-width="0.5" stroke-miterlimit="10"/>
<path d="M21.9395 1C22.3395 1.11 22.7395 1.21 23.1395 1.33C26.3295 2.32 28.4495 5.42 28.1995 8.74C27.9495 12.17 25.3795 14.94 22.0095 15.42C20.9695 15.57 19.9595 15.49 18.9395 15.23C18.7195 15.17 18.4495 15.18 18.2295 15.24C14.0395 16.54 9.77955 14.04 8.87955 9.75C7.95955 5.35 11.4195 1.08 15.8995 1.1C16.6295 1.1 17.3595 1.28 18.0895 1.38C18.1995 1.4 18.3295 1.45 18.4295 1.43C18.9595 1.3 19.4895 1.15 20.0195 1.01H21.9395V1ZM21.9895 8.32C21.9895 5.05 19.2995 2.35 16.0395 2.34C12.7095 2.34 10.0295 5.01 10.0195 8.34C10.0195 11.62 12.7195 14.32 16.0195 14.32C19.3095 14.32 21.9995 11.63 21.9995 8.32H21.9895ZM20.1995 2.36C22.1195 3.84 23.2195 5.75 23.2595 8.2C23.2995 10.65 22.2795 12.6 20.4095 14.15C22.0995 14.46 24.5595 13.6 25.9095 11.6C27.3295 9.49 27.2695 6.76 25.7695 4.7C24.3795 2.78 21.8895 1.97 20.1995 2.36Z" fill="white" stroke="white" stroke-width="0.5" stroke-miterlimit="10"/>
<path d="M28.8301 25.76V29.42" stroke="white" stroke-miterlimit="10"/>
<path d="M30.65 27.5901H27" stroke="white" stroke-miterlimit="10"/>
</svg>
