<svg width="36" height="35" viewBox="0 0 36 35" fill="none" xmlns="http://www.w3.org/2000/svg">
<path d="M28.4502 19.8899V22.5399" stroke="white" stroke-miterlimit="10"/>
<path d="M29.7699 21.22H27.1299" stroke="white" stroke-miterlimit="10"/>
<path d="M35.03 9.62C34.61 8.16 33.35 7.19 31.83 7.19C29.95 7.19 28.07 7.19 26.19 7.19H25.68V6.73C25.68 5.3 25.66 3.87 25.68 2.44C25.7 1.75 25.47 1.27 24.83 1H11.07C10.46 1.29 10.22 1.76 10.23 2.46C10.27 3.88 10.24 5.3 10.24 6.72V7.21H9.76C7.96 7.21 6.16 7.21 4.36 7.21C2.44 7.21 1 8.65 1 10.58C1 15.6 1 16.63 1 21.65C1 23.51 2.51 27.02 4.37 27.02C7.1 27.02 9.84 27.02 12.57 27.02H13.1C12.86 27.54 12.65 28.03 12.4 28.49C12.36 28.57 12.13 28.58 11.99 28.58C8.78 28.58 5.56 28.6 2.35 28.58C1.48 28.58 1.51 28.9 1.6 29.47C1.81 30.76 2.57 33.59 3.82 33.97C3.9 33.99 3.97 34.03 4.05 34.06H32.09C32.75 33.86 33.37 33.58 33.83 33.03C34.28 32.5 34.54 29.89 34.56 29.19C34.57 28.7 34.45 28.59 33.96 28.59C30.8 28.59 27.65 28.59 24.49 28.59C24.09 28.59 23.86 28.51 23.74 28.1C23.64 27.75 23.46 27.42 23.29 27.03C23.47 27.03 23.61 27.01 23.75 27.01C26.37 27.01 28.99 27.01 31.61 27.01C33.42 27.01 34.57 26.13 35.06 24.38C35.07 24.34 35.1 24.32 35.13 24.28V9.92C35.09 9.82 35.05 9.72 35.02 9.62H35.03ZM11.4 14.19V2.17H24.49V14.17H27.89L27.91 14.25C27.82 14.32 27.73 14.39 27.63 14.45C24.51 16.26 21.38 18.07 18.27 19.89C17.98 20.06 17.78 20.05 17.5 19.88C14.52 18.09 11.54 16.31 8.56 14.53C8.42 14.45 8.29 14.36 8.17 14.2H11.4V14.19ZM33.21 29.76C32.91 30.45 32.38 32.78 31.64 32.86C31.52 32.87 31.41 32.87 31.29 32.87C22.49 32.87 13.69 32.87 4.89 32.87C4.13 32.87 3.48 30.65 3.06 29.98C3.03 29.93 3.01 29.86 2.96 29.75H33.21V29.76ZM13.72 28.54C13.95 28.03 14.18 27.53 14.4 27.03H22C22.21 27.52 22.42 28.01 22.65 28.54H13.72ZM33.97 23.72C33.97 24.92 33 25.83 31.78 25.83C29.51 25.83 27.25 25.83 24.98 25.83C18.18 25.83 11.38 25.83 4.58 25.83C3.05 25.83 2.19 22.96 2.19 21.42C2.19 16.52 2.19 15.61 2.19 10.71C2.19 9.23 3.07 8.35 4.55 8.35C6.28 8.35 8.01 8.35 9.74 8.35H10.21V10.39H10.2L10.18 11.89V12.91C10.07 12.91 9.95 12.94 9.83 12.94C9.25 12.94 8.68 12.94 8.1 12.94C7.42 12.94 6.93 13.26 6.78 13.78C6.6 14.38 6.84 14.92 7.44 15.28C8.54 15.94 9.63 16.59 10.73 17.25C12.79 18.48 14.87 19.7 16.91 20.96C17.58 21.37 18.14 21.36 18.82 20.96C22.05 19.06 25.3 17.19 28.54 15.31C28.93 15.09 29.24 14.82 29.3 14.35C29.4 13.57 28.89 12.97 28.1 12.95C27.43 12.93 26.75 12.93 26.08 12.95C25.79 12.95 25.71 12.85 25.7 12.57C25.7 12.45 25.7 12.34 25.7 12.24C25.7 12.03 25.71 11.89 25.75 11.8V10.38H25.72V8.39C25.78 8.37 25.81 8.35 25.85 8.35C27.87 8.35 29.89 8.33 31.91 8.35C33.05 8.36 33.97 9.31 33.97 10.46C33.98 15.54 33.98 18.62 33.97 23.71V23.72Z" fill="white" stroke="white" stroke-width="0.5" stroke-miterlimit="10"/>
<path d="M23.0495 13.77C23.0495 12.67 23.0795 11.6 23.0495 10.53C23.0295 9.90996 22.7695 9.31996 22.2795 8.93996C21.8295 8.57996 21.2895 8.34996 20.7595 8.04996C21.7495 6.35996 21.5995 4.69996 20.2995 3.54996C19.1195 2.50996 17.3295 2.45996 16.0895 3.42996C14.6695 4.53996 14.4895 6.13996 15.5395 8.16996C15.4295 8.19996 15.3295 8.21996 15.2195 8.24996C14.1395 8.49996 13.3195 9.28996 13.2295 10.4C13.1395 11.52 13.2095 12.65 13.2095 13.78H23.0695L23.0495 13.77ZM18.1395 3.90996C18.9695 3.92996 19.7895 4.49996 19.9695 5.22996C19.5695 5.30996 19.2895 5.08996 19.0195 4.87996C18.5095 4.48996 18.4995 4.45996 18.0195 4.86996C17.4795 5.33996 16.8695 5.38996 16.1795 5.31996C16.4295 4.48996 17.2895 3.88996 18.1395 3.90996ZM16.8495 6.03996C17.3895 6.03996 17.8695 5.88996 18.2995 5.54996C18.3795 5.47996 18.5895 5.46996 18.6695 5.52996C19.1395 5.84996 19.6295 6.03996 20.2395 5.92996C20.2695 7.19996 19.2995 8.17996 18.1095 8.17996C16.9495 8.17996 15.9595 7.19996 15.9995 6.03996C16.2795 6.03996 16.5695 6.03996 16.8495 6.03996ZM14.4895 10.24C14.7095 9.64996 15.2095 9.37996 15.8195 9.36996C17.3395 9.34996 18.8695 9.34996 20.3895 9.36996C21.1795 9.36996 21.7595 9.87996 21.8395 10.67C21.8995 11.29 21.8495 11.93 21.8495 12.6H14.3295C14.3795 11.8 14.1895 11.01 14.4795 10.24H14.4895Z" fill="white"/>
<path d="M28.4497 23.95C29.9575 23.95 31.1797 22.7277 31.1797 21.22C31.1797 19.7123 29.9575 18.49 28.4497 18.49C26.942 18.49 25.7197 19.7123 25.7197 21.22C25.7197 22.7277 26.942 23.95 28.4497 23.95Z" stroke="white" stroke-miterlimit="10"/>
</svg>
