<svg width="36" height="35" viewBox="0 0 36 35" fill="none" xmlns="http://www.w3.org/2000/svg">
<path d="M16.35 1.01H17.98C18.07 1.04 18.16 1.08 18.26 1.09C22.01 1.78 24.06 5.72 22.36 8.99C22.12 9.45 21.8 9.87 21.57 10.23C22.45 10.72 23.34 11.23 24.23 11.72C24.42 11.82 24.64 11.92 24.84 11.92C26.42 11.94 28.01 11.92 29.6 11.92C31.08 11.92 32.34 12.87 32.64 14.27C32.73 14.67 32.72 15.09 32.71 15.49C32.71 15.78 32.78 15.95 33.07 16.1C33.97 16.57 34.6 17.28 34.98 18.19C35.1 18.48 35.19 18.78 35.29 19.07V20.47C35.26 20.53 35.22 20.59 35.21 20.65C34.93 21.9 34.2 22.84 33.05 23.47C32.78 23.62 32.71 23.77 32.71 24.05C32.71 26.68 32.71 29.31 32.71 31.93C32.71 33.06 31.8 33.94 30.63 33.94C21.48 33.94 12.33 33.94 3.17 33.94C1.9 33.94 1 33.07 1 31.84C1 26.2 1 20.56 1 14.93C1 13.25 2.37 11.93 4.12 11.93C5.76 11.93 7.4 11.93 9.05 11.93C9.23 11.93 9.45 11.88 9.59 11.77C10.46 11.13 11.41 10.64 12.45 10.32C12.55 10.29 12.64 10.25 12.76 10.2C12.65 10.06 12.58 9.97 12.5 9.87C10.09 6.74 11.66 2.28 15.56 1.2C15.82 1.13 16.08 1.07 16.34 1L16.35 1.01ZM16.86 32.77C21.31 32.77 25.77 32.77 30.22 32.77C31.16 32.77 31.49 32.46 31.49 31.56C31.49 29.89 31.49 28.22 31.49 26.55C31.49 25.74 31.33 24.97 30.74 24.34C30.61 24.2 30.41 24.09 30.22 24.02C29.63 23.8 29.03 23.6 28.43 23.41C28.26 23.35 28.08 23.28 27.91 23.28C20.47 23.28 13.04 23.28 5.6 23.28C4.9 23.28 4.21 23.4 3.61 23.8C2.61 24.46 2.25 25.41 2.24 26.52C2.24 28.16 2.24 29.8 2.24 31.45C2.24 32.44 2.56 32.75 3.59 32.75C8.02 32.75 12.44 32.75 16.87 32.75L16.86 32.77ZM26.36 22.11C26.36 20.78 26.38 19.5 26.36 18.21C26.29 14.92 23.95 12.13 20.62 11.34C20.43 11.3 20.19 11.32 20.02 11.4C18.05 12.37 16.11 12.35 14.18 11.32C14.07 11.26 13.91 11.21 13.79 11.23C10.7 11.64 7.9 14.39 7.63 17.39C7.5 18.78 7.56 20.18 7.53 21.57C7.53 21.74 7.53 21.92 7.53 22.1H26.36V22.11ZM21.71 6.62C21.72 4.2 19.71 2.22 17.23 2.2C14.69 2.18 12.63 4.11 12.6 6.53C12.57 8.91 14.63 10.92 17.11 10.93C19.63 10.94 21.69 9.01 21.71 6.62ZM8.16 13.14C8.07 13.12 8.05 13.11 8.02 13.11C6.85 13.11 5.68 13.11 4.51 13.11C2.98 13.11 2.23 13.84 2.23 15.32C2.23 17.84 2.23 20.36 2.23 22.87V23.33C3.42 22.19 4.82 22.02 6.31 22.13C6.31 20.76 6.29 19.46 6.32 18.16C6.34 17.56 6.42 16.96 6.55 16.38C6.81 15.2 7.38 14.15 8.16 13.15V13.14ZM30.82 22.88C32.6 22.88 34.07 21.51 34.08 19.84C34.09 18.13 32.64 16.73 30.85 16.72C29.07 16.72 27.6 18.09 27.59 19.76C27.58 21.47 29.03 22.87 30.82 22.88ZM31.48 15.56C31.6 14.16 30.96 13.22 29.76 13.15C28.45 13.07 27.12 13.13 25.73 13.13C26.65 14.26 27.21 15.5 27.51 16.92C28.65 15.81 29.96 15.41 31.48 15.56Z" fill="white" stroke="white" stroke-width="0.5" stroke-miterlimit="10"/>
<path d="M30.4602 20.0299H29.1602L30.9902 17.4199L32.8202 20.0199H31.5402V21.7199H30.4602V20.0299Z" fill="white"/>
</svg>
