<svg width="35" height="33" viewBox="0 0 35 33" fill="none" xmlns="http://www.w3.org/2000/svg">
<path d="M34.62 4.32001V31.9052C34.48 32.2438 34.22 32.4789 33.86 32.62H1.76C1.4 32.4789 1.14 32.2532 1 31.9052V1.71479C1.14 1.3762 1.4 1.14108 1.76 1H12.77C13.09 1.19751 13.32 1.45145 13.54 1.743C13.85 2.16623 14.2 2.56125 14.49 2.99388C14.7 3.29485 14.94 3.37949 15.31 3.37949C21.15 3.37009 26.98 3.37949 32.82 3.36068C33.67 3.36068 34.27 3.58641 34.62 4.32001V4.32001ZM17.92 7.32964C18.09 7.75287 18.45 7.92217 18.91 7.92217C19.48 7.92217 20.06 7.89395 20.63 7.89395C23.82 7.86574 27.01 7.83752 30.2 7.80931C31.17 7.80931 32.13 7.78109 33.1 7.7905C33.38 7.7905 33.44 7.70585 33.44 7.46132C33.42 6.66188 33.44 5.85304 33.44 5.05361C33.44 4.4987 33.44 4.4987 32.86 4.4987C28.03 4.4987 23.2 4.4987 18.37 4.4987C18.22 4.4987 18.06 4.51751 17.91 4.51751H15.71C16.5 5.47684 17.15 6.45497 17.94 7.32964H17.92ZM16.13 21.5878C16.26 21.663 16.36 21.7195 16.45 21.7759C18.57 23.0644 19.84 24.8702 20.16 27.2309C20.33 28.5006 20.21 29.7797 20.22 31.0588C20.22 31.3973 20.29 31.5196 20.69 31.5196C24.79 31.5008 28.9 31.5102 33 31.5102C33.58 31.5102 33.59 31.4914 33.59 30.9553C33.59 23.7886 33.59 16.6219 33.59 9.4552C33.59 8.91911 33.57 8.9003 32.99 8.9003C28.21 8.9003 23.44 8.88149 18.66 8.91911C17.84 8.91911 17.32 8.62755 16.87 8.04443C15.42 6.154 13.95 4.28239 12.51 2.38255C12.34 2.15683 12.17 2.09099 11.89 2.09099C8.81 2.09099 5.73 2.1004 2.65 2.09099C2.26 2.09099 2.14 2.15683 2.14 2.55184C2.15 12.051 2.15 21.5408 2.15 31.0399C2.15 31.1058 2.15 31.1716 2.14 31.2375C2.11 31.4538 2.22 31.5102 2.43 31.5008C2.95 31.4914 3.47 31.482 3.98 31.5008C4.26 31.5102 4.33 31.4256 4.32 31.1716C4.31 30.2217 4.31 29.2718 4.32 28.3313C4.34 25.3216 5.74 23.0644 8.51 21.5596C8.74 21.4373 8.76 21.3809 8.6 21.1646C7.78 20.0924 7.51 18.9073 7.77 17.6094C8.21 15.3616 10.46 13.7722 12.95 13.9603C15.37 14.1389 17.32 16.1046 17.36 18.3807C17.38 19.5939 16.96 20.6473 16.1 21.5878H16.13ZM12.26 30.9553C14.4 30.9553 16.54 30.9553 18.69 30.9553C19.01 30.9553 19.08 30.8801 19.07 30.5885C19.05 29.742 19.09 28.905 19.06 28.0585C18.96 25.585 17.73 23.7416 15.45 22.5189C15.27 22.4155 15.1 22.3684 14.87 22.4813C13.23 23.2807 11.6 23.2431 10 22.359C9.84 22.265 9.71 22.2556 9.54 22.3308C7.33 23.3372 5.99 24.9642 5.61 27.2497C5.42 28.3595 5.58 29.4881 5.52 30.5979C5.5 30.9177 5.63 30.9553 5.92 30.9459C8.03 30.9365 10.15 30.9459 12.26 30.9459V30.9553ZM8.91 18.4841C8.91 20.3463 10.54 21.9076 12.52 21.9264C14.52 21.9452 16.19 20.3745 16.19 18.5029C16.19 16.6407 14.54 15.0795 12.56 15.0795C10.58 15.0795 8.92 16.6219 8.91 18.4841Z" fill="white" stroke="white" stroke-width="0.5" stroke-miterlimit="10"/>
<path d="M4.13965 8.24189C4.13965 5.93763 6.06965 4.16007 8.56965 4.16947C10.9896 4.16947 12.8896 5.99406 12.8896 8.30772C12.8896 10.5367 10.8996 12.3801 8.49965 12.3613C6.06965 12.3425 4.13965 10.5273 4.13965 8.24189ZM8.52965 11.2233C10.2896 11.2233 11.6996 9.87838 11.6896 8.23248C11.6896 6.6054 10.2396 5.28868 8.46965 5.28868C6.74965 5.28868 5.31965 6.64302 5.31965 8.2607C5.31965 9.88778 6.76965 11.2233 8.51965 11.2233H8.52965Z" fill="white" stroke="white" stroke-width="0.5" stroke-miterlimit="10"/>
<path d="M26.9299 15.0608C25.8499 15.0608 24.7799 15.0608 23.6999 15.0608C23.1799 15.0608 22.8799 14.8163 22.8799 14.4213C22.8799 14.0357 23.1899 13.8005 23.6799 13.8005C25.8499 13.8005 28.0099 13.8005 30.1799 13.8005C30.6699 13.8005 30.9699 14.0451 30.9799 14.4213C30.9799 14.8163 30.6699 15.0608 30.1599 15.0608C29.0799 15.0608 28.0099 15.0608 26.9299 15.0608Z" fill="white" stroke="white" stroke-width="0.5" stroke-miterlimit="10"/>
<path d="M26.9399 16.6408C28.0199 16.6408 29.0899 16.6408 30.1699 16.6408C30.6599 16.6408 30.9599 16.8759 30.9799 17.2521C30.9899 17.6471 30.6799 17.901 30.1699 17.901C28.0199 17.901 25.8599 17.901 23.7099 17.901C23.1899 17.901 22.8799 17.6659 22.8799 17.2615C22.8799 16.8665 23.1899 16.6313 23.7099 16.6313C24.7899 16.6313 25.8599 16.6313 26.9399 16.6313V16.6408Z" fill="white" stroke="white" stroke-width="0.5" stroke-miterlimit="10"/>
<path d="M26.9299 19.481C28.0099 19.481 29.0799 19.481 30.1599 19.481C30.6699 19.481 30.9899 19.7255 30.9799 20.1205C30.9799 20.4967 30.6699 20.7412 30.1799 20.7412C28.0099 20.7412 25.8499 20.7412 23.6799 20.7412C23.1899 20.7412 22.8899 20.5061 22.8799 20.1205C22.8799 19.7255 23.1799 19.481 23.6999 19.481C24.7799 19.481 25.8499 19.481 26.9299 19.481Z" fill="white" stroke="white" stroke-width="0.5" stroke-miterlimit="10"/>
<path d="M8.5 6.5V9.5M7 8H10" stroke="white"/>
</svg>
